<?xml version="1.0" standalone="no"?>
<!DOCTYPE svg PUBLIC "-//W3C//DTD SVG 20010904//EN"
 "http://www.w3.org/TR/2001/REC-SVG-20010904/DTD/svg10.dtd">
<svg version="1.0" xmlns="http://www.w3.org/2000/svg"
 width="1224.000000pt" height="738.000000pt" viewBox="0 0 1224.000000 738.000000"
 preserveAspectRatio="xMidYMid meet">

<g transform="translate(0.000000,738.000000) scale(0.100000,-0.100000)"
fill="#000000" stroke="none">
<path d="M40 7213 l0 -128 930 0 930 0 0 128 0 127 -930 0 -930 0 0 -127z
m272 46 c2 -7 28 -11 62 -10 48 0 56 -2 47 -13 -9 -11 -9 -15 0 -18 7 -2 9
-10 5 -16 -10 -16 -306 -16 -306 0 0 6 8 7 18 4 16 -6 16 -5 0 8 -36 27 -21
36 59 35 50 -1 78 2 81 10 5 14 29 14 34 0z"/>
<path d="M205 7210 c3 -5 12 -7 20 -3 21 7 19 13 -6 13 -11 0 -18 -4 -14 -10z"/>
<path d="M334 7211 c3 -5 15 -7 26 -4 28 7 25 13 -6 13 -14 0 -23 -4 -20 -9z"/>
<path d="M200 7001 c0 -5 -9 -11 -21 -14 -32 -9 -22 -51 14 -55 26 -3 27 -1
27 37 0 23 -4 41 -10 41 -5 0 -10 -4 -10 -9z m0 -41 c0 -11 -4 -20 -10 -20 -5
0 -10 9 -10 20 0 11 5 20 10 20 6 0 10 -9 10 -20z"/>
<path d="M430 7001 c0 -5 -9 -11 -21 -14 -29 -8 -23 -52 9 -53 19 -1 22 4 22
37 0 22 -2 39 -5 39 -3 0 -5 -4 -5 -9z m-5 -51 c-5 -8 -11 -8 -17 -2 -6 6 -7
16 -3 22 5 8 11 8 17 2 6 -6 7 -16 3 -22z"/>
<path d="M579 6993 c-11 -15 -11 -16 1 -5 16 14 34 16 26 4 -3 -5 1 -9 9 -9
11 0 12 4 4 14 -15 17 -24 16 -40 -4z"/>
<path d="M1568 6993 c6 -2 18 -2 25 0 6 3 1 5 -13 5 -14 0 -19 -2 -12 -5z"/>
<path d="M1611 6963 c1 -21 3 -30 6 -20 2 9 10 17 16 17 7 0 6 4 -3 10 -13 9
-13 11 0 20 13 8 12 10 -2 10 -14 0 -18 -8 -17 -37z"/>
<path d="M1675 6965 c0 -19 5 -35 10 -35 6 0 10 16 10 35 0 19 -4 35 -10 35
-5 0 -10 -16 -10 -35z"/>
<path d="M132 6960 c0 -19 2 -27 5 -17 2 9 2 25 0 35 -3 9 -5 1 -5 -18z"/>
<path d="M274 6979 c-4 -7 1 -16 12 -22 17 -10 17 -11 -1 -18 -19 -7 -18 -8 3
-8 23 -1 31 22 11 35 -8 4 -7 9 2 15 11 7 10 9 -3 9 -9 0 -20 -5 -24 -11z"/>
<path d="M326 6974 c-8 -20 10 -44 32 -44 13 0 12 3 -4 15 -18 14 -18 14 4 15
29 0 24 24 -5 28 -12 2 -23 -4 -27 -14z"/>
<path d="M464 6976 c-10 -25 3 -46 28 -45 23 0 23 0 -2 11 l-25 11 23 5 c13 2
21 9 19 15 -6 19 -36 20 -43 3z"/>
<path d="M1517 6969 c7 -7 15 -10 18 -7 3 3 -2 9 -12 12 -14 6 -15 5 -6 -5z"/>
<path d="M587 6947 c-22 -12 -33 -23 -26 -26 7 -2 15 1 17 8 2 6 9 11 17 11 7
0 18 7 25 15 15 19 14 18 -33 -8z"/>
<path d="M1568 6963 c7 -3 16 -2 19 1 4 3 -2 6 -13 5 -11 0 -14 -3 -6 -6z"/>
<path d="M1726 6952 c-2 -4 4 -8 14 -8 10 0 16 4 14 8 -3 4 -9 8 -14 8 -5 0
-11 -4 -14 -8z"/>
<path d="M1518 6933 c7 -3 16 -2 19 1 4 3 -2 6 -13 5 -11 0 -14 -3 -6 -6z"/>
<path d="M1568 6933 c6 -2 18 -2 25 0 6 3 1 5 -13 5 -14 0 -19 -2 -12 -5z"/>
<path d="M1788 6933 c7 -3 16 -2 19 1 4 3 -2 6 -13 5 -11 0 -14 -3 -6 -6z"/>
<path d="M233 6913 c9 -2 23 -2 30 0 6 3 -1 5 -18 5 -16 0 -22 -2 -12 -5z"/>
<path d="M914 6726 c-3 -8 -4 -22 -2 -31 2 -10 -3 -20 -11 -23 -10 -3 -12 0
-8 12 4 9 2 16 -4 16 -13 0 -7 -32 7 -37 15 -5 64 42 64 62 0 19 -39 20 -46 1z
m36 -4 c0 -13 -12 -22 -22 -16 -10 6 -1 24 13 24 5 0 9 -4 9 -8z"/>
<path d="M1651 6703 c2 -31 3 -33 6 -10 2 15 9 25 14 22 5 -3 6 1 3 9 -11 29
-24 16 -23 -21z"/>
<path d="M1700 6714 c0 -14 -4 -22 -10 -19 -6 3 -7 -1 -4 -9 11 -28 24 -17 24
19 0 19 -2 35 -5 35 -3 0 -5 -12 -5 -26z"/>
<path d="M1730 6706 c0 -20 2 -36 4 -36 8 0 12 61 4 66 -4 3 -8 -11 -8 -30z"/>
<path d="M272 6700 c0 -14 2 -19 5 -12 2 6 2 18 0 25 -3 6 -5 1 -5 -13z"/>
<path d="M311 6698 c-1 -16 -8 -28 -18 -31 -17 -4 -17 -5 0 -6 20 -1 31 19 24
46 -3 12 -5 9 -6 -9z"/>
<path d="M358 6713 c7 -3 16 -2 19 1 4 3 -2 6 -13 5 -11 0 -14 -3 -6 -6z"/>
<path d="M487 6714 c-14 -14 -6 -24 19 -24 16 0 24 5 22 13 -5 14 -31 21 -41
11z m30 -10 c-3 -3 -12 -4 -19 -1 -8 3 -5 6 6 6 11 1 17 -2 13 -5z"/>
<path d="M585 6711 c-3 -5 0 -13 6 -17 7 -4 9 -3 5 4 -3 6 2 13 11 15 16 4 16
5 1 6 -9 0 -19 -3 -23 -8z"/>
<path d="M670 6716 c0 -2 9 -6 20 -9 11 -3 20 -1 20 4 0 5 -9 9 -20 9 -11 0
-20 -2 -20 -4z"/>
<path d="M738 6713 c7 -3 16 -2 19 1 4 3 -2 6 -13 5 -11 0 -14 -3 -6 -6z"/>
<path d="M1760 6690 c6 -11 13 -20 16 -20 2 0 0 9 -6 20 -6 11 -13 20 -16 20
-2 0 0 -9 6 -20z"/>
<path d="M748 6693 c7 -3 16 -2 19 1 4 3 -2 6 -13 5 -11 0 -14 -3 -6 -6z"/>
<path d="M488 6668 c5 -5 16 -8 23 -6 8 3 3 7 -10 11 -17 4 -21 3 -13 -5z"/>
<path d="M685 6670 c-19 -8 -19 -9 3 -9 12 -1 22 4 22 9 0 6 -1 10 -2 9 -2 0
-12 -4 -23 -9z"/>
<path d="M745 6670 c-16 -7 -17 -9 -3 -9 9 -1 20 4 23 9 7 11 7 11 -20 0z"/>
<path d="M178 6663 c7 -3 16 -2 19 1 4 3 -2 6 -13 5 -11 0 -14 -3 -6 -6z"/>
<path d="M588 6663 c7 -3 16 -2 19 1 4 3 -2 6 -13 5 -11 0 -14 -3 -6 -6z"/>
<path d="M808 6663 c7 -3 16 -2 19 1 4 3 -2 6 -13 5 -11 0 -14 -3 -6 -6z"/>
<path d="M10086 6654 c-3 -8 -6 -67 -6 -130 l0 -114 935 0 936 0 -3 128 -3
127 -926 3 c-839 2 -927 1 -933 -14z m542 -116 l3 -26 -86 -1 c-79 -1 -87 1
-92 19 -7 26 -23 26 -23 0 0 -16 -7 -20 -30 -20 -20 0 -30 -5 -30 -15 0 -8 -9
-15 -20 -15 -11 0 -20 7 -20 15 0 10 -10 15 -30 15 -24 0 -30 4 -31 23 l-2 22
-4 -22 c-4 -20 -11 -23 -49 -23 -46 0 -62 14 -51 45 5 12 43 14 234 12 l228
-2 3 -27z"/>
<path d="M10555 6550 c-3 -5 -1 -10 4 -10 6 0 11 5 11 10 0 6 -2 10 -4 10 -3
0 -8 -4 -11 -10z"/>
<path d="M10195 6530 c3 -5 12 -7 20 -3 21 7 19 13 -6 13 -11 0 -18 -4 -14
-10z"/>
<path d="M10480 6533 c0 -5 13 -8 29 -8 16 0 27 3 24 8 -2 4 -15 7 -29 7 -13
0 -24 -3 -24 -7z"/>
<path d="M228 6643 c6 -2 18 -2 25 0 6 3 1 5 -13 5 -14 0 -19 -2 -12 -5z"/>
<path d="M1678 6463 c7 -3 16 -2 19 1 4 3 -2 6 -13 5 -11 0 -14 -3 -6 -6z"/>
<path d="M132 6440 c0 -14 2 -19 5 -12 2 6 2 18 0 25 -3 6 -5 1 -5 -13z"/>
<path d="M171 6438 c-1 -16 -8 -28 -18 -31 -17 -4 -17 -5 0 -6 20 -1 31 19 24
46 -3 12 -5 9 -6 -9z"/>
<path d="M200 6451 c0 -5 9 -7 20 -4 11 3 20 7 20 9 0 2 -9 4 -20 4 -11 0 -20
-4 -20 -9z"/>
<path d="M296 6451 c-4 -5 3 -7 14 -4 23 6 26 13 6 13 -8 0 -17 -4 -20 -9z"/>
<path d="M348 6453 c7 -3 16 -2 19 1 4 3 -2 6 -13 5 -11 0 -14 -3 -6 -6z"/>
<path d="M406 6451 c-4 -5 3 -7 14 -4 23 6 26 13 6 13 -8 0 -17 -4 -20 -9z"/>
<path d="M498 6453 c7 -3 16 -2 19 1 4 3 -2 6 -13 5 -11 0 -14 -3 -6 -6z"/>
<path d="M560 6456 c0 -2 7 -7 16 -10 8 -3 12 -2 9 4 -6 10 -25 14 -25 6z"/>
<path d="M358 6433 c7 -3 16 -2 19 1 4 3 -2 6 -13 5 -11 0 -14 -3 -6 -6z"/>
<path d="M208 6408 c5 -5 16 -8 23 -6 8 3 3 7 -10 11 -17 4 -21 3 -13 -5z"/>
<path d="M298 6408 c5 -5 16 -8 23 -6 8 3 3 7 -10 11 -17 4 -21 3 -13 -5z"/>
<path d="M355 6410 c-16 -7 -17 -9 -3 -9 9 -1 20 4 23 9 7 11 7 11 -20 0z"/>
<path d="M408 6408 c5 -5 16 -8 23 -6 8 3 3 7 -10 11 -17 4 -21 3 -13 -5z"/>
<path d="M498 6403 c7 -3 16 -2 19 1 4 3 -2 6 -13 5 -11 0 -14 -3 -6 -6z"/>
<path d="M10240 6321 c0 -5 -9 -11 -21 -14 -32 -9 -22 -51 14 -55 26 -3 27 -1
27 37 0 23 -4 41 -10 41 -5 0 -10 -4 -10 -9z m0 -41 c0 -11 -4 -20 -10 -20 -5
0 -10 9 -10 20 0 11 5 20 10 20 6 0 10 -9 10 -20z"/>
<path d="M10826 6299 c-13 -26 -13 -29 -1 -19 8 7 15 18 15 25 0 8 8 16 18 18
15 4 15 5 0 6 -9 0 -23 -13 -32 -30z"/>
<path d="M10870 6310 c-12 -7 -12 -10 -1 -10 8 0 11 -6 6 -17 -5 -14 -3 -15 5
-7 18 18 9 46 -10 34z"/>
<path d="M11618 6313 c6 -2 18 -2 25 0 6 3 1 5 -13 5 -14 0 -19 -2 -12 -5z"/>
<path d="M11661 6283 c1 -21 3 -30 6 -20 2 9 10 17 16 17 7 0 6 4 -3 10 -13 9
-13 11 0 20 13 8 12 10 -2 10 -14 0 -18 -8 -17 -37z"/>
<path d="M11725 6285 c0 -19 5 -35 10 -35 6 0 10 16 10 35 0 19 -4 35 -10 35
-5 0 -10 -16 -10 -35z"/>
<path d="M10170 6280 c0 -16 5 -30 10 -30 6 0 10 14 10 30 0 17 -4 30 -10 30
-5 0 -10 -13 -10 -30z"/>
<path d="M10316 6294 c-8 -20 10 -44 32 -44 13 0 12 3 -4 15 -18 14 -18 14 4
15 29 0 24 24 -5 28 -12 2 -23 -4 -27 -14z"/>
<path d="M10381 6276 c1 -27 2 -28 7 -8 4 13 12 23 17 23 6 0 13 -10 17 -23 6
-23 6 -23 7 -1 1 31 21 39 21 9 0 -14 5 -26 11 -26 6 0 9 12 7 28 -3 24 -7 27
-45 28 -42 1 -43 0 -42 -30z"/>
<path d="M10480 6266 c0 -25 5 -46 10 -46 6 0 10 6 10 14 0 7 9 16 21 19 32 9
22 51 -13 55 -27 3 -28 2 -28 -42z m40 14 c0 -11 -4 -20 -10 -20 -5 0 -10 9
-10 20 0 11 5 20 10 20 6 0 10 -9 10 -20z"/>
<path d="M10550 6278 c0 -15 5 -28 10 -28 6 0 10 9 10 20 0 11 5 20 10 20 6 0
10 4 10 9 0 6 -9 9 -20 8 -15 -1 -20 -8 -20 -29z"/>
<path d="M10604 6296 c-10 -25 3 -46 28 -45 23 0 23 0 -2 11 l-25 11 23 5 c13
2 21 9 19 15 -6 19 -36 20 -43 3z"/>
<path d="M10664 6299 c-4 -7 1 -16 12 -22 17 -10 17 -11 -1 -18 -19 -7 -18 -8
3 -8 23 -1 31 22 11 35 -8 4 -7 9 2 15 11 7 10 9 -3 9 -9 0 -20 -5 -24 -11z"/>
<path d="M10734 6302 c19 -8 19 -9 -3 -15 -31 -8 -22 -31 13 -35 25 -3 27 -1
24 25 -2 22 -9 29 -28 30 -21 2 -22 1 -6 -5z m16 -32 c0 -5 -4 -10 -10 -10 -5
0 -10 5 -10 10 0 6 5 10 10 10 6 0 10 -4 10 -10z"/>
<path d="M11567 6289 c7 -7 15 -10 18 -7 3 3 -2 9 -12 12 -14 6 -15 5 -6 -5z"/>
<path d="M11618 6283 c7 -3 16 -2 19 1 4 3 -2 6 -13 5 -11 0 -14 -3 -6 -6z"/>
<path d="M11778 6273 c7 -3 16 -2 19 1 4 3 -2 6 -13 5 -11 0 -14 -3 -6 -6z"/>
<path d="M11568 6253 c7 -3 16 -2 19 1 4 3 -2 6 -13 5 -11 0 -14 -3 -6 -6z"/>
<path d="M11618 6253 c6 -2 18 -2 25 0 6 3 1 5 -13 5 -14 0 -19 -2 -12 -5z"/>
<path d="M11838 6253 c7 -3 16 -2 19 1 4 3 -2 6 -13 5 -11 0 -14 -3 -6 -6z"/>
<path d="M10273 6233 c9 -2 23 -2 30 0 6 3 -1 5 -18 5 -16 0 -22 -2 -12 -5z"/>
<path d="M3610 6100 l0 -130 960 0 960 0 0 130 0 130 -960 0 -960 0 0 -130z
m410 61 c0 -5 -8 -12 -17 -14 -21 -6 67 -10 117 -6 19 1 44 2 55 2 11 -1 47
-2 81 -3 60 -2 61 -2 62 -31 l1 -29 -95 0 c-90 0 -94 1 -95 23 l-2 22 -4 -22
c-4 -23 -5 -23 -218 -22 -176 0 -214 3 -219 15 -12 31 4 43 60 43 29 0 58 2
63 5 5 3 23 3 40 0 22 -5 31 -12 32 -28 2 -21 2 -21 6 1 3 17 11 21 35 21 16
-1 33 3 36 9 13 19 62 30 62 14z"/>
<path d="M3795 6120 c-3 -5 -1 -10 4 -10 6 0 11 5 11 10 0 6 -2 10 -4 10 -3 0
-8 -4 -11 -10z"/>
<path d="M3842 6110 c0 -14 2 -19 5 -12 2 6 2 18 0 25 -3 6 -5 1 -5 -13z"/>
<path d="M4192 6110 c0 -14 2 -19 5 -12 2 6 2 18 0 25 -3 6 -5 1 -5 -13z"/>
<path d="M3713 6103 c10 -9 66 -10 60 0 -2 4 -18 7 -35 7 -17 0 -28 -3 -25 -7z"/>
<path d="M4230 6106 c0 -2 13 -6 29 -8 17 -2 28 -1 25 4 -5 8 -54 12 -54 4z"/>
<path d="M40 5995 l0 -125 930 0 930 0 0 125 0 125 -930 0 -930 0 0 -125z
m250 55 c0 -5 -7 -10 -15 -10 -8 0 -15 5 -15 10 0 6 7 10 15 10 8 0 15 -4 15
-10z m260 0 c0 -5 -7 -10 -15 -10 -8 0 -15 5 -15 10 0 6 7 10 15 10 8 0 15 -4
15 -10z m72 -10 c4 -14 91 -16 96 -2 5 16 32 15 32 -1 0 -8 17 -11 58 -9 59 2
59 2 60 -27 l1 -30 -205 0 c-135 0 -204 4 -204 11 0 5 8 7 18 4 14 -5 13 -3
-3 10 -19 14 -20 14 -23 -5 -3 -17 -11 -21 -46 -21 -23 0 -47 5 -54 12 -9 9
-12 9 -12 0 0 -19 -40 -14 -41 6 -1 16 -2 16 -6 0 -3 -12 -14 -18 -34 -18 -23
0 -29 5 -30 23 l-2 22 -4 -23 c-4 -21 -9 -23 -51 -20 -43 3 -47 5 -50 31 -2
19 1 27 12 27 10 0 17 -9 17 -22 l2 -23 4 22 c4 22 6 22 216 21 144 0 213 4
215 11 5 14 29 14 34 1z"/>
<path d="M385 5990 c3 -5 12 -7 20 -3 21 7 19 13 -6 13 -11 0 -18 -4 -14 -10z"/>
<path d="M780 5996 c0 -2 13 -6 29 -8 17 -2 28 -1 25 4 -5 8 -54 12 -54 4z"/>
<path d="M11118 6053 c7 -3 16 -2 19 1 4 3 -2 6 -13 5 -11 0 -14 -3 -6 -6z"/>
<path d="M11498 6053 c7 -3 16 -2 19 1 4 3 -2 6 -13 5 -11 0 -14 -3 -6 -6z"/>
<path d="M11751 6037 c-1 -20 -5 -26 -13 -21 -8 5 -7 0 2 -11 14 -18 15 -18
18 3 2 12 1 30 -1 40 -3 10 -5 6 -6 -11z"/>
<path d="M10190 6046 c0 -2 7 -7 16 -10 8 -3 12 -2 9 4 -6 10 -25 14 -25 6z"/>
<path d="M10246 6041 c-4 -5 3 -7 14 -4 23 6 26 13 6 13 -8 0 -17 -4 -20 -9z"/>
<path d="M10331 6040 c10 -7 49 -2 49 5 0 2 -14 3 -31 3 -17 -1 -25 -4 -18 -8z"/>
<path d="M10410 6046 c0 -2 9 -6 20 -9 11 -3 18 -1 14 4 -5 9 -34 13 -34 5z"/>
<path d="M10475 6040 c-3 -6 1 -7 9 -4 18 7 21 14 7 14 -6 0 -13 -4 -16 -10z"/>
<path d="M10517 6044 c-14 -14 -6 -24 19 -24 16 0 24 5 22 13 -5 14 -31 21
-41 11z m30 -10 c-3 -3 -12 -4 -19 -1 -8 3 -5 6 6 6 11 1 17 -2 13 -5z"/>
<path d="M11811 6013 c7 -12 15 -20 18 -17 3 2 -3 12 -13 22 -17 16 -18 16 -5
-5z"/>
<path d="M10248 5998 c5 -5 16 -8 23 -6 8 3 3 7 -10 11 -17 4 -21 3 -13 -5z"/>
<path d="M10430 6000 c-9 -6 -10 -10 -3 -10 6 0 15 5 18 10 8 12 4 12 -15 0z"/>
<path d="M10518 5998 c5 -5 16 -8 23 -6 8 3 3 7 -10 11 -17 4 -21 3 -13 -5z"/>
<path d="M3695 5890 c-3 -5 -1 -10 4 -10 6 0 11 5 11 10 0 6 -2 10 -4 10 -3 0
-8 -4 -11 -10z"/>
<path d="M3760 5880 c0 -5 -6 -10 -14 -10 -8 0 -16 -7 -20 -15 -9 -25 4 -45
30 -43 21 2 24 7 24 40 0 21 -4 38 -10 38 -5 0 -10 -4 -10 -10z m0 -40 c0 -11
-4 -20 -10 -20 -5 0 -10 9 -10 20 0 11 5 20 10 20 6 0 10 -9 10 -20z"/>
<path d="M4110 5881 c0 -5 -9 -11 -21 -14 -29 -8 -23 -52 9 -53 19 -1 22 4 22
37 0 22 -2 39 -5 39 -3 0 -5 -4 -5 -9z m-5 -51 c-5 -8 -11 -8 -17 -2 -6 6 -7
16 -3 22 5 8 11 8 17 2 6 -6 7 -16 3 -22z"/>
<path d="M4455 5855 c-23 -44 -15 -52 29 -31 42 20 50 31 38 52 -6 11 -11 13
-16 5 -4 -6 -2 -11 3 -11 22 0 10 -19 -21 -34 -39 -20 -45 -15 -22 18 9 15 15
29 12 31 -2 2 -12 -11 -23 -30z"/>
<path d="M3958 5874 c-10 -10 5 -64 18 -64 12 0 12 4 2 20 -11 17 -10 22 0 29
11 7 11 9 -1 14 -8 3 -17 4 -19 1z"/>
<path d="M4308 5874 c-10 -10 5 -64 18 -64 12 0 12 4 2 20 -11 17 -10 22 0 29
11 7 11 9 -1 14 -8 3 -17 4 -19 1z"/>
<path d="M5144 5868 c-4 -6 0 -16 9 -23 22 -16 21 -22 0 -28 -16 -4 -16 -5 -1
-6 26 -2 33 20 12 36 -16 12 -17 15 -4 23 9 6 10 10 3 10 -6 0 -15 -5 -19 -12z"/>
<path d="M5190 5845 c0 -30 3 -35 23 -34 16 1 18 2 5 6 -21 5 -23 19 -5 26 10
4 10 6 0 6 -19 1 -16 19 5 24 13 4 11 5 -5 6 -20 1 -23 -4 -23 -34z"/>
<path d="M5241 5843 c1 -21 3 -30 6 -20 2 9 10 17 16 17 7 0 6 4 -3 10 -13 9
-13 11 0 20 13 8 12 10 -2 10 -14 0 -18 -8 -17 -37z"/>
<path d="M5308 5873 c7 -3 16 -2 19 1 4 3 -2 6 -13 5 -11 0 -14 -3 -6 -6z"/>
<path d="M3690 5840 c0 -16 5 -30 10 -30 6 0 10 14 10 30 0 17 -4 30 -10 30
-5 0 -10 -13 -10 -30z"/>
<path d="M3844 5856 c-10 -25 3 -46 28 -45 23 0 23 0 -2 11 l-25 11 23 5 c13
2 21 9 19 15 -6 19 -36 20 -43 3z"/>
<path d="M3900 5856 c0 -8 8 -17 18 -21 16 -7 15 -8 -3 -15 -19 -8 -19 -9 3
-9 26 -1 30 26 5 36 -15 6 -15 7 3 14 17 7 17 8 -3 8 -13 1 -23 -5 -23 -13z"/>
<path d="M4002 5843 c2 -22 9 -29 31 -31 24 -3 27 0 27 27 0 17 -4 31 -10 31
-5 0 -10 -11 -10 -25 0 -14 -4 -25 -10 -25 -5 0 -10 11 -10 25 0 14 -5 25 -11
25 -6 0 -9 -12 -7 -27z"/>
<path d="M4142 5840 c0 -19 2 -27 5 -17 2 9 2 25 0 35 -3 9 -5 1 -5 -18z"/>
<path d="M4190 5861 c25 -7 25 -7 3 -13 -33 -9 -30 -38 2 -36 21 2 25 7 23 28
-2 19 -9 26 -28 27 l-25 2 25 -8z m15 -31 c-3 -5 -11 -10 -16 -10 -6 0 -7 5
-4 10 3 6 11 10 16 10 6 0 7 -4 4 -10z"/>
<path d="M4241 5835 c1 -27 2 -27 7 -7 4 13 12 23 17 23 6 0 13 -10 17 -23 5
-20 6 -18 7 9 1 29 -2 33 -24 31 -21 -2 -25 -7 -24 -33z"/>
<path d="M4354 5855 c-10 -24 4 -45 28 -44 17 1 18 2 6 6 -22 5 -24 23 -3 23
8 0 15 7 15 15 0 8 -9 15 -20 15 -11 0 -23 -7 -26 -15z"/>
<path d="M5356 5832 c-2 -4 4 -8 14 -8 10 0 16 4 14 8 -3 4 -9 8 -14 8 -5 0
-11 -4 -14 -8z"/>
<path d="M5308 5813 c7 -3 16 -2 19 1 4 3 -2 6 -13 5 -11 0 -14 -3 -6 -6z"/>
<path d="M5418 5813 c7 -3 16 -2 19 1 4 3 -2 6 -13 5 -11 0 -14 -3 -6 -6z"/>
<path d="M3798 5793 c6 -2 18 -2 25 0 6 3 1 5 -13 5 -14 0 -19 -2 -12 -5z"/>
<path d="M200 5780 c0 -5 -9 -10 -20 -10 -16 0 -20 -7 -20 -30 0 -26 3 -29 25
-28 22 2 25 7 25 40 0 21 -2 38 -5 38 -3 0 -5 -4 -5 -10z m-5 -50 c-5 -8 -11
-8 -17 -2 -6 6 -7 16 -3 22 5 8 11 8 17 2 6 -6 7 -16 3 -22z"/>
<path d="M740 5781 c0 -5 -9 -11 -21 -14 -29 -8 -23 -52 9 -53 19 -1 22 4 22
37 0 22 -2 39 -5 39 -3 0 -5 -4 -5 -9z m-5 -51 c-5 -8 -11 -8 -17 -2 -6 6 -7
16 -3 22 5 8 11 8 17 2 6 -6 7 -16 3 -22z"/>
<path d="M870 5781 c0 -5 -9 -11 -21 -14 -32 -9 -22 -51 14 -55 26 -3 27 -1
27 37 0 23 -4 41 -10 41 -5 0 -10 -4 -10 -9z m0 -41 c0 -11 -4 -20 -10 -20 -5
0 -10 9 -10 20 0 11 5 20 10 20 6 0 10 -9 10 -20z"/>
<path d="M959 5773 c-11 -15 -11 -16 1 -5 16 14 34 16 26 4 -3 -5 1 -9 9 -9
11 0 12 4 4 14 -15 17 -24 16 -40 -4z"/>
<path d="M11348 5783 c7 -3 16 -2 19 1 4 3 -2 6 -13 5 -11 0 -14 -3 -6 -6z"/>
<path d="M11728 5783 c7 -3 16 -2 19 1 4 3 -2 6 -13 5 -11 0 -14 -3 -6 -6z"/>
<path d="M1514 5768 c-4 -6 0 -16 9 -23 22 -16 21 -22 0 -28 -16 -4 -16 -5 -1
-6 26 -2 33 20 12 36 -16 12 -17 15 -4 23 9 6 10 10 3 10 -6 0 -15 -5 -19 -12z"/>
<path d="M1560 5745 c0 -30 3 -35 23 -34 16 1 18 2 5 6 -10 2 -18 8 -18 13 0
5 8 11 18 13 16 4 16 5 0 6 -10 0 -18 5 -18 10 0 5 8 12 18 14 13 4 11 5 -5 6
-20 1 -23 -4 -23 -34z"/>
<path d="M1628 5773 c7 -3 16 -2 19 1 4 3 -2 6 -13 5 -11 0 -14 -3 -6 -6z"/>
<path d="M1688 5773 c7 -3 16 -2 19 1 4 3 -2 6 -13 5 -11 0 -14 -3 -6 -6z"/>
<path d="M10172 5760 c0 -14 2 -19 5 -12 2 6 2 18 0 25 -3 6 -5 1 -5 -13z"/>
<path d="M10210 5756 c0 -15 -7 -26 -17 -29 -14 -4 -12 -5 5 -6 18 -1 22 4 22
29 0 17 -2 30 -5 30 -3 0 -5 -11 -5 -24z"/>
<path d="M10240 5772 c0 -6 9 -8 20 -5 16 4 20 0 20 -17 0 -18 -4 -21 -21 -17
-16 4 -19 3 -11 -5 17 -17 44 -1 40 24 -2 15 -11 24 -25 26 -13 2 -23 -1 -23
-6z"/>
<path d="M10336 5771 c-4 -5 3 -7 14 -4 23 6 26 13 6 13 -8 0 -17 -4 -20 -9z"/>
<path d="M10398 5773 c7 -3 16 -2 19 1 4 3 -2 6 -13 5 -11 0 -14 -3 -6 -6z"/>
<path d="M10446 5771 c-4 -5 3 -7 14 -4 23 6 26 13 6 13 -8 0 -17 -4 -20 -9z"/>
<path d="M10526 5771 c-4 -5 3 -7 14 -4 23 6 26 13 6 13 -8 0 -17 -4 -20 -9z"/>
<path d="M10608 5773 c7 -3 16 -2 19 1 4 3 -2 6 -13 5 -11 0 -14 -3 -6 -6z"/>
<path d="M132 5740 c0 -19 2 -27 5 -17 2 9 2 25 0 35 -3 9 -5 1 -5 -18z"/>
<path d="M272 5743 c2 -22 9 -29 31 -31 24 -3 27 0 27 27 0 17 -4 31 -10 31
-5 0 -10 -11 -10 -25 0 -14 -4 -25 -10 -25 -5 0 -10 11 -10 25 0 14 -5 25 -11
25 -6 0 -9 -12 -7 -27z"/>
<path d="M340 5739 c0 -16 5 -29 10 -29 6 0 10 11 10 25 0 14 5 25 10 25 6 0
10 -11 10 -25 0 -14 5 -25 11 -25 6 0 9 12 7 28 -2 22 -8 27 -30 28 -24 1 -28
-3 -28 -27z"/>
<path d="M410 5740 c0 -16 5 -30 10 -30 6 0 10 14 10 30 0 17 -4 30 -10 30 -5
0 -10 -13 -10 -30z"/>
<path d="M440 5766 c0 -14 21 -56 28 -56 4 0 13 14 19 30 13 35 1 41 -15 8 -8
-18 -11 -19 -11 -6 -1 14 -21 38 -21 24z"/>
<path d="M504 5755 c-10 -24 4 -45 28 -44 17 1 18 2 6 6 -22 5 -24 23 -3 23 8
0 15 7 15 15 0 8 -9 15 -20 15 -11 0 -23 -7 -26 -15z"/>
<path d="M571 5735 c1 -23 3 -25 6 -7 5 25 34 30 52 8 10 -11 8 -15 -6 -19
-15 -4 -14 -5 4 -6 29 -1 40 19 17 32 -17 10 -17 11 1 18 13 5 3 7 -27 6 -47
-2 -48 -3 -47 -32z"/>
<path d="M672 5740 c0 -19 2 -27 5 -17 2 9 2 25 0 35 -3 9 -5 1 -5 -18z"/>
<path d="M790 5761 c25 -7 25 -7 3 -13 -33 -9 -30 -38 2 -36 21 2 25 7 23 28
-2 19 -9 26 -28 27 l-25 2 25 -8z m15 -31 c-3 -5 -11 -10 -16 -10 -6 0 -7 5
-4 10 3 6 11 10 16 10 6 0 7 -4 4 -10z"/>
<path d="M10385 5750 c-8 -13 3 -30 18 -29 9 0 9 2 0 6 -18 7 -16 21 5 26 15
4 15 5 0 6 -9 0 -20 -3 -23 -9z"/>
<path d="M985 5737 c-53 -32 -59 -37 -45 -37 8 0 29 11 45 25 32 26 32 31 0
12z"/>
<path d="M1620 5746 c0 -2 7 -6 15 -10 8 -3 15 -1 15 4 0 6 -7 10 -15 10 -8 0
-15 -2 -15 -4z"/>
<path d="M1738 5733 c7 -3 16 -2 19 1 4 3 -2 6 -13 5 -11 0 -14 -3 -6 -6z"/>
<path d="M10338 5728 c5 -5 16 -8 23 -6 8 3 3 7 -10 11 -17 4 -21 3 -13 -5z"/>
<path d="M10448 5728 c5 -5 16 -8 23 -6 8 3 3 7 -10 11 -17 4 -21 3 -13 -5z"/>
<path d="M10528 5728 c5 -5 16 -8 23 -6 8 3 3 7 -10 11 -17 4 -21 3 -13 -5z"/>
<path d="M1688 5713 c7 -3 16 -2 19 1 4 3 -2 6 -13 5 -11 0 -14 -3 -6 -6z"/>
<path d="M1788 5713 c7 -3 16 -2 19 1 4 3 -2 6 -13 5 -11 0 -14 -3 -6 -6z"/>
<path d="M228 5693 c6 -2 18 -2 25 0 6 3 1 5 -13 5 -14 0 -19 -2 -12 -5z"/>
<path d="M5331 5602 c-1 -14 -5 -21 -12 -16 -6 4 -5 -3 2 -17 l14 -24 3 23 c2
12 1 30 -1 40 -3 12 -5 11 -6 -6z"/>
<path d="M5361 5583 c2 -33 3 -34 6 -9 l5 29 23 -29 24 -29 -1 40 c0 36 -1 37
-7 11 l-6 -29 -14 26 c-20 38 -31 33 -30 -10z"/>
<path d="M3705 5600 c-3 -6 1 -7 9 -4 18 7 21 14 7 14 -6 0 -13 -4 -16 -10z"/>
<path d="M3742 5590 c0 -14 2 -19 5 -12 2 6 2 18 0 25 -3 6 -5 1 -5 -13z"/>
<path d="M3781 5588 c-1 -16 -8 -28 -18 -31 -17 -4 -17 -5 0 -6 20 -1 31 19
24 46 -3 12 -5 9 -6 -9z"/>
<path d="M3808 5603 c7 -3 16 -2 19 1 4 3 -2 6 -13 5 -11 0 -14 -3 -6 -6z"/>
<path d="M10363 5528 c-5 -7 -6 -26 -2 -43 l7 -30 1 28 c0 15 1 30 0 33 0 4 5
11 13 15 8 5 9 9 2 9 -6 0 -16 -6 -21 -12z"/>
<path d="M11348 5523 c7 -3 16 -2 19 1 4 3 -2 6 -13 5 -11 0 -14 -3 -6 -6z"/>
<path d="M11728 5523 c7 -3 16 -2 19 1 4 3 -2 6 -13 5 -11 0 -14 -3 -6 -6z"/>
<path d="M1660 5511 c0 -5 7 -15 17 -22 15 -13 15 -12 4 9 -12 23 -21 28 -21
13z"/>
<path d="M1732 5485 c0 -36 1 -37 7 -11 l6 29 14 -26 c20 -38 31 -33 30 11 -2
32 -3 33 -6 8 l-5 -29 -23 29 -24 29 1 -40z"/>
<path d="M10178 5513 c7 -3 16 -2 19 1 4 3 -2 6 -13 5 -11 0 -14 -3 -6 -6z"/>
<path d="M10217 5514 c-14 -14 -6 -24 19 -24 16 0 24 5 22 13 -5 14 -31 21
-41 11z m30 -10 c-3 -3 -12 -4 -19 -1 -8 3 -5 6 6 6 11 1 17 -2 13 -5z"/>
<path d="M10408 5513 c7 -3 16 -2 19 1 4 3 -2 6 -13 5 -11 0 -14 -3 -6 -6z"/>
<path d="M10467 5513 c-3 -5 5 -8 18 -8 13 0 21 3 18 8 -2 4 -10 7 -18 7 -8 0
-16 -3 -18 -7z"/>
<path d="M10538 5513 c7 -3 16 -2 19 1 4 3 -2 6 -13 5 -11 0 -14 -3 -6 -6z"/>
<path d="M1288 5503 c7 -3 16 -2 19 1 4 3 -2 6 -13 5 -11 0 -14 -3 -6 -6z"/>
<path d="M1508 5503 c7 -3 16 -2 19 1 4 3 -2 6 -13 5 -11 0 -14 -3 -6 -6z"/>
<path d="M136 5491 c-4 -5 3 -7 14 -4 23 6 26 13 6 13 -8 0 -17 -4 -20 -9z"/>
<path d="M196 5491 c-4 -5 3 -7 14 -4 23 6 26 13 6 13 -8 0 -17 -4 -20 -9z"/>
<path d="M266 5491 c-4 -5 3 -7 14 -4 23 6 26 13 6 13 -8 0 -17 -4 -20 -9z"/>
<path d="M360 5491 c0 -5 9 -7 20 -4 11 3 20 7 20 9 0 2 -9 4 -20 4 -11 0 -20
-4 -20 -9z"/>
<path d="M485 5491 c19 -8 18 -9 -5 -13 -24 -5 -24 -5 3 -7 32 -1 33 22 1 26
-18 3 -18 2 1 -6z"/>
<path d="M10308 5493 c6 -2 18 -2 25 0 6 3 1 5 -13 5 -14 0 -19 -2 -12 -5z"/>
<path d="M332 5460 c0 -14 2 -19 5 -12 2 6 2 18 0 25 -3 6 -5 1 -5 -13z"/>
<path d="M10218 5468 c5 -5 16 -8 23 -6 8 3 3 7 -10 11 -17 4 -21 3 -13 -5z"/>
<path d="M10308 5468 c5 -5 16 -8 23 -6 8 3 3 7 -10 11 -17 4 -21 3 -13 -5z"/>
<path d="M10408 5463 c7 -3 16 -2 19 1 4 3 -2 6 -13 5 -11 0 -14 -3 -6 -6z"/>
<path d="M10538 5463 c7 -3 16 -2 19 1 4 3 -2 6 -13 5 -11 0 -14 -3 -6 -6z"/>
<path d="M198 5448 c5 -5 16 -8 23 -6 8 3 3 7 -10 11 -17 4 -21 3 -13 -5z"/>
<path d="M368 5448 c5 -5 16 -8 23 -6 8 3 3 7 -10 11 -17 4 -21 3 -13 -5z"/>
<path d="M478 5443 c6 -2 18 -2 25 0 6 3 1 5 -13 5 -14 0 -19 -2 -12 -5z"/>
<path d="M4000 5360 c0 -5 -6 -10 -14 -10 -8 0 -17 -4 -20 -9 -4 -5 3 -7 14
-4 16 4 20 0 20 -17 0 -17 -4 -21 -20 -17 -11 3 -18 1 -14 -4 3 -5 14 -9 25
-9 16 0 19 7 19 40 0 22 -2 40 -5 40 -3 0 -5 -4 -5 -10z"/>
<path d="M5290 5353 c0 -6 8 -17 18 -24 16 -13 16 -13 2 6 -8 11 -16 22 -17
24 -2 2 -3 0 -3 -6z"/>
<path d="M5361 5323 c2 -31 3 -33 6 -10 3 18 9 25 16 20 7 -4 6 0 -2 10 -19
24 -21 22 -20 -20z"/>
<path d="M3708 5343 c7 -3 16 -2 19 1 4 3 -2 6 -13 5 -11 0 -14 -3 -6 -6z"/>
<path d="M3827 5343 c-14 -13 -7 -23 16 -22 21 0 21 1 2 8 l-20 8 20 5 c13 4
15 6 4 7 -9 0 -19 -2 -22 -6z"/>
<path d="M4048 5343 c7 -3 16 -2 19 1 4 3 -2 6 -13 5 -11 0 -14 -3 -6 -6z"/>
<path d="M4097 5343 c-9 -8 12 -33 27 -33 6 0 2 6 -9 12 -19 11 -19 11 0 19
15 6 16 8 4 8 -9 1 -19 -2 -22 -6z"/>
<path d="M3695 5320 c-8 -13 3 -30 18 -29 9 0 9 2 0 6 -18 7 -16 21 5 26 15 4
15 5 0 6 -9 0 -20 -3 -23 -9z"/>
<path d="M3828 5298 c5 -5 16 -8 23 -6 8 3 3 7 -10 11 -17 4 -21 3 -13 -5z"/>
<path d="M4048 5293 c7 -3 16 -2 19 1 4 3 -2 6 -13 5 -11 0 -14 -3 -6 -6z"/>
<path d="M4098 5293 c7 -3 16 -2 19 1 4 3 -2 6 -13 5 -11 0 -14 -3 -6 -6z"/>
<path d="M11348 5263 c7 -3 16 -2 19 1 4 3 -2 6 -13 5 -11 0 -14 -3 -6 -6z"/>
<path d="M11728 5263 c7 -3 16 -2 19 1 4 3 -2 6 -13 5 -11 0 -14 -3 -6 -6z"/>
<path d="M10176 5251 c-4 -5 3 -7 14 -4 23 6 26 13 6 13 -8 0 -17 -4 -20 -9z"/>
<path d="M10238 5253 c7 -3 16 -2 19 1 4 3 -2 6 -13 5 -11 0 -14 -3 -6 -6z"/>
<path d="M10458 5253 c7 -3 16 -2 19 1 4 3 -2 6 -13 5 -11 0 -14 -3 -6 -6z"/>
<path d="M10388 5233 c6 -2 18 -2 25 0 6 3 1 5 -13 5 -14 0 -19 -2 -12 -5z"/>
<path d="M10178 5208 c5 -5 16 -8 23 -6 8 3 3 7 -10 11 -17 4 -21 3 -13 -5z"/>
<path d="M10388 5208 c5 -5 16 -8 23 -6 8 3 3 7 -10 11 -17 4 -21 3 -13 -5z"/>
<path d="M10238 5203 c7 -3 16 -2 19 1 4 3 -2 6 -13 5 -11 0 -14 -3 -6 -6z"/>
<path d="M10458 5203 c7 -3 16 -2 19 1 4 3 -2 6 -13 5 -11 0 -14 -3 -6 -6z"/>
<path d="M357 5173 c-4 -3 -7 -62 -7 -130 l0 -123 930 0 931 0 -3 128 -3 127
-921 3 c-506 1 -924 -1 -927 -5z m513 -108 c-8 -10 -7 -14 2 -18 10 -3 10 -8
2 -16 -7 -7 -33 -11 -65 -9 -44 2 -54 6 -53 21 1 9 -2 17 -7 17 -5 0 -9 -9 -9
-20 0 -17 -7 -20 -45 -20 -38 0 -47 4 -55 23 l-9 22 0 -22 c-1 -29 -31 -31
-31 -3 0 11 -4 20 -10 20 -5 0 -10 -9 -10 -20 0 -18 -7 -20 -70 -20 -73 0 -90
10 -77 45 5 12 42 14 227 14 182 0 219 -3 210 -14z"/>
<path d="M473 5063 c-7 -3 -13 -12 -13 -21 0 -15 2 -15 17 1 18 18 16 27 -4
20z"/>
<path d="M675 5040 c3 -5 12 -7 20 -3 21 7 19 13 -6 13 -11 0 -18 -4 -14 -10z"/>
<path d="M820 5046 c0 -2 7 -7 16 -10 8 -3 12 -2 9 4 -6 10 -25 14 -25 6z"/>
<path d="M5330 5073 c0 -26 -1 -26 -16 -7 -15 18 -15 18 -4 -3 17 -37 30 -37
30 1 0 20 -2 36 -5 36 -3 0 -5 -12 -5 -27z"/>
<path d="M5361 5063 c2 -32 3 -33 6 -10 4 27 5 28 19 10 14 -17 14 -17 4 4
-18 38 -30 37 -29 -4z"/>
<path d="M5408 5065 c-2 -19 0 -35 4 -35 4 0 8 16 8 35 0 19 -2 35 -4 35 -2 0
-6 -16 -8 -35z"/>
<path d="M3718 5073 c7 -3 16 -2 19 1 4 3 -2 6 -13 5 -11 0 -14 -3 -6 -6z"/>
<path d="M3766 5071 c-4 -5 3 -7 14 -4 23 6 26 13 6 13 -8 0 -17 -4 -20 -9z"/>
<path d="M3840 5076 c0 -2 7 -7 16 -10 8 -3 12 -2 9 4 -6 10 -25 14 -25 6z"/>
<path d="M4055 5071 c19 -8 18 -9 -5 -13 -24 -5 -24 -5 3 -7 32 -1 33 22 1 26
-18 3 -18 2 1 -6z"/>
<path d="M4095 5071 c-3 -5 0 -13 6 -17 7 -4 9 -3 5 4 -3 6 2 13 11 15 16 4
16 5 1 6 -9 0 -19 -3 -23 -8z"/>
<path d="M3902 5040 c0 -14 2 -19 5 -12 2 6 2 18 0 25 -3 6 -5 1 -5 -13z"/>
<path d="M3768 5028 c5 -5 16 -8 23 -6 8 3 3 7 -10 11 -17 4 -21 3 -13 -5z"/>
<path d="M4048 5023 c6 -2 18 -2 25 0 6 3 1 5 -13 5 -14 0 -19 -2 -12 -5z"/>
<path d="M4098 5023 c7 -3 16 -2 19 1 4 3 -2 6 -13 5 -11 0 -14 -3 -6 -6z"/>
<path d="M510 4830 c0 -5 -9 -10 -20 -10 -16 0 -20 -7 -20 -30 0 -26 3 -29 25
-28 22 2 25 7 25 40 0 21 -2 38 -5 38 -3 0 -5 -4 -5 -10z m-5 -50 c-5 -8 -11
-8 -17 -2 -6 6 -7 16 -3 22 5 8 11 8 17 2 6 -6 7 -16 3 -22z"/>
<path d="M1054 4833 c15 -4 16 -7 5 -14 -11 -7 -10 -9 4 -9 24 0 16 24 -9 27
-18 2 -18 2 0 -4z"/>
<path d="M3760 4830 c0 -5 -6 -10 -14 -10 -8 0 -17 -4 -20 -9 -4 -5 3 -7 14
-4 16 4 20 0 20 -17 0 -17 -4 -21 -20 -17 -11 3 -18 1 -14 -4 3 -5 14 -9 25
-9 16 0 19 7 19 40 0 22 -2 40 -5 40 -3 0 -5 -4 -5 -10z"/>
<path d="M4260 4825 c-6 -8 -9 -23 -5 -35 5 -15 2 -20 -10 -20 -11 0 -15 5
-11 16 3 8 2 12 -4 9 -15 -9 -12 -25 6 -32 19 -7 64 34 64 59 0 22 -23 24 -40
3z m30 -9 c0 -8 -6 -16 -14 -19 -12 -5 -14 6 -7 31 3 9 21 -1 21 -12z"/>
<path d="M1824 4818 c-4 -6 0 -16 9 -23 22 -16 21 -22 0 -28 -16 -4 -16 -5 -1
-6 26 -2 33 20 12 36 -16 12 -17 15 -4 23 9 6 10 10 3 10 -6 0 -15 -5 -19 -12z"/>
<path d="M1870 4795 c0 -30 3 -35 23 -34 16 1 18 2 5 6 -21 5 -23 19 -5 26 10
4 10 6 0 6 -19 1 -16 19 5 24 13 4 11 5 -5 6 -20 1 -23 -4 -23 -34z"/>
<path d="M1938 4823 c7 -3 16 -2 19 1 4 3 -2 6 -13 5 -11 0 -14 -3 -6 -6z"/>
<path d="M1988 4823 c7 -3 16 -2 19 1 4 3 -2 6 -13 5 -11 0 -14 -3 -6 -6z"/>
<path d="M5331 4812 c-1 -14 -5 -21 -12 -16 -6 4 -5 -3 2 -17 l14 -24 3 23 c2
12 1 30 -1 40 -3 12 -5 11 -6 -6z"/>
<path d="M5361 4793 c2 -33 3 -34 6 -9 l5 29 23 -29 24 -29 -1 40 c0 36 -1 37
-7 11 l-6 -29 -14 26 c-20 38 -31 33 -30 -10z"/>
<path d="M442 4790 c0 -19 2 -27 5 -17 2 9 2 25 0 35 -3 9 -5 1 -5 -18z"/>
<path d="M584 4805 c-9 -22 3 -45 23 -45 15 0 15 2 -3 15 -19 15 -19 15 0 30
18 13 18 15 3 15 -10 0 -20 -7 -23 -15z"/>
<path d="M654 4811 c19 -7 19 -8 -3 -14 -28 -7 -23 -32 7 -33 18 -1 22 4 22
27 0 24 -4 29 -22 28 -21 0 -22 -1 -4 -8z m16 -25 c0 -3 -4 -8 -10 -11 -5 -3
-10 -1 -10 4 0 6 5 11 10 11 6 0 10 -2 10 -4z"/>
<path d="M701 4785 c1 -23 3 -25 6 -7 2 12 11 22 19 22 8 0 14 4 14 9 0 6 -9
9 -20 8 -16 -1 -20 -8 -19 -32z"/>
<path d="M751 4785 c1 -23 3 -25 6 -7 2 12 11 22 19 22 8 0 14 4 14 9 0 6 -9
9 -20 8 -16 -1 -20 -8 -19 -32z"/>
<path d="M796 4804 c-8 -20 10 -44 32 -44 13 0 12 3 -4 15 -18 14 -18 14 4 15
29 0 24 24 -5 28 -12 2 -23 -4 -27 -14z"/>
<path d="M861 4785 c1 -23 3 -25 6 -7 2 12 11 22 19 22 8 0 14 4 14 9 0 6 -9
9 -20 8 -16 -1 -20 -8 -19 -32z"/>
<path d="M925 4811 c17 -8 18 -10 3 -10 -11 -1 -18 -9 -18 -21 0 -15 6 -19 25
-18 21 2 25 7 23 28 -2 18 -9 26 -28 27 -23 2 -23 2 -5 -6z m15 -31 c0 -5 -4
-10 -10 -10 -5 0 -10 5 -10 10 0 6 5 10 10 10 6 0 10 -4 10 -10z"/>
<path d="M3848 4813 c7 -3 16 -2 19 1 4 3 -2 6 -13 5 -11 0 -14 -3 -6 -6z"/>
<path d="M3898 4813 c7 -3 16 -2 19 1 4 3 -2 6 -13 5 -11 0 -14 -3 -6 -6z"/>
<path d="M3955 4810 c-3 -6 1 -7 9 -4 18 7 21 14 7 14 -6 0 -13 -4 -16 -10z"/>
<path d="M4037 4814 c-14 -14 -6 -24 19 -24 16 0 24 5 22 13 -5 14 -31 21 -41
11z m30 -10 c-3 -3 -12 -4 -19 -1 -8 3 -5 6 6 6 11 1 17 -2 13 -5z"/>
<path d="M4148 4813 c7 -3 16 -2 19 1 4 3 -2 6 -13 5 -11 0 -14 -3 -6 -6z"/>
<path d="M1930 4796 c0 -2 7 -6 15 -10 8 -3 15 -1 15 4 0 6 -7 10 -15 10 -8 0
-15 -2 -15 -4z"/>
<path d="M3898 4793 c6 -2 18 -2 25 0 6 3 1 5 -13 5 -14 0 -19 -2 -12 -5z"/>
<path d="M4148 4793 c6 -2 18 -2 25 0 6 3 1 5 -13 5 -14 0 -19 -2 -12 -5z"/>
<path d="M2048 4783 c7 -3 16 -2 19 1 4 3 -2 6 -13 5 -11 0 -14 -3 -6 -6z"/>
<path d="M1016 4764 c-17 -12 -17 -14 -4 -14 9 0 20 5 23 11 11 17 2 18 -19 3z"/>
<path d="M3905 4770 c-16 -7 -17 -9 -3 -9 9 -1 20 4 23 9 7 11 7 11 -20 0z"/>
<path d="M4038 4768 c5 -5 16 -8 23 -6 8 3 3 7 -10 11 -17 4 -21 3 -13 -5z"/>
<path d="M4155 4770 c-16 -7 -17 -9 -3 -9 9 -1 20 4 23 9 7 11 7 11 -20 0z"/>
<path d="M1988 4763 c7 -3 16 -2 19 1 4 3 -2 6 -13 5 -11 0 -14 -3 -6 -6z"/>
<path d="M2098 4763 c7 -3 16 -2 19 1 4 3 -2 6 -13 5 -11 0 -14 -3 -6 -6z"/>
<path d="M3848 4763 c7 -3 16 -2 19 1 4 3 -2 6 -13 5 -11 0 -14 -3 -6 -6z"/>
<path d="M538 4743 c6 -2 18 -2 25 0 6 3 1 5 -13 5 -14 0 -19 -2 -12 -5z"/>
<path d="M3788 4743 c6 -2 18 -2 25 0 6 3 1 5 -13 5 -14 0 -19 -2 -12 -5z"/>
<path d="M1970 4563 c0 -6 8 -17 18 -24 16 -13 16 -13 2 6 -8 11 -16 22 -17
24 -2 2 -3 0 -3 -6z"/>
<path d="M2043 4533 c0 -27 1 -30 4 -10 3 18 9 25 16 20 7 -4 6 0 -2 10 -7 9
-14 17 -15 17 -1 0 -2 -17 -3 -37z"/>
<path d="M2093 4535 c0 -22 2 -30 4 -17 2 12 2 30 0 40 -3 9 -5 -1 -4 -23z"/>
<path d="M5148 4563 c7 -3 16 -2 19 1 4 3 -2 6 -13 5 -11 0 -14 -3 -6 -6z"/>
<path d="M1598 4553 c7 -3 16 -2 19 1 4 3 -2 6 -13 5 -11 0 -14 -3 -6 -6z"/>
<path d="M3708 4553 c7 -3 16 -2 19 1 4 3 -2 6 -13 5 -11 0 -14 -3 -6 -6z"/>
<path d="M3768 4553 c7 -3 16 -2 19 1 4 3 -2 6 -13 5 -11 0 -14 -3 -6 -6z"/>
<path d="M3865 4550 c-3 -6 1 -7 9 -4 18 7 21 14 7 14 -6 0 -13 -4 -16 -10z"/>
<path d="M3907 4553 c-14 -13 -7 -23 16 -22 21 0 21 1 2 8 l-20 8 20 5 c13 4
15 6 4 7 -9 0 -19 -2 -22 -6z"/>
<path d="M3966 4551 c-4 -5 3 -7 14 -4 23 6 26 13 6 13 -8 0 -17 -4 -20 -9z"/>
<path d="M446 4541 c-4 -5 3 -7 14 -4 23 6 26 13 6 13 -8 0 -17 -4 -20 -9z"/>
<path d="M506 4541 c-4 -5 3 -7 14 -4 23 6 26 13 6 13 -8 0 -17 -4 -20 -9z"/>
<path d="M576 4541 c-4 -5 3 -7 14 -4 23 6 26 13 6 13 -8 0 -17 -4 -20 -9z"/>
<path d="M795 4541 c19 -8 18 -9 -5 -13 -24 -5 -24 -5 3 -7 32 -1 33 22 1 26
-18 3 -18 2 1 -6z"/>
<path d="M642 4510 c0 -14 2 -19 5 -12 2 6 2 18 0 25 -3 6 -5 1 -5 -13z"/>
<path d="M3908 4508 c5 -5 16 -8 23 -6 8 3 3 7 -10 11 -17 4 -21 3 -13 -5z"/>
<path d="M3968 4508 c5 -5 16 -8 23 -6 8 3 3 7 -10 11 -17 4 -21 3 -13 -5z"/>
<path d="M508 4498 c5 -5 16 -8 23 -6 8 3 3 7 -10 11 -17 4 -21 3 -13 -5z"/>
<path d="M3708 4503 c7 -3 16 -2 19 1 4 3 -2 6 -13 5 -11 0 -14 -3 -6 -6z"/>
<path d="M3768 4503 c7 -3 16 -2 19 1 4 3 -2 6 -13 5 -11 0 -14 -3 -6 -6z"/>
<path d="M788 4493 c6 -2 18 -2 25 0 6 3 1 5 -13 5 -14 0 -19 -2 -12 -5z"/>
<path d="M10027 4493 c-4 -3 -7 -60 -7 -125 l0 -118 965 0 966 0 -3 123 -3
122 -956 3 c-525 1 -959 -1 -962 -5z m141 -83 c6 0 13 -10 13 -22 l2 -23 4 23
c4 21 23 28 63 23 8 0 67 -1 131 -2 l116 0 1 -29 c1 -30 0 -30 -54 -30 -47 0
-56 3 -64 23 l-9 22 0 -22 c-1 -21 -5 -21 -130 -22 l-129 0 -4 30 c-5 35 0 42
27 35 11 -3 26 -6 33 -6z"/>
<path d="M10142 4380 c0 -14 2 -19 5 -12 2 6 2 18 0 25 -3 6 -5 1 -5 -13z"/>
<path d="M10250 4386 c0 -8 5 -18 10 -21 6 -3 10 3 10 14 0 12 -4 21 -10 21
-5 0 -10 -6 -10 -14z"/>
<path d="M10413 4373 c10 -9 56 -10 51 -1 -3 4 -17 8 -31 8 -15 0 -23 -3 -20
-7z"/>
<path d="M6627 4363 c-4 -3 -7 -62 -7 -130 l0 -123 1015 0 1016 0 -3 128 -3
127 -1006 3 c-553 1 -1009 -1 -1012 -5z m383 -73 c0 -5 -7 -10 -15 -10 -8 0
-15 5 -15 10 0 6 7 10 15 10 8 0 15 -4 15 -10z m85 -22 l92 1 1 -30 1 -29
-187 2 c-171 3 -187 4 -186 21 1 9 -2 17 -7 17 -5 0 -9 -9 -9 -21 0 -13 -6
-20 -17 -18 -37 3 -53 -1 -53 -16 0 -8 -7 -15 -15 -15 -11 0 -15 12 -15 45 l0
44 115 -1 c64 0 119 2 122 6 4 4 20 4 37 0 16 -3 71 -6 121 -6z"/>
<path d="M6921 4251 c-7 -5 -12 -14 -10 -20 3 -6 9 -7 18 -2 7 5 12 14 10 20
-3 6 -9 7 -18 2z"/>
<path d="M6972 4240 c0 -14 2 -19 5 -12 2 6 2 18 0 25 -3 6 -5 1 -5 -13z"/>
<path d="M7058 4253 c-21 -5 -24 -23 -4 -23 8 0 16 7 20 15 3 8 4 14 3 14 -1
-1 -10 -3 -19 -6z"/>
<path d="M7130 4236 c0 -2 7 -7 16 -10 8 -3 12 -2 9 4 -6 10 -25 14 -25 6z"/>
<path d="M500 4300 c0 -5 -6 -10 -14 -10 -8 0 -17 -4 -20 -9 -4 -5 3 -7 14 -4
16 4 20 0 20 -17 0 -17 -4 -21 -20 -17 -11 3 -18 1 -14 -4 3 -5 14 -9 25 -9
16 0 19 7 19 40 0 22 -2 40 -5 40 -3 0 -5 -4 -5 -10z"/>
<path d="M863 4284 c-25 -28 -30 -54 -10 -54 23 0 39 17 35 40 -2 13 3 25 11
28 10 3 12 0 8 -12 -4 -9 -2 -16 4 -16 16 0 6 34 -11 37 -8 2 -25 -9 -37 -23z
m8 -37 c-13 -13 -26 -3 -16 12 3 6 11 8 17 5 6 -4 6 -10 -1 -17z"/>
<path d="M1970 4307 c0 -5 11 -25 25 -45 14 -20 25 -33 25 -29 0 5 -11 25 -25
45 -14 20 -25 33 -25 29z"/>
<path d="M2042 4268 c1 -38 2 -39 5 -10 4 32 5 33 19 15 14 -17 14 -17 4 4
-19 40 -30 36 -28 -9z"/>
<path d="M2088 4274 c-2 -19 0 -37 4 -40 4 -3 8 13 8 35 0 51 -6 53 -12 5z"/>
<path d="M575 4281 c-3 -5 0 -13 6 -17 7 -4 9 -3 5 4 -3 6 2 13 11 15 16 4 16
5 1 6 -9 0 -19 -3 -23 -8z"/>
<path d="M757 4284 c-14 -14 -6 -24 19 -24 16 0 24 5 22 13 -5 14 -31 21 -41
11z m30 -10 c-3 -3 -12 -4 -19 -1 -8 3 -5 6 6 6 11 1 17 -2 13 -5z"/>
<path d="M638 4263 c6 -2 18 -2 25 0 6 3 1 5 -13 5 -14 0 -19 -2 -12 -5z"/>
<path d="M638 4238 c5 -5 16 -8 23 -6 8 3 3 7 -10 11 -17 4 -21 3 -13 -5z"/>
<path d="M758 4238 c5 -5 16 -8 23 -6 8 3 3 7 -10 11 -17 4 -21 3 -13 -5z"/>
<path d="M578 4233 c7 -3 16 -2 19 1 4 3 -2 6 -13 5 -11 0 -14 -3 -6 -6z"/>
<path d="M708 4233 c7 -3 16 -2 19 1 4 3 -2 6 -13 5 -11 0 -14 -3 -6 -6z"/>
<path d="M533 4213 c9 -2 23 -2 30 0 6 3 -1 5 -18 5 -16 0 -22 -2 -12 -5z"/>
<path d="M10115 4170 c-3 -5 -1 -10 4 -10 6 0 11 5 11 10 0 6 -2 10 -4 10 -3
0 -8 -4 -11 -10z"/>
<path d="M10180 4160 c0 -5 -6 -10 -14 -10 -8 0 -16 -7 -20 -15 -9 -25 4 -45
30 -43 21 2 24 7 24 40 0 21 -4 38 -10 38 -5 0 -10 -4 -10 -10z m0 -40 c0 -11
-4 -20 -10 -20 -5 0 -10 9 -10 20 0 11 5 20 10 20 6 0 10 -9 10 -20z"/>
<path d="M10593 4158 c-20 -28 -36 -68 -30 -75 8 -7 77 28 77 39 0 9 -42 -12
-52 -27 -15 -21 -17 4 -2 33 15 31 34 43 34 21 0 -5 5 -7 11 -3 8 4 7 9 -2 15
-19 12 -25 11 -36 -3z"/>
<path d="M10258 4154 c-10 -10 5 -64 18 -64 12 0 12 4 2 20 -11 17 -10 22 0
29 11 7 11 9 -1 14 -8 3 -17 4 -19 1z"/>
<path d="M10378 4154 c-3 -2 -3 -17 0 -34 3 -20 10 -30 21 -29 10 0 11 2 4 6
-16 6 -17 40 -1 45 8 3 6 6 -4 10 -9 4 -18 5 -20 2z"/>
<path d="M11618 4153 c6 -2 18 -2 25 0 6 3 1 5 -13 5 -14 0 -19 -2 -12 -5z"/>
<path d="M11661 4123 c1 -21 3 -30 6 -20 2 9 10 17 16 17 7 0 6 4 -3 10 -13 9
-13 11 0 20 13 8 12 10 -2 10 -14 0 -18 -8 -17 -37z"/>
<path d="M11725 4125 c0 -19 5 -35 10 -35 6 0 10 16 10 35 0 19 -4 35 -10 35
-5 0 -10 -16 -10 -35z"/>
<path d="M10110 4120 c0 -16 5 -30 10 -30 6 0 10 14 10 30 0 17 -4 30 -10 30
-5 0 -10 -13 -10 -30z"/>
<path d="M10302 4123 c2 -23 8 -28 31 -29 23 -1 27 3 27 27 0 16 -4 29 -10 29
-5 0 -10 -11 -10 -25 0 -14 -4 -25 -10 -25 -5 0 -10 11 -10 25 0 14 -5 25 -11
25 -6 0 -9 -12 -7 -27z"/>
<path d="M10424 4135 c-8 -21 2 -45 19 -45 8 0 20 7 27 15 10 12 10 18 0 30
-7 8 -19 15 -27 15 -7 0 -16 -7 -19 -15z m36 -15 c0 -11 -4 -20 -9 -20 -14 0
-23 18 -16 30 10 17 25 11 25 -10z"/>
<path d="M10491 4116 c1 -24 3 -26 6 -8 2 12 9 22 14 22 5 0 9 4 9 8 0 5 -7 9
-15 9 -10 0 -15 -10 -14 -31z"/>
<path d="M11567 4129 c7 -7 15 -10 18 -7 3 3 -2 9 -12 12 -14 6 -15 5 -6 -5z"/>
<path d="M11618 4123 c7 -3 16 -2 19 1 4 3 -2 6 -13 5 -11 0 -14 -3 -6 -6z"/>
<path d="M11778 4113 c7 -3 16 -2 19 1 4 3 -2 6 -13 5 -11 0 -14 -3 -6 -6z"/>
<path d="M11568 4093 c7 -3 16 -2 19 1 4 3 -2 6 -13 5 -11 0 -14 -3 -6 -6z"/>
<path d="M11618 4093 c6 -2 18 -2 25 0 6 3 1 5 -13 5 -14 0 -19 -2 -12 -5z"/>
<path d="M11838 4093 c7 -3 16 -2 19 1 4 3 -2 6 -13 5 -11 0 -14 -3 -6 -6z"/>
<path d="M10218 4073 c6 -2 18 -2 25 0 6 3 1 5 -13 5 -14 0 -19 -2 -12 -5z"/>
<path d="M500 4040 c0 -5 -6 -10 -14 -10 -8 0 -17 -4 -20 -9 -4 -5 3 -7 14 -4
16 4 20 0 20 -17 0 -17 -4 -21 -20 -17 -11 3 -18 1 -14 -4 3 -5 14 -9 25 -9
16 0 19 7 19 40 0 22 -2 40 -5 40 -3 0 -5 -4 -5 -10z"/>
<path d="M1037 4038 c-9 -5 -17 -17 -17 -26 0 -13 3 -12 16 6 8 12 20 20 25
16 6 -3 -1 -17 -16 -31 -14 -14 -23 -29 -20 -32 6 -6 55 47 55 59 0 13 -26 18
-43 8z"/>
<path d="M2043 4005 c0 -22 2 -30 4 -17 2 12 2 30 0 40 -3 9 -5 -1 -4 -23z"/>
<path d="M2091 4017 c-1 -20 -5 -26 -13 -21 -8 5 -7 0 2 -11 14 -18 15 -18 18
3 2 12 1 30 -1 40 -3 10 -5 6 -6 -11z"/>
<path d="M580 4026 c0 -2 9 -6 20 -9 11 -3 20 -1 20 4 0 5 -9 9 -20 9 -11 0
-20 -2 -20 -4z"/>
<path d="M675 4020 c-3 -6 1 -7 9 -4 18 7 21 14 7 14 -6 0 -13 -4 -16 -10z"/>
<path d="M717 4024 c-14 -14 -6 -24 19 -24 16 0 24 5 22 13 -5 14 -31 21 -41
11z m30 -10 c-3 -3 -12 -4 -19 -1 -8 3 -5 6 6 6 11 1 17 -2 13 -5z"/>
<path d="M776 4021 c-4 -5 3 -7 14 -4 23 6 26 13 6 13 -8 0 -17 -4 -20 -9z"/>
<path d="M828 4023 c7 -3 16 -2 19 1 4 3 -2 6 -13 5 -11 0 -14 -3 -6 -6z"/>
<path d="M866 4021 c-4 -5 3 -7 14 -4 23 6 26 13 6 13 -8 0 -17 -4 -20 -9z"/>
<path d="M935 4020 c-3 -6 1 -7 9 -4 18 7 21 14 7 14 -6 0 -13 -4 -16 -10z"/>
<path d="M6780 4020 c0 -5 -9 -10 -20 -10 -16 0 -20 -7 -20 -30 0 -26 3 -29
25 -28 22 2 25 7 25 40 0 21 -2 38 -5 38 -3 0 -5 -4 -5 -10z m-5 -50 c-5 -8
-11 -8 -17 -2 -6 6 -7 16 -3 22 5 8 11 8 17 2 6 -6 7 -16 3 -22z"/>
<path d="M7330 3998 l-22 -33 24 28 c13 15 30 27 38 27 13 0 13 -2 0 -11 -10
-7 -11 -9 -2 -7 18 5 17 22 -1 26 -8 2 -25 -12 -37 -30z"/>
<path d="M7065 4011 c-24 -5 -30 -11 -30 -31 0 -17 6 -26 20 -28 20 -4 20 -3
1 11 -22 16 -14 37 15 37 14 0 19 -7 19 -25 0 -16 6 -25 15 -25 13 0 13 3 3
20 -11 17 -10 22 0 29 20 12 -5 19 -43 12z"/>
<path d="M8264 4008 c-4 -6 0 -16 9 -23 22 -16 21 -22 0 -28 -16 -4 -16 -5 -1
-6 26 -2 33 20 12 36 -16 12 -17 15 -4 23 9 6 10 10 3 10 -6 0 -15 -5 -19 -12z"/>
<path d="M8310 3985 c0 -30 3 -35 23 -34 16 1 18 2 5 6 -10 2 -18 8 -18 13 0
5 8 11 18 13 16 4 16 5 0 6 -10 0 -18 5 -18 10 0 5 8 12 18 14 13 4 11 5 -5 6
-20 1 -23 -4 -23 -34z"/>
<path d="M8378 4013 c7 -3 16 -2 19 1 4 3 -2 6 -13 5 -11 0 -14 -3 -6 -6z"/>
<path d="M8428 4013 c7 -3 16 -2 19 1 4 3 -2 6 -13 5 -11 0 -14 -3 -6 -6z"/>
<path d="M997 3995 c-4 -8 -2 -17 3 -20 6 -4 10 3 10 14 0 25 -6 27 -13 6z"/>
<path d="M6712 3980 c0 -19 2 -27 5 -17 2 9 2 25 0 35 -3 9 -5 1 -5 -18z"/>
<path d="M6850 3965 c0 -25 5 -45 10 -45 6 0 10 7 10 15 0 8 6 15 14 15 16 0
31 34 21 50 -3 5 -17 10 -31 10 -22 0 -24 -4 -24 -45z m40 15 c0 -11 -4 -20
-10 -20 -5 0 -10 9 -10 20 0 11 5 20 10 20 6 0 10 -9 10 -20z"/>
<path d="M6921 3975 c1 -23 3 -25 6 -7 2 12 11 22 19 22 8 0 14 4 14 9 0 6 -9
9 -20 8 -16 -1 -20 -8 -19 -32z"/>
<path d="M6984 4002 c19 -8 19 -9 -3 -15 -31 -8 -22 -31 13 -35 25 -3 27 -1
24 25 -2 22 -9 29 -28 30 -21 2 -22 1 -6 -5z m16 -32 c0 -5 -4 -10 -10 -10 -5
0 -10 5 -10 10 0 6 5 10 10 10 6 0 10 -4 10 -10z"/>
<path d="M7130 3980 c0 -16 5 -30 10 -30 6 0 10 14 10 30 0 17 -4 30 -10 30
-5 0 -10 -13 -10 -30z"/>
<path d="M7164 3995 c-10 -24 4 -45 28 -44 17 1 18 2 6 6 -10 2 -18 13 -18 23
0 10 8 21 18 23 12 4 11 5 -6 6 -12 0 -25 -6 -28 -14z"/>
<path d="M7235 4001 c17 -8 18 -10 3 -10 -11 -1 -18 -9 -18 -21 0 -15 6 -19
25 -18 21 2 25 7 23 28 -2 18 -9 26 -28 27 -23 2 -23 2 -5 -6z m15 -31 c0 -5
-4 -10 -10 -10 -5 0 -10 5 -10 10 0 6 5 10 10 10 6 0 10 -4 10 -10z"/>
<path d="M595 3980 c-19 -8 -19 -9 3 -9 12 -1 22 4 22 9 0 6 -1 10 -2 9 -2 0
-12 -4 -23 -9z"/>
<path d="M718 3978 c5 -5 16 -8 23 -6 8 3 3 7 -10 11 -17 4 -21 3 -13 -5z"/>
<path d="M778 3978 c5 -5 16 -8 23 -6 8 3 3 7 -10 11 -17 4 -21 3 -13 -5z"/>
<path d="M868 3978 c5 -5 16 -8 23 -6 8 3 3 7 -10 11 -17 4 -21 3 -13 -5z"/>
<path d="M8370 3986 c0 -2 7 -6 15 -10 8 -3 15 -1 15 4 0 6 -7 10 -15 10 -8 0
-15 -2 -15 -4z"/>
<path d="M8488 3973 c7 -3 16 -2 19 1 4 3 -2 6 -13 5 -11 0 -14 -3 -6 -6z"/>
<path d="M7326 3955 c-16 -12 -17 -15 -4 -15 8 0 21 7 28 15 16 19 1 19 -24 0z"/>
<path d="M533 3953 c9 -2 23 -2 30 0 6 3 -1 5 -18 5 -16 0 -22 -2 -12 -5z"/>
<path d="M8428 3953 c7 -3 16 -2 19 1 4 3 -2 6 -13 5 -11 0 -14 -3 -6 -6z"/>
<path d="M8538 3953 c7 -3 16 -2 19 1 4 3 -2 6 -13 5 -11 0 -14 -3 -6 -6z"/>
<path d="M6808 3933 c6 -2 18 -2 25 0 6 3 1 5 -13 5 -14 0 -19 -2 -12 -5z"/>
<path d="M10180 3890 c0 -5 -6 -10 -14 -10 -8 0 -17 -4 -20 -9 -4 -5 3 -7 14
-4 16 4 20 0 20 -17 0 -18 -4 -21 -21 -17 -16 4 -19 3 -11 -5 20 -20 42 -1 42
37 0 19 -2 35 -5 35 -3 0 -5 -4 -5 -10z"/>
<path d="M10750 3885 c-9 -11 -10 -18 -1 -28 6 -8 8 -17 4 -20 -11 -12 -21 -8
-26 11 -4 15 -5 15 -6 0 -1 -23 17 -32 35 -17 10 8 13 21 9 36 -4 17 -1 23 11
23 11 0 14 -5 9 -17 -5 -14 -3 -15 6 -6 13 13 4 33 -15 33 -8 0 -19 -7 -26
-15z"/>
<path d="M11702 3865 c0 -36 1 -37 7 -11 l6 29 14 -26 c20 -38 31 -33 30 11
-2 32 -3 33 -6 8 l-5 -29 -23 29 -24 29 1 -40z"/>
<path d="M11782 3865 c0 -26 2 -32 5 -16 l5 25 20 -25 c23 -29 9 4 -16 36 -15
19 -15 18 -14 -20z"/>
<path d="M10257 3874 c-14 -14 -6 -24 19 -24 16 0 24 5 22 13 -5 14 -31 21
-41 11z m30 -10 c-3 -3 -12 -4 -19 -1 -8 3 -5 6 6 6 11 1 17 -2 13 -5z"/>
<path d="M10341 3870 c10 -7 49 -2 49 5 0 2 -14 3 -31 3 -17 -1 -25 -4 -18 -8z"/>
<path d="M10430 3876 c0 -2 7 -7 16 -10 8 -3 12 -2 9 4 -6 10 -25 14 -25 6z"/>
<path d="M10485 3870 c-3 -6 1 -7 9 -4 18 7 21 14 7 14 -6 0 -13 -4 -16 -10z"/>
<path d="M10527 3874 c-14 -14 -6 -24 19 -24 16 0 24 5 22 13 -5 14 -31 21
-41 11z m30 -10 c-3 -3 -12 -4 -19 -1 -8 3 -5 6 6 6 11 1 17 -2 13 -5z"/>
<path d="M10587 3873 c-9 -8 12 -33 27 -33 6 0 2 6 -9 12 -19 11 -19 11 0 19
15 6 16 8 4 8 -9 1 -19 -2 -22 -6z"/>
<path d="M10648 3873 c7 -3 16 -2 19 1 4 3 -2 6 -13 5 -11 0 -14 -3 -6 -6z"/>
<path d="M10635 3850 c-8 -13 3 -30 18 -29 9 0 9 2 0 6 -18 7 -16 21 5 26 15
4 15 5 0 6 -9 0 -20 -3 -23 -9z"/>
<path d="M3610 3710 l0 -130 960 0 961 0 -3 128 -3 127 -957 3 -958 2 0 -130z
m570 38 c0 -10 18 -12 66 -10 57 2 65 1 55 -12 -9 -11 -9 -15 0 -18 7 -2 9 -9
6 -15 -5 -7 -50 -11 -124 -11 -98 0 -119 -3 -129 -17 -8 -10 -23 -15 -41 -13
-25 3 -28 6 -25 36 2 18 -1 32 -7 32 -6 0 -11 -9 -11 -20 0 -19 -6 -20 -90
-19 -84 1 -90 3 -91 23 -2 20 -2 20 -6 -1 -4 -20 -11 -23 -48 -23 -44 0 -60
15 -49 44 5 12 46 14 232 15 151 0 228 3 230 10 5 15 32 14 32 -1z"/>
<path d="M3850 3710 c0 -5 4 -10 9 -10 6 0 13 5 16 10 3 6 -1 10 -9 10 -9 0
-16 -4 -16 -10z"/>
<path d="M3715 3700 c3 -5 12 -7 20 -3 21 7 19 13 -6 13 -11 0 -18 -4 -14 -10z"/>
<path d="M4030 3700 c-13 -8 -12 -10 3 -10 9 0 17 5 17 10 0 12 -1 12 -20 0z"/>
<path d="M10258 3828 c5 -5 16 -8 23 -6 8 3 3 7 -10 11 -17 4 -21 3 -13 -5z"/>
<path d="M10435 3830 c-16 -7 -17 -9 -3 -9 9 -1 20 4 23 9 7 11 7 11 -20 0z"/>
<path d="M10528 3828 c5 -5 16 -8 23 -6 8 3 3 7 -10 11 -17 4 -21 3 -13 -5z"/>
<path d="M10588 3823 c7 -3 16 -2 19 1 4 3 -2 6 -13 5 -11 0 -14 -3 -6 -6z"/>
<path d="M10208 3803 c6 -2 18 -2 25 0 6 3 1 5 -13 5 -14 0 -19 -2 -12 -5z"/>
<path d="M7100 3750 c0 -5 -6 -10 -14 -10 -8 0 -17 -4 -20 -9 -4 -5 3 -7 14
-4 16 4 20 0 20 -17 0 -18 -4 -21 -21 -17 -16 4 -19 3 -11 -5 20 -20 42 -1 42
37 0 19 -2 35 -5 35 -3 0 -5 -4 -5 -10z"/>
<path d="M7433 3743 c-4 -10 -1 -19 6 -21 9 -3 9 -7 0 -18 -14 -18 -30 -9 -22
13 4 11 3 14 -5 9 -16 -10 -15 -33 2 -39 20 -8 68 39 63 61 -4 16 -5 16 -6 0
0 -10 -8 -18 -17 -18 -14 0 -14 3 -4 15 9 11 9 15 1 15 -6 0 -15 -8 -18 -17z"/>
<path d="M8410 3753 c0 -6 8 -17 18 -24 16 -13 16 -13 2 6 -8 11 -16 22 -17
24 -2 2 -3 0 -3 -6z"/>
<path d="M8481 3723 c2 -31 3 -33 6 -10 3 18 9 25 16 20 7 -4 6 0 -2 10 -19
24 -21 22 -20 -20z"/>
<path d="M8533 3725 c0 -22 2 -30 4 -17 2 12 2 30 0 40 -3 9 -5 -1 -4 -23z"/>
<path d="M6740 3736 c0 -2 9 -6 20 -9 11 -3 20 -1 20 4 0 5 -9 9 -20 9 -11 0
-20 -2 -20 -4z"/>
<path d="M6918 3733 c7 -3 16 -2 19 1 4 3 -2 6 -13 5 -11 0 -14 -3 -6 -6z"/>
<path d="M6958 3733 c7 -3 16 -2 19 1 4 3 -2 6 -13 5 -11 0 -14 -3 -6 -6z"/>
<path d="M7168 3733 c7 -3 16 -2 19 1 4 3 -2 6 -13 5 -11 0 -14 -3 -6 -6z"/>
<path d="M7230 3736 c0 -2 7 -7 16 -10 8 -3 12 -2 9 4 -6 10 -25 14 -25 6z"/>
<path d="M7278 3733 c7 -3 16 -2 19 1 4 3 -2 6 -13 5 -11 0 -14 -3 -6 -6z"/>
<path d="M6858 3713 c6 -2 18 -2 25 0 6 3 1 5 -13 5 -14 0 -19 -2 -12 -5z"/>
<path d="M7155 3710 c-8 -13 3 -30 18 -29 9 0 9 2 0 6 -18 7 -16 21 5 26 15 4
15 5 0 6 -9 0 -20 -3 -23 -9z"/>
<path d="M7328 3713 c6 -2 18 -2 25 0 6 3 1 5 -13 5 -14 0 -19 -2 -12 -5z"/>
<path d="M6755 3690 c-19 -8 -19 -9 3 -9 12 -1 22 4 22 9 0 6 -1 10 -2 9 -2 0
-12 -4 -23 -9z"/>
<path d="M6858 3688 c5 -5 16 -8 23 -6 8 3 3 7 -10 11 -17 4 -21 3 -13 -5z"/>
<path d="M6960 3690 c0 -5 5 -10 11 -10 5 0 7 5 4 10 -3 6 -8 10 -11 10 -2 0
-4 -4 -4 -10z"/>
<path d="M7015 3690 c-19 -8 -19 -9 3 -9 12 -1 22 4 22 9 0 6 -1 10 -2 9 -2 0
-12 -4 -23 -9z"/>
<path d="M7280 3690 c0 -5 5 -10 11 -10 5 0 7 5 4 10 -3 6 -8 10 -11 10 -2 0
-4 -4 -4 -10z"/>
<path d="M7328 3688 c5 -5 16 -8 23 -6 8 3 3 7 -10 11 -17 4 -21 3 -13 -5z"/>
<path d="M6918 3683 c7 -3 16 -2 19 1 4 3 -2 6 -13 5 -11 0 -14 -3 -6 -6z"/>
<path d="M6803 3663 c9 -2 23 -2 30 0 6 3 -1 5 -18 5 -16 0 -22 -2 -12 -5z"/>
<path d="M10420 3630 c0 -5 -6 -10 -14 -10 -8 0 -17 -4 -20 -9 -4 -5 3 -7 14
-4 16 4 20 0 20 -17 0 -18 -4 -21 -21 -17 -16 4 -19 3 -11 -5 20 -20 42 -1 42
37 0 19 -2 35 -5 35 -3 0 -5 -4 -5 -10z"/>
<path d="M11118 3623 c7 -3 16 -2 19 1 4 3 -2 6 -13 5 -11 0 -14 -3 -6 -6z"/>
<path d="M11498 3623 c7 -3 16 -2 19 1 4 3 -2 6 -13 5 -11 0 -14 -3 -6 -6z"/>
<path d="M11701 3598 c2 -32 2 -32 6 -5 4 27 5 28 19 10 14 -17 14 -16 4 5
-16 32 -30 27 -29 -10z"/>
<path d="M11748 3600 c-3 -17 -1 -33 4 -36 4 -3 8 11 8 30 0 44 -6 47 -12 6z"/>
<path d="M11782 3595 c1 -32 2 -34 5 -11 l5 29 19 -29 c10 -16 19 -24 19 -19
0 6 -11 24 -25 40 l-24 30 1 -40z"/>
<path d="M10128 3613 c7 -3 16 -2 19 1 4 3 -2 6 -13 5 -11 0 -14 -3 -6 -6z"/>
<path d="M10190 3616 c0 -2 7 -7 16 -10 8 -3 12 -2 9 4 -6 10 -25 14 -25 6z"/>
<path d="M10458 3613 c7 -3 16 -2 19 1 4 3 -2 6 -13 5 -11 0 -14 -3 -6 -6z"/>
<path d="M10518 3613 c7 -3 16 -2 19 1 4 3 -2 6 -13 5 -11 0 -14 -3 -6 -6z"/>
<path d="M10115 3590 c-8 -13 3 -30 18 -29 9 0 9 2 0 6 -18 7 -16 21 5 26 15
4 15 5 0 6 -9 0 -20 -3 -23 -9z"/>
<path d="M10248 3593 c6 -2 18 -2 25 0 6 3 1 5 -13 5 -14 0 -19 -2 -12 -5z"/>
<path d="M10510 3596 c0 -2 7 -7 16 -10 8 -3 12 -2 9 4 -6 10 -25 14 -25 6z"/>
<path d="M10195 3570 c-16 -7 -17 -9 -3 -9 9 -1 20 4 23 9 7 11 7 11 -20 0z"/>
<path d="M10248 3568 c5 -5 16 -8 23 -6 8 3 3 7 -10 11 -17 4 -21 3 -13 -5z"/>
<path d="M10458 3563 c7 -3 16 -2 19 1 4 3 -2 6 -13 5 -11 0 -14 -3 -6 -6z"/>
<path d="M10518 3563 c7 -3 16 -2 19 1 4 3 -2 6 -13 5 -11 0 -14 -3 -6 -6z"/>
<path d="M3695 3500 c-3 -5 -1 -10 4 -10 6 0 11 5 11 10 0 6 -2 10 -4 10 -3 0
-8 -4 -11 -10z"/>
<path d="M3760 3490 c0 -5 -6 -10 -14 -10 -8 0 -16 -7 -20 -15 -9 -25 4 -45
30 -43 21 2 24 7 24 40 0 21 -4 38 -10 38 -5 0 -10 -4 -10 -10z m0 -40 c0 -11
-4 -20 -10 -20 -5 0 -10 9 -10 20 0 11 5 20 10 20 6 0 10 -9 10 -20z"/>
<path d="M4300 3490 c0 -5 -6 -10 -14 -10 -8 0 -16 -7 -20 -15 -9 -25 4 -45
30 -43 21 2 24 7 24 40 0 21 -4 38 -10 38 -5 0 -10 -4 -10 -10z m0 -40 c0 -11
-4 -20 -10 -20 -5 0 -10 9 -10 20 0 11 5 20 10 20 6 0 10 -9 10 -20z"/>
<path d="M4486 3493 c6 -4 14 -15 17 -23 5 -11 6 -9 4 4 -1 11 -9 21 -17 23
-10 3 -11 2 -4 -4z"/>
<path d="M7434 3486 c-3 -8 -4 -22 -2 -31 2 -10 -3 -20 -11 -23 -10 -3 -12 0
-8 12 4 9 2 16 -4 16 -6 0 -9 -8 -7 -17 2 -10 12 -18 23 -18 15 0 20 7 20 29
1 16 7 32 14 34 10 3 11 -2 6 -19 -6 -19 -5 -22 5 -12 7 6 10 19 7 27 -8 20
-36 21 -43 2z"/>
<path d="M8482 3458 c1 -38 2 -39 5 -10 4 32 5 33 19 15 14 -17 14 -17 4 4
-19 40 -30 36 -28 -9z"/>
<path d="M8528 3464 c-2 -19 0 -37 4 -40 4 -3 8 13 8 35 0 51 -6 53 -12 5z"/>
<path d="M5144 3478 c-4 -6 0 -16 9 -23 22 -16 21 -22 0 -28 -16 -4 -16 -5 -1
-6 26 -2 33 20 12 36 -16 12 -17 15 -4 23 9 6 10 10 3 10 -6 0 -15 -5 -19 -12z"/>
<path d="M5190 3455 c0 -30 3 -35 23 -34 16 1 18 2 5 6 -21 5 -23 19 -5 26 10
4 10 6 0 6 -19 1 -16 19 5 24 13 4 11 5 -5 6 -20 1 -23 -4 -23 -34z"/>
<path d="M5241 3453 c1 -21 3 -30 6 -20 2 9 10 17 16 17 7 0 6 4 -3 10 -13 9
-13 11 0 20 13 8 12 10 -2 10 -14 0 -18 -8 -17 -37z"/>
<path d="M5308 3483 c7 -3 16 -2 19 1 4 3 -2 6 -13 5 -11 0 -14 -3 -6 -6z"/>
<path d="M3690 3450 c0 -16 5 -30 10 -30 6 0 10 14 10 30 0 17 -4 30 -10 30
-5 0 -10 -13 -10 -30z"/>
<path d="M3844 3466 c-10 -25 3 -46 28 -45 23 0 23 0 -2 11 l-25 11 23 5 c13
2 21 9 19 15 -6 19 -36 20 -43 3z"/>
<path d="M3900 3449 c0 -16 5 -29 10 -29 6 0 10 11 10 25 0 14 5 25 10 25 6 0
10 -11 10 -25 0 -14 5 -25 11 -25 6 0 9 12 7 28 -2 22 -8 27 -30 28 -24 1 -28
-3 -28 -27z"/>
<path d="M3974 3465 c-9 -22 3 -45 23 -45 17 1 17 1 1 11 -24 14 -22 28 5 39
l22 9 -23 0 c-12 1 -25 -6 -28 -14z"/>
<path d="M4044 3472 c19 -8 19 -9 -3 -15 -31 -8 -22 -31 13 -35 25 -3 27 -1
24 25 -2 22 -9 29 -28 30 -21 2 -22 1 -6 -5z m16 -32 c0 -5 -4 -10 -10 -10 -5
0 -10 5 -10 10 0 6 5 10 10 10 6 0 10 -4 10 -10z"/>
<path d="M4090 3448 c0 -15 5 -28 10 -28 6 0 10 9 10 20 0 11 5 20 10 20 6 0
10 4 10 9 0 6 -9 9 -20 8 -15 -1 -20 -8 -20 -29z"/>
<path d="M4149 3478 c-1 -2 -3 -14 -4 -28 -2 -14 -5 -32 -7 -40 -2 -10 5 -15
22 -15 33 0 42 35 8 36 l-23 0 23 9 c27 12 29 40 2 40 -11 0 -21 -1 -21 -2z
m21 -18 c0 -5 -4 -10 -10 -10 -5 0 -10 5 -10 10 0 6 5 10 10 10 6 0 10 -4 10
-10z m10 -50 c0 -5 -7 -10 -15 -10 -8 0 -15 5 -15 10 0 6 7 10 15 10 8 0 15
-4 15 -10z"/>
<path d="M4220 3471 c25 -7 25 -7 3 -13 -33 -9 -30 -38 2 -36 21 2 25 7 23 28
-2 19 -9 26 -28 27 l-25 2 25 -8z m15 -31 c-3 -5 -11 -10 -16 -10 -6 0 -7 5
-4 10 3 6 11 10 16 10 6 0 7 -4 4 -10z"/>
<path d="M4334 3465 c-9 -23 3 -45 25 -45 21 0 33 22 25 45 -4 8 -15 15 -25
15 -11 0 -22 -7 -25 -15z m36 -15 c0 -11 -4 -20 -10 -20 -5 0 -10 9 -10 20 0
11 5 20 10 20 6 0 10 -9 10 -20z"/>
<path d="M6740 3476 c0 -2 9 -6 20 -9 11 -3 20 -1 20 4 0 5 -9 9 -20 9 -11 0
-20 -2 -20 -4z"/>
<path d="M6916 3471 c-4 -5 3 -7 14 -4 23 6 26 13 6 13 -8 0 -17 -4 -20 -9z"/>
<path d="M6976 3471 c-4 -5 3 -7 14 -4 23 6 26 13 6 13 -8 0 -17 -4 -20 -9z"/>
<path d="M7038 3473 c7 -3 16 -2 19 1 4 3 -2 6 -13 5 -11 0 -14 -3 -6 -6z"/>
<path d="M7143 3473 c21 -6 22 -20 2 -26 -11 -4 -10 -4 2 -3 10 1 19 9 21 19
3 12 -3 17 -20 16 -17 -1 -18 -3 -5 -6z"/>
<path d="M7198 3473 c7 -3 16 -2 19 1 4 3 -2 6 -13 5 -11 0 -14 -3 -6 -6z"/>
<path d="M7250 3476 c0 -2 9 -6 20 -9 11 -3 20 -1 20 4 0 5 -9 9 -20 9 -11 0
-20 -2 -20 -4z"/>
<path d="M7316 3471 c-4 -5 3 -7 14 -4 23 6 26 13 6 13 -8 0 -17 -4 -20 -9z"/>
<path d="M8429 3465 c17 -33 31 -51 31 -40 0 6 -10 21 -21 35 -13 17 -17 18
-10 5z"/>
<path d="M6858 3453 c6 -2 18 -2 25 0 6 3 1 5 -13 5 -14 0 -19 -2 -12 -5z"/>
<path d="M7025 3450 c-8 -13 3 -30 18 -29 9 0 9 2 0 6 -18 7 -16 21 5 26 15 4
15 5 0 6 -9 0 -20 -3 -23 -9z"/>
<path d="M7185 3450 c-8 -13 3 -30 18 -29 9 0 9 2 0 6 -18 7 -16 21 5 26 15 4
15 5 0 6 -9 0 -20 -3 -23 -9z"/>
<path d="M290 3323 l0 -128 960 0 960 0 0 128 0 127 -960 0 -960 0 0 -127z
m175 58 c3 -5 -3 -12 -12 -14 -17 -4 104 -12 137 -9 35 4 92 4 208 2 102 -1
121 -4 112 -15 -8 -10 -8 -14 1 -17 30 -10 -6 -28 -55 -28 -45 0 -55 3 -64 23
l-11 22 0 -22 c-1 -21 -5 -21 -130 -22 -123 0 -129 1 -139 22 l-11 22 0 -22
c-1 -21 -5 -23 -66 -23 l-65 0 0 30 c0 23 4 30 20 30 11 0 20 4 20 9 0 8 15
15 42 20 4 0 9 -3 13 -8z"/>
<path d="M672 3330 c0 -14 2 -19 5 -12 2 6 2 18 0 25 -3 6 -5 1 -5 -13z"/>
<path d="M610 3330 c0 -5 7 -10 15 -10 8 0 15 5 15 10 0 6 -7 10 -15 10 -8 0
-15 -4 -15 -10z"/>
<path d="M545 3320 c3 -5 12 -7 20 -3 21 7 19 13 -6 13 -11 0 -18 -4 -14 -10z"/>
<path d="M824 3321 c3 -5 15 -7 26 -4 28 7 25 13 -6 13 -14 0 -23 -4 -20 -9z"/>
<path d="M5356 3442 c-2 -4 4 -8 14 -8 10 0 16 4 14 8 -3 4 -9 8 -14 8 -5 0
-11 -4 -14 -8z"/>
<path d="M6755 3430 c-19 -8 -19 -9 3 -9 12 -1 22 4 22 9 0 6 -1 10 -2 9 -2 0
-12 -4 -23 -9z"/>
<path d="M6858 3428 c5 -5 16 -8 23 -6 8 3 3 7 -10 11 -17 4 -21 3 -13 -5z"/>
<path d="M6978 3428 c5 -5 16 -8 23 -6 8 3 3 7 -10 11 -17 4 -21 3 -13 -5z"/>
<path d="M7265 3430 c-19 -8 -19 -9 3 -9 12 -1 22 4 22 9 0 6 -1 10 -2 9 -2 0
-12 -4 -23 -9z"/>
<path d="M7318 3428 c5 -5 16 -8 23 -6 8 3 3 7 -10 11 -17 4 -21 3 -13 -5z"/>
<path d="M5308 3423 c7 -3 16 -2 19 1 4 3 -2 6 -13 5 -11 0 -14 -3 -6 -6z"/>
<path d="M5418 3423 c7 -3 16 -2 19 1 4 3 -2 6 -13 5 -11 0 -14 -3 -6 -6z"/>
<path d="M7138 3423 c6 -2 18 -2 25 0 6 3 1 5 -13 5 -14 0 -19 -2 -12 -5z"/>
<path d="M3798 3403 c6 -2 18 -2 25 0 6 3 1 5 -13 5 -14 0 -19 -2 -12 -5z"/>
<path d="M6803 3403 c9 -2 23 -2 30 0 6 3 -1 5 -18 5 -16 0 -22 -2 -12 -5z"/>
<path d="M7128 3398 c5 -5 16 -8 23 -6 8 3 3 7 -10 11 -17 4 -21 3 -13 -5z"/>
<path d="M11118 3363 c7 -3 16 -2 19 1 4 3 -2 6 -13 5 -11 0 -14 -3 -6 -6z"/>
<path d="M11498 3363 c7 -3 16 -2 19 1 4 3 -2 6 -13 5 -11 0 -14 -3 -6 -6z"/>
<path d="M11751 3347 c-1 -20 -5 -26 -13 -21 -8 5 -7 0 2 -11 14 -18 15 -18
18 3 2 12 1 30 -1 40 -3 10 -5 6 -6 -11z"/>
<path d="M10138 3353 c7 -3 16 -2 19 1 4 3 -2 6 -13 5 -11 0 -14 -3 -6 -6z"/>
<path d="M10186 3351 c-4 -5 3 -7 14 -4 23 6 26 13 6 13 -8 0 -17 -4 -20 -9z"/>
<path d="M10260 3356 c0 -2 7 -7 16 -10 8 -3 12 -2 9 4 -6 10 -25 14 -25 6z"/>
<path d="M10350 3356 c0 -2 9 -6 20 -9 11 -3 18 -1 14 4 -5 9 -34 13 -34 5z"/>
<path d="M10415 3350 c-3 -6 1 -7 9 -4 18 7 21 14 7 14 -6 0 -13 -4 -16 -10z"/>
<path d="M10457 3354 c-14 -14 -6 -24 19 -24 16 0 24 5 22 13 -5 14 -31 21
-41 11z m30 -10 c-3 -3 -12 -4 -19 -1 -8 3 -5 6 6 6 11 1 17 -2 13 -5z"/>
<path d="M10517 3353 c-9 -8 12 -33 27 -33 6 0 2 6 -9 12 -19 11 -19 11 0 19
15 6 16 8 4 8 -9 1 -19 -2 -22 -6z"/>
<path d="M10322 3320 c0 -14 2 -19 5 -12 2 6 2 18 0 25 -3 6 -5 1 -5 -13z"/>
<path d="M11811 3323 c7 -12 15 -20 18 -17 3 2 -3 12 -13 22 -17 16 -18 16 -5
-5z"/>
<path d="M10188 3308 c5 -5 16 -8 23 -6 8 3 3 7 -10 11 -17 4 -21 3 -13 -5z"/>
<path d="M10370 3310 c-9 -6 -10 -10 -3 -10 6 0 15 5 18 10 8 12 4 12 -15 0z"/>
<path d="M10458 3308 c5 -5 16 -8 23 -6 8 3 3 7 -10 11 -17 4 -21 3 -13 -5z"/>
<path d="M10518 3303 c7 -3 16 -2 19 1 4 3 -2 6 -13 5 -11 0 -14 -3 -6 -6z"/>
<path d="M3760 3230 c0 -5 -6 -10 -14 -10 -8 0 -17 -4 -20 -9 -4 -5 3 -7 14
-4 16 4 20 0 20 -17 0 -17 -4 -21 -20 -17 -11 3 -18 1 -14 -4 3 -5 14 -9 25
-9 16 0 19 7 19 40 0 22 -2 40 -5 40 -3 0 -5 -4 -5 -10z"/>
<path d="M4262 3228 c-15 -15 -16 -42 -2 -33 6 4 8 10 5 15 -3 4 2 10 10 14
21 8 19 -17 -3 -37 -25 -23 -46 -22 -37 1 5 14 4 15 -6 4 -11 -10 -10 -15 2
-27 13 -14 18 -12 43 14 36 38 24 85 -12 49z"/>
<path d="M7162 3228 c-15 -15 -16 -42 -2 -33 6 4 8 10 5 15 -3 4 2 10 10 14
21 8 19 -17 -3 -37 -25 -23 -46 -22 -37 1 5 14 4 15 -6 4 -11 -10 -10 -15 2
-27 13 -14 18 -12 43 14 36 38 24 85 -12 49z"/>
<path d="M5290 3223 c0 -6 8 -17 18 -24 16 -13 16 -13 2 6 -8 11 -16 22 -17
24 -2 2 -3 0 -3 -6z"/>
<path d="M5361 3193 c2 -31 3 -33 6 -10 3 18 9 25 16 20 7 -4 6 0 -2 10 -19
24 -21 22 -20 -20z"/>
<path d="M8480 3195 c0 -19 2 -35 4 -35 2 0 6 16 8 35 2 19 0 35 -4 35 -4 0
-8 -16 -8 -35z"/>
<path d="M8528 3200 c-3 -17 -1 -33 4 -36 4 -3 8 11 8 30 0 44 -6 47 -12 6z"/>
<path d="M3848 3213 c7 -3 16 -2 19 1 4 3 -2 6 -13 5 -11 0 -14 -3 -6 -6z"/>
<path d="M3898 3213 c7 -3 16 -2 19 1 4 3 -2 6 -13 5 -11 0 -14 -3 -6 -6z"/>
<path d="M3955 3210 c-3 -6 1 -7 9 -4 18 7 21 14 7 14 -6 0 -13 -4 -16 -10z"/>
<path d="M4037 3214 c-14 -14 -6 -24 19 -24 16 0 24 5 22 13 -5 14 -31 21 -41
11z m30 -10 c-3 -3 -12 -4 -19 -1 -8 3 -5 6 6 6 11 1 17 -2 13 -5z"/>
<path d="M4148 3213 c7 -3 16 -2 19 1 4 3 -2 6 -13 5 -11 0 -14 -3 -6 -6z"/>
<path d="M6740 3216 c0 -2 9 -6 20 -9 11 -3 20 -1 20 4 0 5 -9 9 -20 9 -11 0
-20 -2 -20 -4z"/>
<path d="M6848 3213 c7 -3 16 -2 19 1 4 3 -2 6 -13 5 -11 0 -14 -3 -6 -6z"/>
<path d="M6948 3213 c7 -3 16 -2 19 1 4 3 -2 6 -13 5 -11 0 -14 -3 -6 -6z"/>
<path d="M7008 3213 c7 -3 16 -2 19 1 4 3 -2 6 -13 5 -11 0 -14 -3 -6 -6z"/>
<path d="M3898 3193 c6 -2 18 -2 25 0 6 3 1 5 -13 5 -14 0 -19 -2 -12 -5z"/>
<path d="M4148 3193 c6 -2 18 -2 25 0 6 3 1 5 -13 5 -14 0 -19 -2 -12 -5z"/>
<path d="M3905 3170 c-16 -7 -17 -9 -3 -9 9 -1 20 4 23 9 7 11 7 11 -20 0z"/>
<path d="M4038 3168 c5 -5 16 -8 23 -6 8 3 3 7 -10 11 -17 4 -21 3 -13 -5z"/>
<path d="M4155 3170 c-16 -7 -17 -9 -3 -9 9 -1 20 4 23 9 7 11 7 11 -20 0z"/>
<path d="M6755 3170 c-19 -8 -19 -9 3 -9 12 -1 22 4 22 9 0 6 -1 10 -2 9 -2 0
-12 -4 -23 -9z"/>
<path d="M6850 3170 c0 -5 5 -10 11 -10 5 0 7 5 4 10 -3 6 -8 10 -11 10 -2 0
-4 -4 -4 -10z"/>
<path d="M6905 3170 c-19 -8 -19 -9 3 -9 12 -1 22 4 22 9 0 6 -1 10 -2 9 -2 0
-12 -4 -23 -9z"/>
<path d="M3848 3163 c7 -3 16 -2 19 1 4 3 -2 6 -13 5 -11 0 -14 -3 -6 -6z"/>
<path d="M7008 3163 c7 -3 16 -2 19 1 4 3 -2 6 -13 5 -11 0 -14 -3 -6 -6z"/>
<path d="M3788 3143 c6 -2 18 -2 25 0 6 3 1 5 -13 5 -14 0 -19 -2 -12 -5z"/>
<path d="M6803 3143 c9 -2 23 -2 30 0 6 3 -1 5 -18 5 -16 0 -22 -2 -12 -5z"/>
<path d="M450 3100 c0 -5 -9 -10 -20 -10 -16 0 -20 -7 -20 -30 0 -26 3 -29 25
-28 22 2 25 7 25 40 0 21 -2 38 -5 38 -3 0 -5 -4 -5 -10z m-5 -50 c-5 -8 -11
-8 -17 -2 -6 6 -7 16 -3 22 5 8 11 8 17 2 6 -6 7 -16 3 -22z"/>
<path d="M560 3101 c0 -5 -9 -11 -21 -14 -29 -8 -23 -52 9 -53 19 -1 22 4 22
37 0 22 -2 39 -5 39 -3 0 -5 -4 -5 -9z m-5 -51 c-5 -8 -11 -8 -17 -2 -6 6 -7
16 -3 22 5 8 11 8 17 2 6 -6 7 -16 3 -22z"/>
<path d="M986 3075 c-11 -19 -16 -38 -13 -41 9 -10 77 25 84 42 8 20 -12 40
-22 23 -5 -8 -4 -10 3 -5 7 4 12 1 12 -8 0 -14 -59 -51 -68 -42 -2 3 6 19 18
35 12 17 18 31 13 31 -5 0 -17 -16 -27 -35z"/>
<path d="M765 3091 c-24 -5 -30 -11 -30 -31 0 -17 6 -26 20 -28 20 -4 20 -3 1
11 -22 16 -14 37 15 37 14 0 19 -7 19 -25 0 -16 6 -25 15 -25 13 0 13 3 3 20
-11 17 -10 22 0 29 20 12 -5 19 -43 12z"/>
<path d="M1824 3088 c-4 -6 0 -16 9 -23 22 -16 21 -22 0 -28 -16 -4 -16 -5 -1
-6 26 -2 33 20 12 36 -16 12 -17 15 -4 23 9 6 10 10 3 10 -6 0 -15 -5 -19 -12z"/>
<path d="M1870 3065 c0 -30 3 -35 23 -34 16 1 18 2 5 6 -21 5 -23 19 -5 26 10
4 10 6 0 6 -19 1 -16 19 5 24 13 4 11 5 -5 6 -20 1 -23 -4 -23 -34z"/>
<path d="M1938 3093 c7 -3 16 -2 19 1 4 3 -2 6 -13 5 -11 0 -14 -3 -6 -6z"/>
<path d="M1988 3093 c7 -3 16 -2 19 1 4 3 -2 6 -13 5 -11 0 -14 -3 -6 -6z"/>
<path d="M11348 3093 c7 -3 16 -2 19 1 4 3 -2 6 -13 5 -11 0 -14 -3 -6 -6z"/>
<path d="M11728 3093 c7 -3 16 -2 19 1 4 3 -2 6 -13 5 -11 0 -14 -3 -6 -6z"/>
<path d="M382 3060 c0 -19 2 -27 5 -17 2 9 2 25 0 35 -3 9 -5 1 -5 -18z"/>
<path d="M592 3060 c0 -19 2 -27 5 -17 2 9 2 25 0 35 -3 9 -5 1 -5 -18z"/>
<path d="M620 3058 c0 -15 5 -28 10 -28 6 0 10 9 10 20 0 11 5 20 10 20 6 0
10 4 10 9 0 6 -9 9 -20 8 -15 -1 -20 -8 -20 -29z"/>
<path d="M674 3076 c-10 -25 3 -46 28 -45 23 0 23 0 -2 11 l-25 11 23 5 c13 2
21 9 19 15 -6 19 -36 20 -43 3z"/>
<path d="M834 3075 c-9 -23 3 -45 25 -45 10 0 21 7 25 15 8 23 -4 45 -25 45
-11 0 -22 -7 -25 -15z m36 -15 c0 -11 -4 -20 -10 -20 -5 0 -10 9 -10 20 0 11
5 20 10 20 6 0 10 -9 10 -20z"/>
<path d="M901 3055 c1 -23 3 -25 6 -7 2 12 11 22 19 22 8 0 14 4 14 9 0 6 -9
9 -20 8 -16 -1 -20 -8 -19 -32z"/>
<path d="M10128 3083 c7 -3 16 -2 19 1 4 3 -2 6 -13 5 -11 0 -14 -3 -6 -6z"/>
<path d="M10178 3083 c7 -3 16 -2 19 1 4 3 -2 6 -13 5 -11 0 -14 -3 -6 -6z"/>
<path d="M10235 3080 c-3 -6 1 -7 9 -4 18 7 21 14 7 14 -6 0 -13 -4 -16 -10z"/>
<path d="M10283 3083 c21 -6 22 -20 2 -26 -11 -4 -10 -4 2 -3 10 1 19 9 21 19
3 12 -3 17 -20 16 -17 -1 -18 -3 -5 -6z"/>
<path d="M10348 3083 c7 -3 16 -2 19 1 4 3 -2 6 -13 5 -11 0 -14 -3 -6 -6z"/>
<path d="M1930 3066 c0 -2 7 -6 15 -10 8 -3 15 -1 15 4 0 6 -7 10 -15 10 -8 0
-15 -2 -15 -4z"/>
<path d="M10165 3060 c-8 -13 3 -30 18 -29 9 0 9 2 0 6 -18 7 -16 21 5 26 15
4 15 5 0 6 -9 0 -20 -3 -23 -9z"/>
<path d="M2048 3053 c7 -3 16 -2 19 1 4 3 -2 6 -13 5 -11 0 -14 -3 -6 -6z"/>
<path d="M1988 3033 c7 -3 16 -2 19 1 4 3 -2 6 -13 5 -11 0 -14 -3 -6 -6z"/>
<path d="M2098 3033 c7 -3 16 -2 19 1 4 3 -2 6 -13 5 -11 0 -14 -3 -6 -6z"/>
<path d="M10128 3033 c7 -3 16 -2 19 1 4 3 -2 6 -13 5 -11 0 -14 -3 -6 -6z"/>
<path d="M10278 3033 c6 -2 18 -2 25 0 6 3 1 5 -13 5 -14 0 -19 -2 -12 -5z"/>
<path d="M10348 3033 c7 -3 16 -2 19 1 4 3 -2 6 -13 5 -11 0 -14 -3 -6 -6z"/>
<path d="M478 3013 c6 -2 18 -2 25 0 6 3 1 5 -13 5 -14 0 -19 -2 -12 -5z"/>
<path d="M10268 3008 c5 -5 16 -8 23 -6 8 3 3 7 -10 11 -17 4 -21 3 -13 -5z"/>
<path d="M4000 2960 c0 -5 -6 -10 -14 -10 -8 0 -17 -4 -20 -9 -4 -5 3 -7 14
-4 16 4 20 0 20 -17 0 -17 -4 -21 -20 -17 -11 3 -18 1 -14 -4 3 -5 14 -9 25
-9 16 0 19 7 19 40 0 22 -2 40 -5 40 -3 0 -5 -4 -5 -10z"/>
<path d="M5290 2961 c0 -6 4 -13 10 -16 6 -3 7 1 4 9 -7 18 -14 21 -14 7z"/>
<path d="M5360 2936 c0 -20 2 -36 4 -36 8 0 12 61 4 66 -4 3 -8 -11 -8 -30z"/>
<path d="M6713 2958 c-5 -7 -6 -26 -2 -43 l7 -30 1 28 c0 15 1 30 0 33 0 4 5
11 13 15 8 5 9 9 2 9 -6 0 -16 -6 -21 -12z"/>
<path d="M7403 2958 c-5 -7 -6 -26 -2 -43 l7 -30 1 28 c0 15 1 30 0 33 0 4 5
11 13 15 8 5 9 9 2 9 -6 0 -16 -6 -21 -12z"/>
<path d="M3708 2943 c7 -3 16 -2 19 1 4 3 -2 6 -13 5 -11 0 -14 -3 -6 -6z"/>
<path d="M3827 2943 c-14 -13 -7 -23 16 -22 21 0 21 1 2 8 l-20 8 20 5 c13 4
15 6 4 7 -9 0 -19 -2 -22 -6z"/>
<path d="M4048 2943 c7 -3 16 -2 19 1 4 3 -2 6 -13 5 -11 0 -14 -3 -6 -6z"/>
<path d="M4097 2943 c-9 -8 12 -33 27 -33 6 0 2 6 -9 12 -19 11 -19 11 0 19
15 6 16 8 4 8 -9 1 -19 -2 -22 -6z"/>
<path d="M6747 2944 c-14 -14 -6 -24 19 -24 16 0 24 5 22 13 -5 14 -31 21 -41
11z m30 -10 c-3 -3 -12 -4 -19 -1 -8 3 -5 6 6 6 11 1 17 -2 13 -5z"/>
<path d="M6806 2941 c-4 -5 3 -7 14 -4 23 6 26 13 6 13 -8 0 -17 -4 -20 -9z"/>
<path d="M6878 2943 c7 -3 16 -2 19 1 4 3 -2 6 -13 5 -11 0 -14 -3 -6 -6z"/>
<path d="M6928 2943 c7 -3 16 -2 19 1 4 3 -2 6 -13 5 -11 0 -14 -3 -6 -6z"/>
<path d="M7070 2946 c0 -2 7 -7 16 -10 8 -3 12 -2 9 4 -6 10 -25 14 -25 6z"/>
<path d="M7158 2943 c7 -3 16 -2 19 1 4 3 -2 6 -13 5 -11 0 -14 -3 -6 -6z"/>
<path d="M7238 2943 c7 -3 16 -2 19 1 4 3 -2 6 -13 5 -11 0 -14 -3 -6 -6z"/>
<path d="M7348 2943 c7 -3 16 -2 19 1 4 3 -2 6 -13 5 -11 0 -14 -3 -6 -6z"/>
<path d="M7455 2941 c19 -8 18 -9 -5 -13 -24 -5 -24 -5 3 -7 32 -1 33 22 1 26
-18 3 -18 2 1 -6z"/>
<path d="M7506 2942 c-3 -5 8 -6 25 -4 16 2 29 6 29 8 0 8 -49 4 -54 -4z"/>
<path d="M7588 2943 c7 -3 16 -2 19 1 4 3 -2 6 -13 5 -11 0 -14 -3 -6 -6z"/>
<path d="M5391 2923 c7 -12 15 -20 18 -17 3 2 -3 12 -13 22 -17 16 -18 16 -5
-5z"/>
<path d="M3695 2920 c-8 -13 3 -30 18 -29 9 0 9 2 0 6 -18 7 -16 21 5 26 15 4
15 5 0 6 -9 0 -20 -3 -23 -9z"/>
<path d="M6938 2923 c7 -3 16 -2 19 1 4 3 -2 6 -13 5 -11 0 -14 -3 -6 -6z"/>
<path d="M7588 2923 c6 -2 18 -2 25 0 6 3 1 5 -13 5 -14 0 -19 -2 -12 -5z"/>
<path d="M8538 2923 c7 -3 16 -2 19 1 4 3 -2 6 -13 5 -11 0 -14 -3 -6 -6z"/>
<path d="M3828 2898 c5 -5 16 -8 23 -6 8 3 3 7 -10 11 -17 4 -21 3 -13 -5z"/>
<path d="M6748 2898 c5 -5 16 -8 23 -6 8 3 3 7 -10 11 -17 4 -21 3 -13 -5z"/>
<path d="M6808 2898 c5 -5 16 -8 23 -6 8 3 3 7 -10 11 -17 4 -21 3 -13 -5z"/>
<path d="M6935 2900 c-16 -7 -17 -9 -3 -9 9 -1 20 4 23 9 7 11 7 11 -20 0z"/>
<path d="M7595 2900 c-16 -7 -17 -9 -3 -9 9 -1 20 4 23 9 7 11 7 11 -20 0z"/>
<path d="M4048 2893 c7 -3 16 -2 19 1 4 3 -2 6 -13 5 -11 0 -14 -3 -6 -6z"/>
<path d="M4098 2893 c7 -3 16 -2 19 1 4 3 -2 6 -13 5 -11 0 -14 -3 -6 -6z"/>
<path d="M7158 2893 c7 -3 16 -2 19 1 4 3 -2 6 -13 5 -11 0 -14 -3 -6 -6z"/>
<path d="M7238 2893 c7 -3 16 -2 19 1 4 3 -2 6 -13 5 -11 0 -14 -3 -6 -6z"/>
<path d="M7348 2893 c7 -3 16 -2 19 1 4 3 -2 6 -13 5 -11 0 -14 -3 -6 -6z"/>
<path d="M7448 2893 c6 -2 18 -2 25 0 6 3 1 5 -13 5 -14 0 -19 -2 -12 -5z"/>
<path d="M6983 2873 c9 -2 23 -2 30 0 6 3 -1 5 -18 5 -16 0 -22 -2 -12 -5z"/>
<path d="M7288 2873 c6 -2 18 -2 25 0 6 3 1 5 -13 5 -14 0 -19 -2 -12 -5z"/>
<path d="M680 2840 c0 -5 -6 -10 -14 -10 -8 0 -17 -4 -20 -9 -4 -5 3 -7 14 -4
16 4 20 0 20 -17 0 -17 -4 -21 -20 -17 -11 3 -18 1 -14 -4 3 -5 14 -9 25 -9
16 0 19 7 19 40 0 22 -2 40 -5 40 -3 0 -5 -4 -5 -10z"/>
<path d="M1598 2833 c7 -3 16 -2 19 1 4 3 -2 6 -13 5 -11 0 -14 -3 -6 -6z"/>
<path d="M1991 2810 c29 -45 29 -45 29 -34 0 5 -12 23 -26 39 l-26 30 23 -35z"/>
<path d="M2040 2805 c0 -19 2 -35 4 -35 2 0 6 16 8 35 2 19 0 35 -4 35 -4 0
-8 -16 -8 -35z"/>
<path d="M2090 2813 c0 -26 -1 -26 -16 -7 -15 18 -15 18 -4 -3 17 -37 30 -37
30 1 0 20 -2 36 -5 36 -3 0 -5 -12 -5 -27z"/>
<path d="M11348 2833 c7 -3 16 -2 19 1 4 3 -2 6 -13 5 -11 0 -14 -3 -6 -6z"/>
<path d="M11728 2833 c7 -3 16 -2 19 1 4 3 -2 6 -13 5 -11 0 -14 -3 -6 -6z"/>
<path d="M388 2823 c7 -3 16 -2 19 1 4 3 -2 6 -13 5 -11 0 -14 -3 -6 -6z"/>
<path d="M446 2821 c-4 -5 3 -7 14 -4 23 6 26 13 6 13 -8 0 -17 -4 -20 -9z"/>
<path d="M507 2824 c-14 -14 -6 -24 19 -24 16 0 24 5 22 13 -5 14 -31 21 -41
11z m30 -10 c-3 -3 -12 -4 -19 -1 -8 3 -5 6 6 6 11 1 17 -2 13 -5z"/>
<path d="M728 2823 c7 -3 16 -2 19 1 4 3 -2 6 -13 5 -11 0 -14 -3 -6 -6z"/>
<path d="M777 2823 c-9 -8 12 -33 27 -33 6 0 2 6 -9 12 -19 11 -19 11 0 19 15
6 16 8 4 8 -9 1 -19 -2 -22 -6z"/>
<path d="M10128 2823 c7 -3 16 -2 19 1 4 3 -2 6 -13 5 -11 0 -14 -3 -6 -6z"/>
<path d="M10178 2823 c7 -3 16 -2 19 1 4 3 -2 6 -13 5 -11 0 -14 -3 -6 -6z"/>
<path d="M10398 2823 c7 -3 16 -2 19 1 4 3 -2 6 -13 5 -11 0 -14 -3 -6 -6z"/>
<path d="M388 2803 c6 -2 18 -2 25 0 6 3 1 5 -13 5 -14 0 -19 -2 -12 -5z"/>
<path d="M10328 2803 c6 -2 18 -2 25 0 6 3 1 5 -13 5 -14 0 -19 -2 -12 -5z"/>
<path d="M395 2780 c-16 -7 -17 -9 -3 -9 9 -1 20 4 23 9 7 11 7 11 -20 0z"/>
<path d="M440 2779 c0 -5 9 -9 20 -9 11 0 20 2 20 4 0 2 -9 6 -20 9 -11 3 -20
1 -20 -4z"/>
<path d="M508 2778 c5 -5 16 -8 23 -6 8 3 3 7 -10 11 -17 4 -21 3 -13 -5z"/>
<path d="M10328 2778 c5 -5 16 -8 23 -6 8 3 3 7 -10 11 -17 4 -21 3 -13 -5z"/>
<path d="M728 2773 c7 -3 16 -2 19 1 4 3 -2 6 -13 5 -11 0 -14 -3 -6 -6z"/>
<path d="M778 2773 c7 -3 16 -2 19 1 4 3 -2 6 -13 5 -11 0 -14 -3 -6 -6z"/>
<path d="M10128 2773 c7 -3 16 -2 19 1 4 3 -2 6 -13 5 -11 0 -14 -3 -6 -6z"/>
<path d="M10178 2773 c7 -3 16 -2 19 1 4 3 -2 6 -13 5 -11 0 -14 -3 -6 -6z"/>
<path d="M10398 2773 c7 -3 16 -2 19 1 4 3 -2 6 -13 5 -11 0 -14 -3 -6 -6z"/>
<path d="M5331 2687 c0 -18 -5 -26 -12 -21 -6 4 -5 -3 2 -17 l14 -24 3 23 c2
12 1 32 -1 45 -4 18 -4 17 -6 -6z"/>
<path d="M5360 2671 c0 -23 2 -41 4 -41 8 0 12 71 4 76 -4 3 -8 -13 -8 -35z"/>
<path d="M6713 2698 c-5 -7 -6 -26 -2 -43 l7 -30 1 28 c0 15 1 30 0 33 0 4 5
11 13 15 8 5 9 9 2 9 -6 0 -16 -6 -21 -12z"/>
<path d="M5410 2673 c0 -26 -1 -26 -16 -7 -15 18 -15 18 -4 -3 17 -37 30 -37
30 1 0 20 -2 36 -5 36 -3 0 -5 -12 -5 -27z"/>
<path d="M3718 2683 c7 -3 16 -2 19 1 4 3 -2 6 -13 5 -11 0 -14 -3 -6 -6z"/>
<path d="M3766 2681 c-4 -5 3 -7 14 -4 23 6 26 13 6 13 -8 0 -17 -4 -20 -9z"/>
<path d="M3840 2686 c0 -2 7 -7 16 -10 8 -3 12 -2 9 4 -6 10 -25 14 -25 6z"/>
<path d="M4055 2681 c19 -8 18 -9 -5 -13 -24 -5 -24 -5 3 -7 32 -1 33 22 1 26
-18 3 -18 2 1 -6z"/>
<path d="M4095 2681 c-3 -5 0 -13 6 -17 7 -4 9 -3 5 4 -3 6 2 13 11 15 16 4
16 5 1 6 -9 0 -19 -3 -23 -8z"/>
<path d="M6747 2684 c-14 -14 -6 -24 19 -24 16 0 24 5 22 13 -5 14 -31 21 -41
11z m30 -10 c-3 -3 -12 -4 -19 -1 -8 3 -5 6 6 6 11 1 17 -2 13 -5z"/>
<path d="M6806 2681 c-4 -5 3 -7 14 -4 23 6 26 13 6 13 -8 0 -17 -4 -20 -9z"/>
<path d="M6878 2683 c7 -3 16 -2 19 1 4 3 -2 6 -13 5 -11 0 -14 -3 -6 -6z"/>
<path d="M6928 2683 c7 -3 16 -2 19 1 4 3 -2 6 -13 5 -11 0 -14 -3 -6 -6z"/>
<path d="M7028 2683 c7 -3 16 -2 19 1 4 3 -2 6 -13 5 -11 0 -14 -3 -6 -6z"/>
<path d="M7085 2681 c19 -8 18 -9 -5 -13 -24 -5 -24 -5 3 -7 32 -1 33 22 1 26
-18 3 -18 2 1 -6z"/>
<path d="M7135 2680 c-3 -6 1 -7 9 -4 18 7 21 14 7 14 -6 0 -13 -4 -16 -10z"/>
<path d="M7176 2681 c-4 -5 3 -7 14 -4 23 6 26 13 6 13 -8 0 -17 -4 -20 -9z"/>
<path d="M7318 2683 c7 -3 16 -2 19 1 4 3 -2 6 -13 5 -11 0 -14 -3 -6 -6z"/>
<path d="M7366 2681 c-4 -5 3 -7 14 -4 23 6 26 13 6 13 -8 0 -17 -4 -20 -9z"/>
<path d="M7476 2681 c-4 -5 3 -7 14 -4 23 6 26 13 6 13 -8 0 -17 -4 -20 -9z"/>
<path d="M7538 2683 c7 -3 16 -2 19 1 4 3 -2 6 -13 5 -11 0 -14 -3 -6 -6z"/>
<path d="M7577 2683 c-14 -13 -7 -23 16 -22 21 0 21 1 2 8 l-20 8 20 5 c13 4
15 6 4 7 -9 0 -19 -2 -22 -6z"/>
<path d="M7678 2683 c7 -3 16 -2 19 1 4 3 -2 6 -13 5 -11 0 -14 -3 -6 -6z"/>
<path d="M7728 2683 c7 -3 16 -2 19 1 4 3 -2 6 -13 5 -11 0 -14 -3 -6 -6z"/>
<path d="M3902 2650 c0 -14 2 -19 5 -12 2 6 2 18 0 25 -3 6 -5 1 -5 -13z"/>
<path d="M6938 2663 c7 -3 16 -2 19 1 4 3 -2 6 -13 5 -11 0 -14 -3 -6 -6z"/>
<path d="M7242 2650 c0 -14 2 -19 5 -12 2 6 2 18 0 25 -3 6 -5 1 -5 -13z"/>
<path d="M7715 2660 c-8 -13 3 -30 18 -29 9 0 9 2 0 6 -18 7 -16 21 5 26 15 4
15 5 0 6 -9 0 -20 -3 -23 -9z"/>
<path d="M8538 2663 c7 -3 16 -2 19 1 4 3 -2 6 -13 5 -11 0 -14 -3 -6 -6z"/>
<path d="M3768 2638 c5 -5 16 -8 23 -6 8 3 3 7 -10 11 -17 4 -21 3 -13 -5z"/>
<path d="M6748 2638 c5 -5 16 -8 23 -6 8 3 3 7 -10 11 -17 4 -21 3 -13 -5z"/>
<path d="M6808 2638 c5 -5 16 -8 23 -6 8 3 3 7 -10 11 -17 4 -21 3 -13 -5z"/>
<path d="M6935 2640 c-16 -7 -17 -9 -3 -9 9 -1 20 4 23 9 7 11 7 11 -20 0z"/>
<path d="M7368 2638 c5 -5 16 -8 23 -6 8 3 3 7 -10 11 -17 4 -21 3 -13 -5z"/>
<path d="M7478 2638 c5 -5 16 -8 23 -6 8 3 3 7 -10 11 -17 4 -21 3 -13 -5z"/>
<path d="M7578 2638 c5 -5 16 -8 23 -6 8 3 3 7 -10 11 -17 4 -21 3 -13 -5z"/>
<path d="M4048 2633 c6 -2 18 -2 25 0 6 3 1 5 -13 5 -14 0 -19 -2 -12 -5z"/>
<path d="M4098 2633 c7 -3 16 -2 19 1 4 3 -2 6 -13 5 -11 0 -14 -3 -6 -6z"/>
<path d="M7078 2633 c6 -2 18 -2 25 0 6 3 1 5 -13 5 -14 0 -19 -2 -12 -5z"/>
<path d="M6983 2613 c9 -2 23 -2 30 0 6 3 -1 5 -18 5 -16 0 -22 -2 -12 -5z"/>
<path d="M7428 2613 c6 -2 18 -2 25 0 6 3 1 5 -13 5 -14 0 -19 -2 -12 -5z"/>
<path d="M10303 2578 c-5 -7 -6 -26 -2 -43 l7 -30 1 28 c0 15 1 30 0 33 0 4 5
11 13 15 8 5 9 9 2 9 -6 0 -16 -6 -21 -12z"/>
<path d="M1598 2573 c7 -3 16 -2 19 1 4 3 -2 6 -13 5 -11 0 -14 -3 -6 -6z"/>
<path d="M2043 2545 c0 -22 2 -30 4 -17 2 12 2 30 0 40 -3 9 -5 -1 -4 -23z"/>
<path d="M2091 2557 c-1 -20 -5 -26 -13 -21 -8 5 -7 0 2 -11 14 -18 15 -18 18
3 2 12 1 30 -1 40 -3 10 -5 6 -6 -11z"/>
<path d="M11618 2573 c7 -3 16 -2 19 1 4 3 -2 6 -13 5 -11 0 -14 -3 -6 -6z"/>
<path d="M11728 2573 c7 -3 16 -2 19 1 4 3 -2 6 -13 5 -11 0 -14 -3 -6 -6z"/>
<path d="M386 2561 c-4 -5 3 -7 14 -4 23 6 26 13 6 13 -8 0 -17 -4 -20 -9z"/>
<path d="M446 2561 c-4 -5 3 -7 14 -4 23 6 26 13 6 13 -8 0 -17 -4 -20 -9z"/>
<path d="M516 2561 c-4 -5 3 -7 14 -4 23 6 26 13 6 13 -8 0 -17 -4 -20 -9z"/>
<path d="M735 2561 c19 -8 18 -9 -5 -13 -24 -5 -24 -5 3 -7 32 -1 33 22 1 26
-18 3 -18 2 1 -6z"/>
<path d="M775 2561 c-3 -5 0 -13 6 -17 7 -4 9 -3 5 4 -3 6 2 13 11 15 16 4 16
5 1 6 -9 0 -19 -3 -23 -8z"/>
<path d="M10118 2563 c7 -3 16 -2 19 1 4 3 -2 6 -13 5 -11 0 -14 -3 -6 -6z"/>
<path d="M10157 2564 c-14 -14 -6 -24 19 -24 16 0 24 5 22 13 -5 14 -31 21
-41 11z m30 -10 c-3 -3 -12 -4 -19 -1 -8 3 -5 6 6 6 11 1 17 -2 13 -5z"/>
<path d="M10247 2563 c-14 -13 -7 -23 16 -22 21 0 21 1 2 8 l-20 8 20 5 c13 4
15 6 4 7 -9 0 -19 -2 -22 -6z"/>
<path d="M10348 2563 c7 -3 16 -2 19 1 4 3 -2 6 -13 5 -11 0 -14 -3 -6 -6z"/>
<path d="M10407 2563 c-3 -5 5 -8 18 -8 13 0 21 3 18 8 -2 4 -10 7 -18 7 -8 0
-16 -3 -18 -7z"/>
<path d="M10478 2563 c7 -3 16 -2 19 1 4 3 -2 6 -13 5 -11 0 -14 -3 -6 -6z"/>
<path d="M582 2530 c0 -14 2 -19 5 -12 2 6 2 18 0 25 -3 6 -5 1 -5 -13z"/>
<path d="M448 2518 c5 -5 16 -8 23 -6 8 3 3 7 -10 11 -17 4 -21 3 -13 -5z"/>
<path d="M10158 2518 c5 -5 16 -8 23 -6 8 3 3 7 -10 11 -17 4 -21 3 -13 -5z"/>
<path d="M10248 2518 c5 -5 16 -8 23 -6 8 3 3 7 -10 11 -17 4 -21 3 -13 -5z"/>
<path d="M728 2513 c6 -2 18 -2 25 0 6 3 1 5 -13 5 -14 0 -19 -2 -12 -5z"/>
<path d="M778 2513 c7 -3 16 -2 19 1 4 3 -2 6 -13 5 -11 0 -14 -3 -6 -6z"/>
<path d="M10348 2513 c7 -3 16 -2 19 1 4 3 -2 6 -13 5 -11 0 -14 -3 -6 -6z"/>
<path d="M10478 2513 c7 -3 16 -2 19 1 4 3 -2 6 -13 5 -11 0 -14 -3 -6 -6z"/>
<path d="M6713 2438 c-5 -7 -6 -26 -2 -43 l7 -30 1 28 c0 15 1 30 0 33 0 4 5
11 13 15 8 5 9 9 2 9 -6 0 -16 -6 -21 -12z"/>
<path d="M5148 2433 c7 -3 16 -2 19 1 4 3 -2 6 -13 5 -11 0 -14 -3 -6 -6z"/>
<path d="M3708 2423 c7 -3 16 -2 19 1 4 3 -2 6 -13 5 -11 0 -14 -3 -6 -6z"/>
<path d="M3768 2423 c7 -3 16 -2 19 1 4 3 -2 6 -13 5 -11 0 -14 -3 -6 -6z"/>
<path d="M3865 2420 c-3 -6 1 -7 9 -4 18 7 21 14 7 14 -6 0 -13 -4 -16 -10z"/>
<path d="M3907 2423 c-14 -13 -7 -23 16 -22 21 0 21 1 2 8 l-20 8 20 5 c13 4
15 6 4 7 -9 0 -19 -2 -22 -6z"/>
<path d="M3966 2421 c-4 -5 3 -7 14 -4 23 6 26 13 6 13 -8 0 -17 -4 -20 -9z"/>
<path d="M6747 2424 c-14 -14 -6 -24 19 -24 16 0 24 5 22 13 -5 14 -31 21 -41
11z m30 -10 c-3 -3 -12 -4 -19 -1 -8 3 -5 6 6 6 11 1 17 -2 13 -5z"/>
<path d="M6806 2421 c-4 -5 3 -7 14 -4 23 6 26 13 6 13 -8 0 -17 -4 -20 -9z"/>
<path d="M6878 2423 c7 -3 16 -2 19 1 4 3 -2 6 -13 5 -11 0 -14 -3 -6 -6z"/>
<path d="M6928 2423 c7 -3 16 -2 19 1 4 3 -2 6 -13 5 -11 0 -14 -3 -6 -6z"/>
<path d="M7070 2426 c0 -2 7 -7 16 -10 8 -3 12 -2 9 4 -6 10 -25 14 -25 6z"/>
<path d="M7158 2423 c7 -3 16 -2 19 1 4 3 -2 6 -13 5 -11 0 -14 -3 -6 -6z"/>
<path d="M7238 2423 c7 -3 16 -2 19 1 4 3 -2 6 -13 5 -11 0 -14 -3 -6 -6z"/>
<path d="M7458 2423 c7 -3 16 -2 19 1 4 3 -2 6 -13 5 -11 0 -14 -3 -6 -6z"/>
<path d="M7506 2421 c-4 -5 3 -7 14 -4 23 6 26 13 6 13 -8 0 -17 -4 -20 -9z"/>
<path d="M7558 2423 c7 -3 16 -2 19 1 4 3 -2 6 -13 5 -11 0 -14 -3 -6 -6z"/>
<path d="M7626 2421 c-4 -5 3 -7 14 -4 23 6 26 13 6 13 -8 0 -17 -4 -20 -9z"/>
<path d="M7688 2423 c7 -3 16 -2 19 1 4 3 -2 6 -13 5 -11 0 -14 -3 -6 -6z"/>
<path d="M6938 2403 c7 -3 16 -2 19 1 4 3 -2 6 -13 5 -11 0 -14 -3 -6 -6z"/>
<path d="M7445 2400 c-8 -13 3 -30 18 -29 9 0 9 2 0 6 -18 7 -16 21 5 26 15 4
15 5 0 6 -9 0 -20 -3 -23 -9z"/>
<path d="M7675 2400 c-8 -13 3 -30 18 -29 9 0 9 2 0 6 -18 7 -16 21 5 26 15 4
15 5 0 6 -9 0 -20 -3 -23 -9z"/>
<path d="M8538 2403 c7 -3 16 -2 19 1 4 3 -2 6 -13 5 -11 0 -14 -3 -6 -6z"/>
<path d="M3908 2378 c5 -5 16 -8 23 -6 8 3 3 7 -10 11 -17 4 -21 3 -13 -5z"/>
<path d="M3968 2378 c5 -5 16 -8 23 -6 8 3 3 7 -10 11 -17 4 -21 3 -13 -5z"/>
<path d="M6748 2378 c5 -5 16 -8 23 -6 8 3 3 7 -10 11 -17 4 -21 3 -13 -5z"/>
<path d="M6808 2378 c5 -5 16 -8 23 -6 8 3 3 7 -10 11 -17 4 -21 3 -13 -5z"/>
<path d="M6935 2380 c-16 -7 -17 -9 -3 -9 9 -1 20 4 23 9 7 11 7 11 -20 0z"/>
<path d="M7508 2378 c5 -5 16 -8 23 -6 8 3 3 7 -10 11 -17 4 -21 3 -13 -5z"/>
<path d="M7628 2378 c5 -5 16 -8 23 -6 8 3 3 7 -10 11 -17 4 -21 3 -13 -5z"/>
<path d="M3708 2373 c7 -3 16 -2 19 1 4 3 -2 6 -13 5 -11 0 -14 -3 -6 -6z"/>
<path d="M3768 2373 c7 -3 16 -2 19 1 4 3 -2 6 -13 5 -11 0 -14 -3 -6 -6z"/>
<path d="M7158 2373 c7 -3 16 -2 19 1 4 3 -2 6 -13 5 -11 0 -14 -3 -6 -6z"/>
<path d="M7238 2373 c7 -3 16 -2 19 1 4 3 -2 6 -13 5 -11 0 -14 -3 -6 -6z"/>
<path d="M6983 2353 c9 -2 23 -2 30 0 6 3 -1 5 -18 5 -16 0 -22 -2 -12 -5z"/>
<path d="M7288 2353 c6 -2 18 -2 25 0 6 3 1 5 -13 5 -14 0 -19 -2 -12 -5z"/>
<path d="M1828 2303 c7 -3 16 -2 19 1 4 3 -2 6 -13 5 -11 0 -14 -3 -6 -6z"/>
<path d="M2048 2303 c7 -3 16 -2 19 1 4 3 -2 6 -13 5 -11 0 -14 -3 -6 -6z"/>
<path d="M448 2293 c7 -3 16 -2 19 1 4 3 -2 6 -13 5 -11 0 -14 -3 -6 -6z"/>
<path d="M545 2290 c-3 -6 1 -7 9 -4 18 7 21 14 7 14 -6 0 -13 -4 -16 -10z"/>
<path d="M587 2293 c-14 -13 -7 -23 16 -22 21 0 21 1 2 8 l-20 8 20 5 c13 4
15 6 4 7 -9 0 -19 -2 -22 -6z"/>
<path d="M646 2291 c-4 -5 3 -7 14 -4 23 6 26 13 6 13 -8 0 -17 -4 -20 -9z"/>
<path d="M588 2248 c5 -5 16 -8 23 -6 8 3 3 7 -10 11 -17 4 -21 3 -13 -5z"/>
<path d="M648 2248 c5 -5 16 -8 23 -6 8 3 3 7 -10 11 -17 4 -21 3 -13 -5z"/>
<path d="M10027 2253 c-4 -3 -7 -62 -7 -130 l0 -123 905 0 905 0 0 130 0 130
-898 0 c-494 0 -902 -3 -905 -7z m373 -86 c0 -8 17 -11 58 -9 59 2 59 2 60
-27 l1 -30 -204 0 c-168 0 -204 3 -209 15 -12 30 5 43 60 44 30 1 62 2 72 2 9
0 42 -1 71 -2 35 -2 56 1 59 8 5 16 32 15 32 -1z"/>
<path d="M10250 2136 c0 -24 17 -28 23 -6 3 13 0 20 -9 20 -8 0 -14 -6 -14
-14z"/>
<path d="M10134 2121 c3 -5 15 -7 26 -4 28 7 25 13 -6 13 -14 0 -23 -4 -20 -9z"/>
<path d="M448 2243 c7 -3 16 -2 19 1 4 3 -2 6 -13 5 -11 0 -14 -3 -6 -6z"/>
<path d="M3883 2168 c-5 -7 -6 -26 -2 -43 l7 -30 1 28 c0 15 1 30 0 33 0 4 5
11 13 15 8 5 9 9 2 9 -6 0 -16 -6 -21 -12z"/>
<path d="M6713 2168 c-5 -7 -6 -26 -2 -43 l7 -30 1 28 c0 15 1 30 0 33 0 4 5
11 13 15 8 5 9 9 2 9 -6 0 -16 -6 -21 -12z"/>
<path d="M5198 2163 c7 -3 16 -2 19 1 4 3 -2 6 -13 5 -11 0 -14 -3 -6 -6z"/>
<path d="M3698 2153 c7 -3 16 -2 19 1 4 3 -2 6 -13 5 -11 0 -14 -3 -6 -6z"/>
<path d="M3755 2151 c19 -8 18 -9 -5 -13 -24 -5 -24 -5 3 -7 32 -1 33 22 1 26
-18 3 -18 2 1 -6z"/>
<path d="M3827 2153 c-14 -13 -7 -23 16 -22 21 0 21 1 2 8 l-20 8 20 5 c13 4
15 6 4 7 -9 0 -19 -2 -22 -6z"/>
<path d="M3938 2153 c7 -3 16 -2 19 1 4 3 -2 6 -13 5 -11 0 -14 -3 -6 -6z"/>
<path d="M4000 2156 c0 -2 7 -7 16 -10 8 -3 12 -2 9 4 -6 10 -25 14 -25 6z"/>
<path d="M4068 2153 c7 -3 16 -2 19 1 4 3 -2 6 -13 5 -11 0 -14 -3 -6 -6z"/>
<path d="M6747 2154 c-14 -14 -6 -24 19 -24 16 0 24 5 22 13 -5 14 -31 21 -41
11z m30 -10 c-3 -3 -12 -4 -19 -1 -8 3 -5 6 6 6 11 1 17 -2 13 -5z"/>
<path d="M6806 2151 c-4 -5 3 -7 14 -4 23 6 26 13 6 13 -8 0 -17 -4 -20 -9z"/>
<path d="M6878 2153 c7 -3 16 -2 19 1 4 3 -2 6 -13 5 -11 0 -14 -3 -6 -6z"/>
<path d="M6928 2153 c7 -3 16 -2 19 1 4 3 -2 6 -13 5 -11 0 -14 -3 -6 -6z"/>
<path d="M7028 2153 c7 -3 16 -2 19 1 4 3 -2 6 -13 5 -11 0 -14 -3 -6 -6z"/>
<path d="M7085 2151 c19 -8 18 -9 -5 -13 -24 -5 -24 -5 3 -7 32 -1 33 22 1 26
-18 3 -18 2 1 -6z"/>
<path d="M7135 2150 c-3 -6 1 -7 9 -4 18 7 21 14 7 14 -6 0 -13 -4 -16 -10z"/>
<path d="M7176 2151 c-4 -5 3 -7 14 -4 23 6 26 13 6 13 -8 0 -17 -4 -20 -9z"/>
<path d="M7318 2153 c7 -3 16 -2 19 1 4 3 -2 6 -13 5 -11 0 -14 -3 -6 -6z"/>
<path d="M7366 2151 c-4 -5 3 -7 14 -4 23 6 26 13 6 13 -8 0 -17 -4 -20 -9z"/>
<path d="M7476 2151 c-3 -5 3 -7 14 -4 16 4 20 0 20 -17 0 -17 -4 -21 -20 -17
-11 3 -20 1 -20 -5 0 -5 10 -8 23 -6 16 2 22 10 22 28 0 25 -27 40 -39 21z"/>
<path d="M7545 2150 c-3 -6 1 -7 9 -4 18 7 21 14 7 14 -6 0 -13 -4 -16 -10z"/>
<path d="M7588 2153 c7 -3 16 -2 19 1 4 3 -2 6 -13 5 -11 0 -14 -3 -6 -6z"/>
<path d="M7646 2152 c-2 -4 11 -6 30 -4 19 2 34 6 34 8 0 8 -59 4 -64 -4z"/>
<path d="M7768 2153 c7 -3 16 -2 19 1 4 3 -2 6 -13 5 -11 0 -14 -3 -6 -6z"/>
<path d="M7818 2153 c7 -3 16 -2 19 1 4 3 -2 6 -13 5 -11 0 -14 -3 -6 -6z"/>
<path d="M6938 2133 c7 -3 16 -2 19 1 4 3 -2 6 -13 5 -11 0 -14 -3 -6 -6z"/>
<path d="M7242 2120 c0 -14 2 -19 5 -12 2 6 2 18 0 25 -3 6 -5 1 -5 -13z"/>
<path d="M7598 2133 c7 -3 16 -2 19 1 4 3 -2 6 -13 5 -11 0 -14 -3 -6 -6z"/>
<path d="M7818 2133 c6 -2 18 -2 25 0 6 3 1 5 -13 5 -14 0 -19 -2 -12 -5z"/>
<path d="M8538 2133 c7 -3 16 -2 19 1 4 3 -2 6 -13 5 -11 0 -14 -3 -6 -6z"/>
<path d="M3828 2108 c5 -5 16 -8 23 -6 8 3 3 7 -10 11 -17 4 -21 3 -13 -5z"/>
<path d="M6748 2108 c5 -5 16 -8 23 -6 8 3 3 7 -10 11 -17 4 -21 3 -13 -5z"/>
<path d="M6808 2108 c5 -5 16 -8 23 -6 8 3 3 7 -10 11 -17 4 -21 3 -13 -5z"/>
<path d="M6935 2110 c-16 -7 -17 -9 -3 -9 9 -1 20 4 23 9 7 11 7 11 -20 0z"/>
<path d="M7368 2108 c5 -5 16 -8 23 -6 8 3 3 7 -10 11 -17 4 -21 3 -13 -5z"/>
<path d="M7595 2110 c-16 -7 -17 -9 -3 -9 9 -1 20 4 23 9 7 11 7 11 -20 0z"/>
<path d="M7648 2108 c5 -5 16 -8 23 -6 8 3 3 7 -10 11 -17 4 -21 3 -13 -5z"/>
<path d="M7825 2110 c-16 -7 -17 -9 -3 -9 9 -1 20 4 23 9 7 11 7 11 -20 0z"/>
<path d="M3748 2103 c6 -2 18 -2 25 0 6 3 1 5 -13 5 -14 0 -19 -2 -12 -5z"/>
<path d="M3938 2103 c7 -3 16 -2 19 1 4 3 -2 6 -13 5 -11 0 -14 -3 -6 -6z"/>
<path d="M4068 2103 c7 -3 16 -2 19 1 4 3 -2 6 -13 5 -11 0 -14 -3 -6 -6z"/>
<path d="M7078 2103 c6 -2 18 -2 25 0 6 3 1 5 -13 5 -14 0 -19 -2 -12 -5z"/>
<path d="M7768 2103 c7 -3 16 -2 19 1 4 3 -2 6 -13 5 -11 0 -14 -3 -6 -6z"/>
<path d="M6983 2083 c9 -2 23 -2 30 0 6 3 -1 5 -18 5 -16 0 -22 -2 -12 -5z"/>
<path d="M7428 2083 c6 -2 18 -2 25 0 6 3 1 5 -13 5 -14 0 -19 -2 -12 -5z"/>
<path d="M1668 2043 c7 -3 16 -2 19 1 4 3 -2 6 -13 5 -11 0 -14 -3 -6 -6z"/>
<path d="M1878 2043 c7 -3 16 -2 19 1 4 3 -2 6 -13 5 -11 0 -14 -3 -6 -6z"/>
<path d="M378 2033 c7 -3 16 -2 19 1 4 3 -2 6 -13 5 -11 0 -14 -3 -6 -6z"/>
<path d="M435 2031 c19 -8 18 -9 -5 -13 -24 -5 -24 -5 3 -7 32 -1 33 22 1 26
-18 3 -18 2 1 -6z"/>
<path d="M507 2034 c-14 -14 -6 -24 19 -24 16 0 24 5 22 13 -5 14 -31 21 -41
11z m30 -10 c-3 -3 -12 -4 -19 -1 -8 3 -5 6 6 6 11 1 17 -2 13 -5z"/>
<path d="M568 2033 c7 -3 16 -2 19 1 4 3 -2 6 -13 5 -11 0 -14 -3 -6 -6z"/>
<path d="M618 2033 c7 -3 16 -2 19 1 4 3 -2 6 -13 5 -11 0 -14 -3 -6 -6z"/>
<path d="M680 2036 c0 -2 7 -7 16 -10 8 -3 12 -2 9 4 -6 10 -25 14 -25 6z"/>
<path d="M748 2033 c7 -3 16 -2 19 1 4 3 -2 6 -13 5 -11 0 -14 -3 -6 -6z"/>
<path d="M380 1990 c0 -5 5 -10 11 -10 5 0 7 5 4 10 -3 6 -8 10 -11 10 -2 0
-4 -4 -4 -10z"/>
<path d="M508 1988 c5 -5 16 -8 23 -6 8 3 3 7 -10 11 -17 4 -21 3 -13 -5z"/>
<path d="M428 1983 c6 -2 18 -2 25 0 6 3 1 5 -13 5 -14 0 -19 -2 -12 -5z"/>
<path d="M618 1983 c7 -3 16 -2 19 1 4 3 -2 6 -13 5 -11 0 -14 -3 -6 -6z"/>
<path d="M748 1983 c7 -3 16 -2 19 1 4 3 -2 6 -13 5 -11 0 -14 -3 -6 -6z"/>
<path d="M10115 1920 c-3 -5 -1 -10 4 -10 6 0 11 5 11 10 0 6 -2 10 -4 10 -3
0 -8 -4 -11 -10z"/>
<path d="M7244 1906 c-3 -8 -4 -22 -2 -31 2 -10 -3 -20 -11 -23 -10 -3 -12 0
-8 12 4 9 2 16 -4 16 -6 0 -9 -8 -7 -17 2 -10 12 -18 23 -18 15 0 20 7 20 29
1 16 7 32 14 34 9 3 11 -2 6 -18 -5 -15 -4 -20 4 -16 6 4 11 16 11 27 0 22
-38 27 -46 5z"/>
<path d="M8481 1883 c2 -32 3 -33 6 -10 4 27 5 28 19 10 14 -17 14 -17 4 4
-18 38 -30 37 -29 -4z"/>
<path d="M8528 1885 c-2 -19 0 -35 4 -35 4 0 8 16 8 35 0 19 -2 35 -4 35 -2 0
-6 -16 -8 -35z"/>
<path d="M10180 1910 c0 -5 -6 -10 -14 -10 -8 0 -16 -7 -20 -15 -9 -25 4 -45
30 -43 21 2 24 7 24 40 0 21 -4 38 -10 38 -5 0 -10 -4 -10 -10z m0 -40 c0 -11
-4 -20 -10 -20 -5 0 -10 9 -10 20 0 11 5 20 10 20 6 0 10 -9 10 -20z"/>
<path d="M10520 1911 c0 -5 -9 -11 -21 -14 -32 -9 -22 -51 14 -55 26 -3 27 -1
27 37 0 23 -4 41 -10 41 -5 0 -10 -4 -10 -9z m0 -41 c0 -11 -4 -20 -10 -20 -5
0 -10 9 -10 20 0 11 5 20 10 20 6 0 10 -9 10 -20z"/>
<path d="M10660 1890 c-12 -17 -19 -36 -17 -43 4 -9 6 -8 6 1 1 8 10 27 22 43
11 16 18 29 15 29 -2 0 -14 -14 -26 -30z"/>
<path d="M10378 1904 c-3 -2 -3 -17 0 -34 3 -20 10 -30 21 -29 10 0 11 2 4 6
-16 6 -17 40 -1 45 8 3 6 6 -4 10 -9 4 -18 5 -20 2z"/>
<path d="M11508 1903 c7 -3 16 -2 19 1 4 3 -2 6 -13 5 -11 0 -14 -3 -6 -6z"/>
<path d="M11563 1903 c9 -2 17 -9 17 -14 0 -5 -8 -9 -17 -9 -15 0 -16 -2 -3
-10 10 -6 17 -5 23 6 10 18 0 34 -21 33 -15 -1 -15 -2 1 -6z"/>
<path d="M11618 1903 c7 -3 16 -2 19 1 4 3 -2 6 -13 5 -11 0 -14 -3 -6 -6z"/>
<path d="M11712 1878 c-2 -34 1 -38 21 -37 15 1 17 3 5 6 -10 2 -18 17 -21 36
-4 31 -4 31 -5 -5z"/>
<path d="M6740 1896 c0 -2 9 -6 20 -9 11 -3 20 -1 20 4 0 5 -9 9 -20 9 -11 0
-20 -2 -20 -4z"/>
<path d="M6918 1893 c7 -3 16 -2 19 1 4 3 -2 6 -13 5 -11 0 -14 -3 -6 -6z"/>
<path d="M6958 1893 c7 -3 16 -2 19 1 4 3 -2 6 -13 5 -11 0 -14 -3 -6 -6z"/>
<path d="M7008 1893 c7 -3 16 -2 19 1 4 3 -2 6 -13 5 -11 0 -14 -3 -6 -6z"/>
<path d="M7060 1896 c0 -2 9 -6 20 -9 11 -3 20 -1 20 4 0 5 -9 9 -20 9 -11 0
-20 -2 -20 -4z"/>
<path d="M7126 1891 c-4 -5 3 -7 14 -4 23 6 26 13 6 13 -8 0 -17 -4 -20 -9z"/>
<path d="M8430 1881 c5 -11 15 -23 21 -27 6 -3 3 5 -6 20 -20 30 -30 35 -15 7z"/>
<path d="M10110 1870 c0 -16 5 -30 10 -30 6 0 10 14 10 30 0 17 -4 30 -10 30
-5 0 -10 -13 -10 -30z"/>
<path d="M10256 1884 c-8 -20 10 -44 32 -44 13 0 12 3 -4 15 -18 14 -18 14 4
15 29 0 24 24 -5 28 -12 2 -23 -4 -27 -14z"/>
<path d="M10320 1886 c0 -8 8 -17 18 -21 16 -7 15 -8 -3 -15 -19 -8 -19 -9 3
-9 26 -1 30 26 5 36 -15 6 -15 7 3 14 17 7 17 8 -3 8 -13 1 -23 -5 -23 -13z"/>
<path d="M10435 1891 c17 -8 18 -10 3 -10 -11 -1 -18 -9 -18 -21 0 -15 6 -19
25 -18 21 2 25 7 23 28 -2 18 -9 26 -28 27 -23 2 -23 2 -5 -6z m15 -31 c0 -5
-4 -10 -10 -10 -5 0 -10 5 -10 10 0 6 5 10 10 10 6 0 10 -4 10 -10z"/>
<path d="M10554 1885 c-8 -21 2 -45 19 -45 8 0 20 7 27 15 10 12 10 18 0 30
-7 8 -19 15 -27 15 -7 0 -16 -7 -19 -15z m36 -15 c0 -11 -4 -20 -9 -20 -14 0
-23 18 -16 30 10 17 25 11 25 -10z"/>
<path d="M10720 1891 c0 -6 -11 -16 -25 -21 -14 -5 -25 -15 -24 -22 0 -10 2
-10 6 0 2 6 10 12 18 12 16 0 40 28 31 37 -3 3 -6 1 -6 -6z"/>
<path d="M6858 1873 c6 -2 18 -2 25 0 6 3 1 5 -13 5 -14 0 -19 -2 -12 -5z"/>
<path d="M6995 1870 c-8 -13 3 -30 18 -29 9 0 9 2 0 6 -18 7 -16 21 5 26 15 4
15 5 0 6 -9 0 -20 -3 -23 -9z"/>
<path d="M11508 1873 c7 -3 16 -2 19 1 4 3 -2 6 -13 5 -11 0 -14 -3 -6 -6z"/>
<path d="M11668 1863 c7 -3 16 -2 19 1 4 3 -2 6 -13 5 -11 0 -14 -3 -6 -6z"/>
<path d="M6755 1850 c-19 -8 -19 -9 3 -9 12 -1 22 4 22 9 0 6 -1 10 -2 9 -2 0
-12 -4 -23 -9z"/>
<path d="M6858 1848 c5 -5 16 -8 23 -6 8 3 3 7 -10 11 -17 4 -21 3 -13 -5z"/>
<path d="M6960 1850 c0 -5 5 -10 11 -10 5 0 7 5 4 10 -3 6 -8 10 -11 10 -2 0
-4 -4 -4 -10z"/>
<path d="M7075 1850 c-19 -8 -19 -9 3 -9 12 -1 22 4 22 9 0 6 -1 10 -2 9 -2 0
-12 -4 -23 -9z"/>
<path d="M7128 1848 c5 -5 16 -8 23 -6 8 3 3 7 -10 11 -17 4 -21 3 -13 -5z"/>
<path d="M6918 1843 c7 -3 16 -2 19 1 4 3 -2 6 -13 5 -11 0 -14 -3 -6 -6z"/>
<path d="M11508 1843 c7 -3 16 -2 19 1 4 3 -2 6 -13 5 -11 0 -14 -3 -6 -6z"/>
<path d="M11618 1843 c7 -3 16 -2 19 1 4 3 -2 6 -13 5 -11 0 -14 -3 -6 -6z"/>
<path d="M6803 1823 c9 -2 23 -2 30 0 6 3 -1 5 -18 5 -16 0 -22 -2 -12 -5z"/>
<path d="M10218 1823 c6 -2 18 -2 25 0 6 3 1 5 -13 5 -14 0 -19 -2 -12 -5z"/>
<path d="M8480 1615 c0 -19 2 -35 4 -35 2 0 6 16 8 35 2 19 0 35 -4 35 -4 0
-8 -16 -8 -35z"/>
<path d="M8530 1623 c0 -26 -1 -26 -16 -7 -15 18 -15 18 -4 -3 17 -37 30 -37
30 1 0 20 -2 36 -5 36 -3 0 -5 -12 -5 -27z"/>
<path d="M11058 1643 c7 -3 16 -2 19 1 4 3 -2 6 -13 5 -11 0 -14 -3 -6 -6z"/>
<path d="M11388 1643 c7 -3 16 -2 19 1 4 3 -2 6 -13 5 -11 0 -14 -3 -6 -6z"/>
<path d="M11591 1613 c2 -31 3 -33 6 -10 2 15 9 25 14 22 5 -3 6 1 3 9 -11 29
-24 16 -23 -21z"/>
<path d="M11640 1624 c0 -14 -4 -22 -10 -19 -6 3 -7 -1 -4 -9 11 -28 24 -17
24 19 0 19 -2 35 -5 35 -3 0 -5 -12 -5 -26z"/>
<path d="M11679 1635 c5 -11 16 -28 23 -38 13 -17 14 -15 15 20 0 23 -1 28 -4
14 l-5 -25 -20 25 c-13 17 -16 18 -9 4z"/>
<path d="M6740 1636 c0 -2 9 -6 20 -9 11 -3 20 -1 20 4 0 5 -9 9 -20 9 -11 0
-20 -2 -20 -4z"/>
<path d="M6916 1631 c-4 -5 3 -7 14 -4 23 6 26 13 6 13 -8 0 -17 -4 -20 -9z"/>
<path d="M6988 1633 c7 -3 16 -2 19 1 4 3 -2 6 -13 5 -11 0 -14 -3 -6 -6z"/>
<path d="M7121 1630 c10 -7 49 -2 49 5 0 2 -14 3 -31 3 -17 -1 -25 -4 -18 -8z"/>
<path d="M7197 1634 c-14 -14 -6 -24 19 -24 16 0 24 5 22 13 -5 14 -31 21 -41
11z m30 -10 c-3 -3 -12 -4 -19 -1 -8 3 -5 6 6 6 11 1 17 -2 13 -5z"/>
<path d="M7270 1636 c0 -2 7 -7 16 -10 8 -3 12 -2 9 4 -6 10 -25 14 -25 6z"/>
<path d="M7318 1633 c7 -3 16 -2 19 1 4 3 -2 6 -13 5 -11 0 -14 -3 -6 -6z"/>
<path d="M7368 1633 c7 -3 16 -2 19 1 4 3 -2 6 -13 5 -11 0 -14 -3 -6 -6z"/>
<path d="M7428 1633 c7 -3 16 -2 19 1 4 3 -2 6 -13 5 -11 0 -14 -3 -6 -6z"/>
<path d="M10138 1633 c7 -3 16 -2 19 1 4 3 -2 6 -13 5 -11 0 -14 -3 -6 -6z"/>
<path d="M10186 1631 c-4 -5 3 -7 14 -4 23 6 26 13 6 13 -8 0 -17 -4 -20 -9z"/>
<path d="M10260 1636 c0 -2 7 -7 16 -10 8 -3 12 -2 9 4 -6 10 -25 14 -25 6z"/>
<path d="M10350 1636 c0 -2 9 -6 20 -9 11 -3 18 -1 14 4 -5 9 -34 13 -34 5z"/>
<path d="M10415 1630 c-3 -6 1 -7 9 -4 18 7 21 14 7 14 -6 0 -13 -4 -16 -10z"/>
<path d="M10457 1634 c-14 -14 -6 -24 19 -24 16 0 24 5 22 13 -5 14 -31 21
-41 11z m30 -10 c-3 -3 -12 -4 -19 -1 -8 3 -5 6 6 6 11 1 17 -2 13 -5z"/>
<path d="M7420 1616 c0 -2 7 -7 16 -10 8 -3 12 -2 9 4 -6 10 -25 14 -25 6z"/>
<path d="M8440 1602 c6 -13 14 -21 18 -18 3 4 -2 14 -12 24 -18 16 -18 16 -6
-6z"/>
<path d="M10322 1600 c0 -14 2 -19 5 -12 2 6 2 18 0 25 -3 6 -5 1 -5 -13z"/>
<path d="M6755 1590 c-19 -8 -19 -9 3 -9 12 -1 22 4 22 9 0 6 -1 10 -2 9 -2 0
-12 -4 -23 -9z"/>
<path d="M6918 1588 c5 -5 16 -8 23 -6 8 3 3 7 -10 11 -17 4 -21 3 -13 -5z"/>
<path d="M7198 1588 c5 -5 16 -8 23 -6 8 3 3 7 -10 11 -17 4 -21 3 -13 -5z"/>
<path d="M7320 1590 c0 -5 5 -10 11 -10 5 0 7 5 4 10 -3 6 -8 10 -11 10 -2 0
-4 -4 -4 -10z"/>
<path d="M10188 1588 c5 -5 16 -8 23 -6 8 3 3 7 -10 11 -17 4 -21 3 -13 -5z"/>
<path d="M10370 1590 c-9 -6 -10 -10 -3 -10 6 0 15 5 18 10 8 12 4 12 -15 0z"/>
<path d="M10458 1588 c5 -5 16 -8 23 -6 8 3 3 7 -10 11 -17 4 -21 3 -13 -5z"/>
<path d="M6868 1583 c7 -3 16 -2 19 1 4 3 -2 6 -13 5 -11 0 -14 -3 -6 -6z"/>
<path d="M6988 1583 c7 -3 16 -2 19 1 4 3 -2 6 -13 5 -11 0 -14 -3 -6 -6z"/>
<path d="M7048 1583 c7 -3 16 -2 19 1 4 3 -2 6 -13 5 -11 0 -14 -3 -6 -6z"/>
<path d="M7368 1583 c7 -3 16 -2 19 1 4 3 -2 6 -13 5 -11 0 -14 -3 -6 -6z"/>
<path d="M7428 1583 c7 -3 16 -2 19 1 4 3 -2 6 -13 5 -11 0 -14 -3 -6 -6z"/>
<path d="M6803 1563 c9 -2 23 -2 30 0 6 3 -1 5 -18 5 -16 0 -22 -2 -12 -5z"/>
<path d="M6722 1188 c-8 -8 -12 -51 -12 -130 l0 -118 970 0 971 0 -3 128 -3
127 -955 3 c-735 2 -959 -1 -968 -10z m138 -80 c0 -10 38 -13 162 -11 210 3
288 3 369 3 l66 -1 1 -29 1 -30 -100 2 c-93 1 -99 2 -100 22 -2 20 -2 20 -6
-2 -4 -20 -10 -22 -64 -21 -53 1 -59 4 -60 23 -2 20 -2 20 -6 -2 -4 -22 -5
-22 -166 -20 -161 3 -162 3 -165 26 -3 17 2 25 17 29 12 3 21 9 21 14 0 5 7 9
15 9 8 0 15 -6 15 -12z"/>
<path d="M7320 1076 c0 -8 5 -18 10 -21 6 -3 10 3 10 14 0 12 -4 21 -10 21 -5
0 -10 -6 -10 -14z"/>
<path d="M6960 1064 c0 -8 5 -12 10 -9 6 3 10 10 10 16 0 5 -4 9 -10 9 -5 0
-10 -7 -10 -16z"/>
<path d="M7190 1060 c0 -5 7 -7 15 -4 8 4 15 8 15 10 0 2 -7 4 -15 4 -8 0 -15
-4 -15 -10z"/>
<path d="M6870 851 c0 -5 -9 -11 -21 -14 -32 -9 -22 -51 14 -55 26 -3 27 -1
27 37 0 23 -4 41 -10 41 -5 0 -10 -4 -10 -9z m0 -41 c0 -11 -4 -20 -10 -20 -5
0 -10 9 -10 20 0 11 5 20 10 20 6 0 10 -9 10 -20z"/>
<path d="M6980 850 c0 -5 -6 -10 -14 -10 -8 0 -16 -7 -20 -15 -9 -25 4 -45 30
-43 21 2 24 7 24 40 0 21 -4 38 -10 38 -5 0 -10 -4 -10 -10z m0 -40 c0 -11 -4
-20 -10 -20 -5 0 -10 9 -10 20 0 11 5 20 10 20 6 0 10 -9 10 -20z"/>
<path d="M7665 849 c-4 -6 -4 -13 -1 -16 3 -4 6 -1 6 5 0 7 7 12 16 12 8 0 12
-4 9 -10 -3 -5 1 -10 11 -10 13 0 14 3 4 15 -15 18 -36 20 -45 4z"/>
<path d="M7796 844 c-13 -13 -14 -19 -5 -31 10 -11 8 -15 -9 -20 -12 -3 -19
-9 -16 -14 8 -13 44 9 44 26 0 8 -5 15 -11 15 -8 0 -8 5 1 15 15 18 31 10 23
-10 -3 -8 -3 -15 0 -15 12 0 14 30 2 40 -10 8 -17 7 -29 -6z"/>
<path d="M7448 844 c-3 -2 -3 -17 0 -34 3 -20 10 -30 21 -29 10 0 11 2 4 6
-16 6 -17 40 -1 45 8 3 6 6 -4 10 -9 4 -18 5 -20 2z"/>
<path d="M8264 838 c-4 -6 0 -16 9 -23 22 -16 21 -22 0 -28 -16 -4 -16 -5 -1
-6 26 -2 33 20 12 36 -16 12 -17 15 -4 23 9 6 10 10 3 10 -6 0 -15 -5 -19 -12z"/>
<path d="M8310 815 c0 -30 3 -35 23 -34 16 1 18 2 5 6 -10 2 -18 8 -18 13 0 5
8 11 18 13 16 4 16 5 0 6 -10 0 -18 5 -18 10 0 5 8 12 18 14 13 4 11 5 -5 6
-20 1 -23 -4 -23 -34z"/>
<path d="M8378 843 c7 -3 16 -2 19 1 4 3 -2 6 -13 5 -11 0 -14 -3 -6 -6z"/>
<path d="M8428 843 c7 -3 16 -2 19 1 4 3 -2 6 -13 5 -11 0 -14 -3 -6 -6z"/>
<path d="M6800 810 c0 -16 5 -30 10 -30 6 0 10 14 10 30 0 17 -4 30 -10 30 -5
0 -10 -13 -10 -30z"/>
<path d="M7014 825 c-9 -23 3 -45 25 -45 10 0 21 7 25 15 8 23 -4 45 -25 45
-11 0 -22 -7 -25 -15z m36 -15 c0 -11 -4 -20 -10 -20 -5 0 -10 9 -10 20 0 11
5 20 10 20 6 0 10 -9 10 -20z"/>
<path d="M7084 825 c-9 -22 3 -45 23 -45 15 0 15 2 -3 15 -19 15 -19 15 0 30
18 13 18 15 3 15 -10 0 -20 -7 -23 -15z"/>
<path d="M7132 813 c2 -23 8 -28 31 -29 23 -1 27 3 27 27 0 16 -4 29 -10 29
-5 0 -10 -11 -10 -25 0 -14 -4 -25 -10 -25 -5 0 -10 11 -10 25 0 14 -5 25 -11
25 -6 0 -9 -12 -7 -27z"/>
<path d="M7211 806 c1 -27 2 -28 7 -8 4 13 12 23 17 23 6 0 13 -10 17 -23 6
-23 6 -23 7 -1 1 31 21 39 21 9 0 -14 5 -26 11 -26 6 0 9 12 7 28 -3 25 -7 27
-45 28 -42 0 -43 -1 -42 -30z"/>
<path d="M7314 826 c-10 -25 3 -46 28 -45 23 0 23 0 -2 11 l-25 11 23 5 c13 2
21 9 19 15 -6 19 -36 20 -43 3z"/>
<path d="M7370 811 c0 -17 5 -31 10 -31 6 0 10 11 10 25 0 14 5 25 10 25 6 0
10 -11 10 -25 0 -14 5 -25 11 -25 6 0 9 12 7 28 -2 21 -9 28 -30 30 -25 3 -28
0 -28 -27z"/>
<path d="M7494 825 c-8 -21 2 -45 19 -45 8 0 20 7 27 15 10 12 10 18 0 30 -7
8 -19 15 -27 15 -7 0 -16 -7 -19 -15z m36 -15 c0 -21 -15 -27 -25 -10 -7 12 2
30 16 30 5 0 9 -9 9 -20z"/>
<path d="M7556 831 c-3 -5 1 -15 10 -22 14 -12 14 -14 -3 -20 -16 -7 -16 -8 4
-8 29 -1 40 19 17 32 -17 10 -17 11 1 18 19 7 19 8 -2 8 -12 1 -24 -3 -27 -8z"/>
<path d="M7700 810 c-9 -6 -10 -10 -3 -10 6 0 15 5 18 10 8 12 4 12 -15 0z"/>
<path d="M8370 816 c0 -2 7 -6 15 -10 8 -3 15 -1 15 4 0 6 -7 10 -15 10 -8 0
-15 -2 -15 -4z"/>
<path d="M8488 803 c7 -3 16 -2 19 1 4 3 -2 6 -13 5 -11 0 -14 -3 -6 -6z"/>
<path d="M7656 785 c-11 -8 -15 -15 -9 -15 6 0 16 7 23 15 16 19 11 19 -14 0z"/>
<path d="M8428 783 c7 -3 16 -2 19 1 4 3 -2 6 -13 5 -11 0 -14 -3 -6 -6z"/>
<path d="M8538 783 c7 -3 16 -2 19 1 4 3 -2 6 -13 5 -11 0 -14 -3 -6 -6z"/>
<path d="M6903 763 c9 -2 23 -2 30 0 6 3 -1 5 -18 5 -16 0 -22 -2 -12 -5z"/>
<path d="M8268 573 c7 -3 16 -2 19 1 4 3 -2 6 -13 5 -11 0 -14 -3 -6 -6z"/>
<path d="M8488 573 c7 -3 16 -2 19 1 4 3 -2 6 -13 5 -11 0 -14 -3 -6 -6z"/>
<path d="M6808 563 c7 -3 16 -2 19 1 4 3 -2 6 -13 5 -11 0 -14 -3 -6 -6z"/>
<path d="M6868 563 c7 -3 16 -2 19 1 4 3 -2 6 -13 5 -11 0 -14 -3 -6 -6z"/>
<path d="M7006 561 c-4 -5 3 -7 14 -4 23 6 26 13 6 13 -8 0 -17 -4 -20 -9z"/>
<path d="M6870 520 c0 -5 5 -10 11 -10 5 0 7 5 4 10 -3 6 -8 10 -11 10 -2 0
-4 -4 -4 -10z"/>
<path d="M6925 520 c-19 -8 -19 -9 3 -9 12 -1 22 4 22 9 0 6 -1 10 -2 9 -2 0
-12 -4 -23 -9z"/>
<path d="M7008 518 c5 -5 16 -8 23 -6 8 3 3 7 -10 11 -17 4 -21 3 -13 -5z"/>
<path d="M8268 313 c7 -3 16 -2 19 1 4 3 -2 6 -13 5 -11 0 -14 -3 -6 -6z"/>
<path d="M8488 313 c7 -3 16 -2 19 1 4 3 -2 6 -13 5 -11 0 -14 -3 -6 -6z"/>
<path d="M6808 303 c7 -3 16 -2 19 1 4 3 -2 6 -13 5 -11 0 -14 -3 -6 -6z"/>
<path d="M6876 301 c-4 -5 3 -7 14 -4 23 6 26 13 6 13 -8 0 -17 -4 -20 -9z"/>
<path d="M6936 301 c-4 -5 3 -7 14 -4 23 6 26 13 6 13 -8 0 -17 -4 -20 -9z"/>
<path d="M6870 259 c0 -5 9 -9 20 -9 11 0 20 2 20 4 0 2 -9 6 -20 9 -11 3 -20
1 -20 -4z"/>
<path d="M6938 258 c5 -5 16 -8 23 -6 8 3 3 7 -10 11 -17 4 -21 3 -13 -5z"/>
</g>
</svg>
