<svg xmlns="http://www.w3.org/2000/svg" xmlns:xlink="http://www.w3.org/1999/xlink" xmlns:lucid="lucid" width="2644" height="1270.64"><g transform="translate(142 355.6432291666667)" lucid:page-tab-id="0_0"><path d="M-140-268a12 12 0 0 1 12-12h2616a12 12 0 0 1 12 12V901a12 12 0 0 1-12 12H-128a12 12 0 0 1-12-12z" stroke="#635dff" stroke-width="4" fill="#fff"/><path d="M-140-341.64a12 12 0 0 1 12-12H7.7a12 12 0 0 1 12 12V-304a12 12 0 0 1-12 12H-128a12 12 0 0 1-12-12z" stroke="#635dff" stroke-width="4" fill="#635dff"/><use xlink:href="#a" transform="matrix(1,0,0,1,-128,-341.6432291666667) translate(0 30.317274305555557)"/><path d="M529.3-188a12 12 0 0 1 12-12h448.1a12 12 0 0 1 12 12V50a12 12 0 0 1-12 12H541.3a12 12 0 0 1-12-12z" fill="#fff"/><path d="M529.3-160h472.1v38H529.3z" fill="#fff"/><path d="M529.3-123h472.1v38H529.3z" fill="#fff"/><path d="M529.3-86h472.1v38H529.3z" fill="#fff"/><path d="M529.3-49h472.1v38H529.3z" fill="#fff"/><path d="M529.3-12h472.1v38H529.3z" fill="#fff"/><path d="M529.3 25h472.1v25a12 12 0 0 1-12 12H541.3a12 12 0 0 1-12-12z" fill="#fff"/><path d="M530.3-160h470.1-470.1zM529.3-188a12 12 0 0 1 12-12h448.1a12 12 0 0 1 12 12V50a12 12 0 0 1-12 12H541.3a12 12 0 0 1-12-12zM589.3-159V61zM863.17-159V61z" stroke="#000" stroke-width="2" fill="none"/><use xlink:href="#b" transform="matrix(1,0,0,1,539.3030960648148,-200) translate(165.78493923611111 28.08376736111111)"/><use xlink:href="#c" transform="matrix(1,0,0,1,534.3030960648148,-157.5) translate(12.098524305555557 24.08376736111111)"/><use xlink:href="#d" transform="matrix(1,0,0,1,594.3030960648148,-157.5) translate(0 24.08376736111111)"/><use xlink:href="#e" transform="matrix(1,0,0,1,868.1715856481482,-157.5) translate(0 24.08376736111111)"/><use xlink:href="#f" transform="matrix(1,0,0,1,594.3030960648148,-120.5) translate(0 24.08376736111111)"/><use xlink:href="#e" transform="matrix(1,0,0,1,868.1715856481482,-120.5) translate(0 24.08376736111111)"/><use xlink:href="#g" transform="matrix(1,0,0,1,594.3030960648148,-83.5) translate(0 24.08376736111111)"/><use xlink:href="#h" transform="matrix(1,0,0,1,868.1715856481482,-83.5) translate(0 24.08376736111111)"/><use xlink:href="#i" transform="matrix(1,0,0,1,594.3030960648148,-46.5) translate(0 24.08376736111111)"/><use xlink:href="#h" transform="matrix(1,0,0,1,868.1715856481482,-46.5) translate(0 24.08376736111111)"/><use xlink:href="#j" transform="matrix(1,0,0,1,534.3030960648148,-9.5) translate(14.789496527777779 24.08376736111111)"/><use xlink:href="#k" transform="matrix(1,0,0,1,594.3030960648148,-9.5) translate(0 24.08376736111111)"/><use xlink:href="#e" transform="matrix(1,0,0,1,868.1715856481482,-9.5) translate(0 24.08376736111111)"/><use xlink:href="#l" transform="matrix(1,0,0,1,594.3030960648148,27.5) translate(0 24.08376736111111)"/><use xlink:href="#h" transform="matrix(1,0,0,1,868.1715856481482,27.5) translate(0 24.08376736111111)"/><path d="M-60-114a12 12 0 0 1 12-12h376a12 12 0 0 1 12 12v90a12 12 0 0 1-12 12H-48a12 12 0 0 1-12-12z" fill="#fff"/><path d="M-60-86h400v38H-60z" fill="#fff"/><path d="M-60-49h400v25a12 12 0 0 1-12 12H-48a12 12 0 0 1-12-12z" fill="#fff"/><path d="M-59-86h398-398zM-60-114a12 12 0 0 1 12-12h376a12 12 0 0 1 12 12v90a12 12 0 0 1-12 12H-48a12 12 0 0 1-12-12zM0-85v72zM240.63-85v72z" stroke="#000" stroke-width="2" fill="none"/><use xlink:href="#m" transform="matrix(1,0,0,1,-50,-126) translate(116.74153645833333 28.08376736111111)"/><use xlink:href="#c" transform="matrix(1,0,0,1,-55,-83.5) translate(12.098524305555557 24.08376736111111)"/><use xlink:href="#n" transform="matrix(1,0,0,1,5,-83.5) translate(0 24.08376736111111)"/><use xlink:href="#e" transform="matrix(1,0,0,1,245.634660842705,-83.5) translate(0 24.08376736111111)"/><use xlink:href="#o" transform="matrix(1,0,0,1,5,-46.5) translate(0 24.08376736111111)"/><use xlink:href="#h" transform="matrix(1,0,0,1,245.634660842705,-46.5) translate(0 24.08376736111111)"/><path d="M-60 106a12 12 0 0 1 12-12h376a12 12 0 0 1 12 12v127a12 12 0 0 1-12 12H-48a12 12 0 0 1-12-12z" fill="#fff"/><path d="M-60 134h400v38H-60z" fill="#fff"/><path d="M-60 171h400v38H-60z" fill="#fff"/><path d="M-60 208h400v25a12 12 0 0 1-12 12H-48a12 12 0 0 1-12-12z" fill="#fff"/><path d="M-59 134h398-398zM-60 106a12 12 0 0 1 12-12h376a12 12 0 0 1 12 12v127a12 12 0 0 1-12 12H-48a12 12 0 0 1-12-12zM0 135v109zM241.57 135v109z" stroke="#000" stroke-width="2" fill="none"/><use xlink:href="#p" transform="matrix(1,0,0,1,-50,94) translate(158.51128472222223 28.08376736111111)"/><use xlink:href="#c" transform="matrix(1,0,0,1,-55,136.5) translate(12.098524305555557 24.08376736111111)"/><use xlink:href="#q" transform="matrix(1,0,0,1,5,136.5) translate(0 24.08376736111111)"/><use xlink:href="#e" transform="matrix(1,0,0,1,246.56572274451514,136.5) translate(0 24.08376736111111)"/><use xlink:href="#j" transform="matrix(1,0,0,1,-55,173.5) translate(14.789496527777779 24.08376736111111)"/><use xlink:href="#n" transform="matrix(1,0,0,1,5,173.5) translate(0 24.08376736111111)"/><use xlink:href="#e" transform="matrix(1,0,0,1,246.56572274451514,173.5) translate(0 24.08376736111111)"/><use xlink:href="#r" transform="matrix(1,0,0,1,5,210.5) translate(0 24.08376736111111)"/><use xlink:href="#h" transform="matrix(1,0,0,1,246.56572274451514,210.5) translate(0 24.08376736111111)"/><path d="M-50 344.5a12 12 0 0 1 12-12h356a12 12 0 0 1 12 12v164a12 12 0 0 1-12 12H-38a12 12 0 0 1-12-12z" fill="#fff"/><path d="M-50 372.5h380v38H-50z" fill="#fff"/><path d="M-50 409.5h380v38H-50z" fill="#fff"/><path d="M-50 446.5h380v38H-50z" fill="#fff"/><path d="M-50 483.5h380v25a12 12 0 0 1-12 12H-38a12 12 0 0 1-12-12z" fill="#fff"/><path d="M-49 372.5h378-378zM-50 344.5a12 12 0 0 1 12-12h356a12 12 0 0 1 12 12v164a12 12 0 0 1-12 12H-38a12 12 0 0 1-12-12zM10 373.5v146zM231.5 373.5v146z" stroke="#000" stroke-width="2" fill="none"/><use xlink:href="#s" transform="matrix(1,0,0,1,-39.99999999999994,332.5) translate(136.18489583333334 28.08376736111111)"/><use xlink:href="#c" transform="matrix(1,0,0,1,-44.99999999999994,375) translate(12.098524305555557 24.08376736111111)"/><use xlink:href="#k" transform="matrix(1,0,0,1,15.000000000000057,375) translate(0 24.08376736111111)"/><use xlink:href="#e" transform="matrix(1,0,0,1,236.49755633120702,375) translate(0 24.08376736111111)"/><use xlink:href="#o" transform="matrix(1,0,0,1,15.000000000000057,412) translate(0 24.08376736111111)"/><use xlink:href="#h" transform="matrix(1,0,0,1,236.49755633120702,412) translate(0 24.08376736111111)"/><use xlink:href="#j" transform="matrix(1,0,0,1,-44.99999999999994,449) translate(14.789496527777779 24.08376736111111)"/><use xlink:href="#q" transform="matrix(1,0,0,1,15.000000000000057,449) translate(0 24.08376736111111)"/><use xlink:href="#e" transform="matrix(1,0,0,1,236.49755633120702,449) translate(0 24.08376736111111)"/><use xlink:href="#j" transform="matrix(1,0,0,1,-44.99999999999994,486) translate(14.789496527777779 24.08376736111111)"/><use xlink:href="#t" transform="matrix(1,0,0,1,15.000000000000057,486) translate(0 24.08376736111111)"/><use xlink:href="#u" transform="matrix(1,0,0,1,236.49755633120702,486) translate(0 24.08376736111111)"/><path d="M-80-66.5v255.7M-61-67.5l-19.97 1.06m-.53-10l1.05 19.98M-61.22 189.6l-20-.44m20.2-9.56l-20.2 9.56m19.78 10.43l-19.78-10.44M-81 152.4h-13a6 6 0 0 0-6 6V459a6 6 0 0 0 6 6h23.6M-61 152.4h-20m0-10v20M-51.22 465h-20m20-10l-20 10m20 10l-20-10" stroke="#3a414a" fill="none"/><path d="M-35.56 620a12 12 0 0 1 12-12h327.13a12 12 0 0 1 12 12v201a12 12 0 0 1-12 12H-23.56a12 12 0 0 1-12-12z" fill="#fff"/><path d="M-35.56 648h351.13v38H-35.56z" fill="#fff"/><path d="M-35.56 685h351.13v38H-35.56z" fill="#fff"/><path d="M-35.56 722h351.13v38H-35.56z" fill="#fff"/><path d="M-35.56 759h351.13v38H-35.56z" fill="#fff"/><path d="M-35.56 796h351.13v25a12 12 0 0 1-12 12H-23.56a12 12 0 0 1-12-12z" fill="#fff"/><path d="M-34.56 648h349.13-349.13zM-35.56 620a12 12 0 0 1 12-12h327.13a12 12 0 0 1 12 12v201a12 12 0 0 1-12 12H-23.56a12 12 0 0 1-12-12zM24.43 649v183zM215.92 649v183z" stroke="#000" stroke-width="2" fill="none"/><use xlink:href="#v" transform="matrix(1,0,0,1,-25.564751698883413,608) translate(113.15169270833333 28.08376736111111)"/><use xlink:href="#c" transform="matrix(1,0,0,1,-30.564751698883413,650.5) translate(12.098524305555557 24.08376736111111)"/><use xlink:href="#t" transform="matrix(1,0,0,1,29.435248301116587,650.5) translate(0 24.08376736111111)"/><use xlink:href="#e" transform="matrix(1,0,0,1,220.91821323028483,650.5) translate(0 24.08376736111111)"/><use xlink:href="#g" transform="matrix(1,0,0,1,29.435248301116587,687.5) translate(0 24.08376736111111)"/><use xlink:href="#h" transform="matrix(1,0,0,1,220.91821323028483,687.5) translate(0 24.08376736111111)"/><use xlink:href="#i" transform="matrix(1,0,0,1,29.435248301116587,724.5) translate(0 24.08376736111111)"/><use xlink:href="#h" transform="matrix(1,0,0,1,220.91821323028483,724.5) translate(0 24.08376736111111)"/><use xlink:href="#l" transform="matrix(1,0,0,1,29.435248301116587,761.5) translate(0 24.08376736111111)"/><use xlink:href="#h" transform="matrix(1,0,0,1,220.91821323028483,761.5) translate(0 24.08376736111111)"/><use xlink:href="#w" transform="matrix(1,0,0,1,29.435248301116587,798.5) translate(0 24.08376736111111)"/><use xlink:href="#h" transform="matrix(1,0,0,1,220.91821323028483,798.5) translate(0 24.08376736111111)"/><path d="M-56.56 666.5H-114a6 6 0 0 1-6-6V508.4a6 6 0 0 1 6-6h43.6M-36.56 666.5h-20m0-10v20M-51.22 502.4h-20m20-10l-20 10m20 10l-20-10M351 390.8h77.65a6 6 0 0 0 6-6V12.5a6 6 0 0 1 6-6h68.24M331 390.8h20m0 10v-20M528.08 6.5h-20m20-10l-20 10m20 10l-20-10" stroke="#3a414a" fill="none"/><path d="M1190.7 289a12 12 0 0 1 12-12h416a12 12 0 0 1 12 12v275a12 12 0 0 1-12 12h-416a12 12 0 0 1-12-12z" fill="#fff"/><path d="M1190.7 317h440v38h-440z" fill="#fff"/><path d="M1190.7 354h440v38h-440z" fill="#fff"/><path d="M1190.7 391h440v38h-440z" fill="#fff"/><path d="M1190.7 428h440v38h-440z" fill="#fff"/><path d="M1190.7 465h440v38h-440z" fill="#fff"/><path d="M1190.7 502h440v38h-440z" fill="#fff"/><path d="M1190.7 539h440v25a12 12 0 0 1-12 12h-416a12 12 0 0 1-12-12z" fill="#fff"/><path d="M1191.7 317h438-438zM1190.7 289a12 12 0 0 1 12-12h416a12 12 0 0 1 12 12v275a12 12 0 0 1-12 12h-416a12 12 0 0 1-12-12zM1250.7 318v257zM1500.6 318v257z" stroke="#000" stroke-width="2" fill="none"/><use xlink:href="#x" transform="matrix(1,0,0,1,1200.6969039351852,277) translate(161.54079861111111 28.08376736111111)"/><use xlink:href="#c" transform="matrix(1,0,0,1,1195.6969039351852,319.5) translate(12.098524305555557 24.08376736111111)"/><use xlink:href="#y" transform="matrix(1,0,0,1,1255.6969039351852,319.5) translate(0 24.08376736111111)"/><use xlink:href="#e" transform="matrix(1,0,0,1,1505.612474289343,319.5) translate(0 24.08376736111111)"/><use xlink:href="#j" transform="matrix(1,0,0,1,1195.6969039351852,356.5) translate(14.789496527777779 24.08376736111111)"/><use xlink:href="#d" transform="matrix(1,0,0,1,1255.6969039351852,356.5) translate(0 24.08376736111111)"/><use xlink:href="#e" transform="matrix(1,0,0,1,1505.612474289343,356.5) translate(0 24.08376736111111)"/><use xlink:href="#j" transform="matrix(1,0,0,1,1195.6969039351852,393.5) translate(14.789496527777779 24.08376736111111)"/><use xlink:href="#z" transform="matrix(1,0,0,1,1255.6969039351852,393.5) translate(0 24.08376736111111)"/><use xlink:href="#e" transform="matrix(1,0,0,1,1505.612474289343,393.5) translate(0 24.08376736111111)"/><use xlink:href="#j" transform="matrix(1,0,0,1,1195.6969039351852,430.5) translate(14.789496527777779 24.08376736111111)"/><use xlink:href="#A" transform="matrix(1,0,0,1,1255.6969039351852,430.5) translate(0 24.08376736111111)"/><use xlink:href="#e" transform="matrix(1,0,0,1,1505.612474289343,430.5) translate(0 24.08376736111111)"/><use xlink:href="#B" transform="matrix(1,0,0,1,1195.6969039351852,467.5) translate(5.46875 24.08376736111111)"/><use xlink:href="#C" transform="matrix(1,0,0,1,1255.6969039351852,467.5) translate(0 24.08376736111111)"/><use xlink:href="#D" transform="matrix(1,0,0,1,1505.612474289343,467.5) translate(0 24.08376736111111)"/><use xlink:href="#B" transform="matrix(1,0,0,1,1195.6969039351852,504.5) translate(5.46875 24.08376736111111)"/><use xlink:href="#E" transform="matrix(1,0,0,1,1255.6969039351852,504.5) translate(0 24.08376736111111)"/><use xlink:href="#D" transform="matrix(1,0,0,1,1505.612474289343,504.5) translate(0 24.08376736111111)"/><use xlink:href="#j" transform="matrix(1,0,0,1,1195.6969039351852,541.5) translate(14.789496527777779 24.08376736111111)"/><use xlink:href="#F" transform="matrix(1,0,0,1,1255.6969039351852,541.5) translate(0 24.08376736111111)"/><use xlink:href="#e" transform="matrix(1,0,0,1,1505.612474289343,541.5) translate(0 24.08376736111111)"/><path d="M575.35 307.5a12 12 0 0 1 12-12h356a12 12 0 0 1 12 12v238a12 12 0 0 1-12 12h-356a12 12 0 0 1-12-12z" fill="#fff"/><path d="M575.35 335.5h380v38h-380z" fill="#fff"/><path d="M575.35 372.5h380v38h-380z" fill="#fff"/><path d="M575.35 409.5h380v38h-380z" fill="#fff"/><path d="M575.35 446.5h380v38h-380z" fill="#fff"/><path d="M575.35 483.5h380v38h-380z" fill="#fff"/><path d="M575.35 520.5h380v25a12 12 0 0 1-12 12h-356a12 12 0 0 1-12-12z" fill="#fff"/><path d="M576.35 335.5h378-378zM575.35 307.5a12 12 0 0 1 12-12h356a12 12 0 0 1 12 12v238a12 12 0 0 1-12 12h-356a12 12 0 0 1-12-12zM635.35 336.5v220zM859.14 336.5v220z" stroke="#000" stroke-width="2" fill="none"/><use xlink:href="#G" transform="matrix(1,0,0,1,585.3484519675926,295.5) translate(117.87977430555557 28.08376736111111)"/><use xlink:href="#c" transform="matrix(1,0,0,1,580.3484519675926,338) translate(12.098524305555557 24.08376736111111)"/><use xlink:href="#z" transform="matrix(1,0,0,1,640.3484519675926,338) translate(0 24.08376736111111)"/><use xlink:href="#e" transform="matrix(1,0,0,1,864.1430221003395,338) translate(0 24.08376736111111)"/><use xlink:href="#j" transform="matrix(1,0,0,1,580.3484519675926,375) translate(14.789496527777779 24.08376736111111)"/><use xlink:href="#k" transform="matrix(1,0,0,1,640.3484519675926,375) translate(0 24.08376736111111)"/><use xlink:href="#e" transform="matrix(1,0,0,1,864.1430221003395,375) translate(0 24.08376736111111)"/><use xlink:href="#g" transform="matrix(1,0,0,1,640.3484519675926,412) translate(0 24.08376736111111)"/><use xlink:href="#h" transform="matrix(1,0,0,1,864.1430221003395,412) translate(0 24.08376736111111)"/><use xlink:href="#i" transform="matrix(1,0,0,1,640.3484519675926,449) translate(0 24.08376736111111)"/><use xlink:href="#h" transform="matrix(1,0,0,1,864.1430221003395,449) translate(0 24.08376736111111)"/><use xlink:href="#l" transform="matrix(1,0,0,1,640.3484519675926,486) translate(0 24.08376736111111)"/><use xlink:href="#h" transform="matrix(1,0,0,1,864.1430221003395,486) translate(0 24.08376736111111)"/><use xlink:href="#w" transform="matrix(1,0,0,1,640.3484519675926,523) translate(0 24.08376736111111)"/><use xlink:href="#h" transform="matrix(1,0,0,1,864.1430221003395,523) translate(0 24.08376736111111)"/><path d="M615.35 675.5a12 12 0 0 1 12-12h276a12 12 0 0 1 12 12v90a12 12 0 0 1-12 12h-276a12 12 0 0 1-12-12z" fill="#fff"/><path d="M615.35 703.5h300v38h-300z" fill="#fff"/><path d="M615.35 740.5h300v25a12 12 0 0 1-12 12h-276a12 12 0 0 1-12-12z" fill="#fff"/><path d="M616.35 703.5h298-298zM615.35 675.5a12 12 0 0 1 12-12h276a12 12 0 0 1 12 12v90a12 12 0 0 1-12 12h-276a12 12 0 0 1-12-12zM675.35 704.5v72zM805.75 704.5v72z" stroke="#000" stroke-width="2" fill="none"/><use xlink:href="#H" transform="matrix(1,0,0,1,625.3484519675926,663.5) translate(98.3984375 28.08376736111111)"/><use xlink:href="#c" transform="matrix(1,0,0,1,620.3484519675926,706) translate(12.098524305555557 24.08376736111111)"/><use xlink:href="#I" transform="matrix(1,0,0,1,680.3484519675926,706) translate(0 24.08376736111111)"/><use xlink:href="#e" transform="matrix(1,0,0,1,810.7467052244726,706) translate(0 24.08376736111111)"/><use xlink:href="#o" transform="matrix(1,0,0,1,680.3484519675926,743) translate(0 24.08376736111111)"/><use xlink:href="#h" transform="matrix(1,0,0,1,810.7467052244726,743) translate(0 24.08376736111111)"/><path d="M1022.4-141.5h36.1a6 6 0 0 1 6 6v501.75a6 6 0 0 0 6 6h99.8M1002.4-141.5h20m0 10v-20M1189.47 372.25h-20m20-10l-20 10m20 10l-20-10M936.35 722h185.25a6 6 0 0 0 6-6V576.4a6 6 0 0 1 6-6h38.4M916.35 722h20m0 10v-20M1191.2 570.4h-20m20-10l-20 10m20 10l-20-10" stroke="#3a414a" fill="none"/><path d="M976.35 354h83.14c0-2.76 2.23-5 5-5 2.76 0 5 2.24 5 5h74.2a6 6 0 0 1 6 6v7.25c-2.77 0-5 2.24-5 5 0 2.77 2.23 5 5 5v26.17a6 6 0 0 0 6 6h14.6M956.35 354h20m0 10v-20M1189.47 409.42h-20m20-10l-20 10m20 10l-20-10" stroke="#3a414a" fill="none"/><path d="M1840-151a12 12 0 0 1 12-12h336a12 12 0 0 1 12 12V13a12 12 0 0 1-12 12h-336a12 12 0 0 1-12-12z" fill="#fff"/><path d="M1840-123h360v38h-360z" fill="#fff"/><path d="M1840-86h360v38h-360z" fill="#fff"/><path d="M1840-49h360v38h-360z" fill="#fff"/><path d="M1840-12h360v25a12 12 0 0 1-12 12h-336a12 12 0 0 1-12-12z" fill="#fff"/><path d="M1841-123h358-358zM1840-151a12 12 0 0 1 12-12h336a12 12 0 0 1 12 12V13a12 12 0 0 1-12 12h-336a12 12 0 0 1-12-12zM1900-122V24zM2080.85-122V24z" stroke="#000" stroke-width="2" fill="none"/><use xlink:href="#J" transform="matrix(1,0,0,1,1850,-163) translate(124.90538194444446 28.08376736111111)"/><use xlink:href="#c" transform="matrix(1,0,0,1,1845,-120.5) translate(12.098524305555557 24.08376736111111)"/><use xlink:href="#K" transform="matrix(1,0,0,1,1905,-120.5) translate(0 24.08376736111111)"/><use xlink:href="#e" transform="matrix(1,0,0,1,2085.8489956305953,-120.5) translate(0 24.08376736111111)"/><use xlink:href="#o" transform="matrix(1,0,0,1,1905,-83.5) translate(0 24.08376736111111)"/><use xlink:href="#h" transform="matrix(1,0,0,1,2085.8489956305953,-83.5) translate(0 24.08376736111111)"/><use xlink:href="#r" transform="matrix(1,0,0,1,1905,-46.5) translate(0 24.08376736111111)"/><use xlink:href="#h" transform="matrix(1,0,0,1,2085.8489956305953,-46.5) translate(0 24.08376736111111)"/><use xlink:href="#L" transform="matrix(1,0,0,1,1905,-9.5) translate(0 24.08376736111111)"/><use xlink:href="#h" transform="matrix(1,0,0,1,2085.8489956305953,-9.5) translate(0 24.08376736111111)"/><path d="M1820 289a12 12 0 0 1 12-12h376a12 12 0 0 1 12 12v275a12 12 0 0 1-12 12h-376a12 12 0 0 1-12-12z" fill="#fff"/><path d="M1820 317h400v38h-400z" fill="#fff"/><path d="M1820 354h400v38h-400z" fill="#fff"/><path d="M1820 391h400v38h-400z" fill="#fff"/><path d="M1820 428h400v38h-400z" fill="#fff"/><path d="M1820 465h400v38h-400z" fill="#fff"/><path d="M1820 502h400v38h-400z" fill="#fff"/><path d="M1820 539h400v25a12 12 0 0 1-12 12h-376a12 12 0 0 1-12-12z" fill="#fff"/><path d="M1821 317h398-398zM1820 289a12 12 0 0 1 12-12h376a12 12 0 0 1 12 12v275a12 12 0 0 1-12 12h-376a12 12 0 0 1-12-12zM1880 318v257zM2098.25 318v257z" stroke="#000" stroke-width="2" fill="none"/><use xlink:href="#M" transform="matrix(1,0,0,1,1830,277) translate(153.76497395833334 28.08376736111111)"/><use xlink:href="#c" transform="matrix(1,0,0,1,1825,319.5) translate(12.098524305555557 24.08376736111111)"/><use xlink:href="#A" transform="matrix(1,0,0,1,1885,319.5) translate(0 24.08376736111111)"/><use xlink:href="#e" transform="matrix(1,0,0,1,2103.2467288578405,319.5) translate(0 24.08376736111111)"/><use xlink:href="#j" transform="matrix(1,0,0,1,1825,356.5) translate(14.789496527777779 24.08376736111111)"/><use xlink:href="#K" transform="matrix(1,0,0,1,1885,356.5) translate(0 24.08376736111111)"/><use xlink:href="#e" transform="matrix(1,0,0,1,2103.2467288578405,356.5) translate(0 24.08376736111111)"/><use xlink:href="#g" transform="matrix(1,0,0,1,1885,393.5) translate(0 24.08376736111111)"/><use xlink:href="#h" transform="matrix(1,0,0,1,2103.2467288578405,393.5) translate(0 24.08376736111111)"/><use xlink:href="#i" transform="matrix(1,0,0,1,1885,430.5) translate(0 24.08376736111111)"/><use xlink:href="#h" transform="matrix(1,0,0,1,2103.2467288578405,430.5) translate(0 24.08376736111111)"/><use xlink:href="#N" transform="matrix(1,0,0,1,1885,467.5) translate(0 24.08376736111111)"/><use xlink:href="#h" transform="matrix(1,0,0,1,2103.2467288578405,467.5) translate(0 24.08376736111111)"/><use xlink:href="#l" transform="matrix(1,0,0,1,1885,504.5) translate(0 24.08376736111111)"/><use xlink:href="#h" transform="matrix(1,0,0,1,2103.2467288578405,504.5) translate(0 24.08376736111111)"/><use xlink:href="#w" transform="matrix(1,0,0,1,1885,541.5) translate(0 24.08376736111111)"/><use xlink:href="#h" transform="matrix(1,0,0,1,2103.2467288578405,541.5) translate(0 24.08376736111111)"/><path d="M2221-104.7h33a6 6 0 0 1 6 6v464.93a6 6 0 0 1-6 6h-13.6M2201-104.7h20m0 10v-20M2221.22 372.23h20m-20 10l20-10m-20-10l20 10M1799 335.05h-121.3a6 6 0 0 0-6 6v99.54a6 6 0 0 1-6 6h-14.6M1819 335.05h-20m0-10v20M1631.92 446.6h20m-20 10l20-10m-20-10l20 10" stroke="#3a414a" fill="none"/><path d="M-140-268a12 12 0 0 1 12-12h2616a12 12 0 0 1 12 12V901a12 12 0 0 1-12 12H-128a12 12 0 0 1-12-12z" stroke="#635dff" stroke-width="4" fill="#fff"/><path d="M-140-341.64a12 12 0 0 1 12-12H7.7a12 12 0 0 1 12 12V-304a12 12 0 0 1-12 12H-128a12 12 0 0 1-12-12z" stroke="#635dff" stroke-width="4" fill="#635dff"/><use xlink:href="#a" transform="matrix(1,0,0,1,-128,-341.6432291666667) translate(0 30.317274305555557)"/><path d="M529.3-188a12 12 0 0 1 12-12h448.1a12 12 0 0 1 12 12V50a12 12 0 0 1-12 12H541.3a12 12 0 0 1-12-12z" fill="#fff"/><path d="M529.3-160h472.1v38H529.3z" fill="#fff"/><path d="M529.3-123h472.1v38H529.3z" fill="#fff"/><path d="M529.3-86h472.1v38H529.3z" fill="#fff"/><path d="M529.3-49h472.1v38H529.3z" fill="#fff"/><path d="M529.3-12h472.1v38H529.3z" fill="#fff"/><path d="M529.3 25h472.1v25a12 12 0 0 1-12 12H541.3a12 12 0 0 1-12-12z" fill="#fff"/><path d="M530.3-160h470.1-470.1zM529.3-188a12 12 0 0 1 12-12h448.1a12 12 0 0 1 12 12V50a12 12 0 0 1-12 12H541.3a12 12 0 0 1-12-12zM589.3-159V61zM863.17-159V61z" stroke="#000" stroke-width="2" fill="none"/><use xlink:href="#b" transform="matrix(1,0,0,1,539.3030960648148,-200) translate(165.78493923611111 28.08376736111111)"/><use xlink:href="#c" transform="matrix(1,0,0,1,534.3030960648148,-157.5) translate(12.098524305555557 24.08376736111111)"/><use xlink:href="#d" transform="matrix(1,0,0,1,594.3030960648148,-157.5) translate(0 24.08376736111111)"/><use xlink:href="#e" transform="matrix(1,0,0,1,868.1715856481482,-157.5) translate(0 24.08376736111111)"/><use xlink:href="#f" transform="matrix(1,0,0,1,594.3030960648148,-120.5) translate(0 24.08376736111111)"/><use xlink:href="#e" transform="matrix(1,0,0,1,868.1715856481482,-120.5) translate(0 24.08376736111111)"/><use xlink:href="#g" transform="matrix(1,0,0,1,594.3030960648148,-83.5) translate(0 24.08376736111111)"/><use xlink:href="#h" transform="matrix(1,0,0,1,868.1715856481482,-83.5) translate(0 24.08376736111111)"/><use xlink:href="#i" transform="matrix(1,0,0,1,594.3030960648148,-46.5) translate(0 24.08376736111111)"/><use xlink:href="#h" transform="matrix(1,0,0,1,868.1715856481482,-46.5) translate(0 24.08376736111111)"/><use xlink:href="#j" transform="matrix(1,0,0,1,534.3030960648148,-9.5) translate(14.789496527777779 24.08376736111111)"/><use xlink:href="#k" transform="matrix(1,0,0,1,594.3030960648148,-9.5) translate(0 24.08376736111111)"/><use xlink:href="#e" transform="matrix(1,0,0,1,868.1715856481482,-9.5) translate(0 24.08376736111111)"/><use xlink:href="#l" transform="matrix(1,0,0,1,594.3030960648148,27.5) translate(0 24.08376736111111)"/><use xlink:href="#h" transform="matrix(1,0,0,1,868.1715856481482,27.5) translate(0 24.08376736111111)"/><path d="M-60-114a12 12 0 0 1 12-12h376a12 12 0 0 1 12 12v90a12 12 0 0 1-12 12H-48a12 12 0 0 1-12-12z" fill="#fff"/><path d="M-60-86h400v38H-60z" fill="#fff"/><path d="M-60-49h400v25a12 12 0 0 1-12 12H-48a12 12 0 0 1-12-12z" fill="#fff"/><path d="M-59-86h398-398zM-60-114a12 12 0 0 1 12-12h376a12 12 0 0 1 12 12v90a12 12 0 0 1-12 12H-48a12 12 0 0 1-12-12zM0-85v72zM240.63-85v72z" stroke="#000" stroke-width="2" fill="none"/><use xlink:href="#m" transform="matrix(1,0,0,1,-50,-126) translate(116.74153645833333 28.08376736111111)"/><use xlink:href="#c" transform="matrix(1,0,0,1,-55,-83.5) translate(12.098524305555557 24.08376736111111)"/><use xlink:href="#n" transform="matrix(1,0,0,1,5,-83.5) translate(0 24.08376736111111)"/><use xlink:href="#e" transform="matrix(1,0,0,1,245.634660842705,-83.5) translate(0 24.08376736111111)"/><use xlink:href="#o" transform="matrix(1,0,0,1,5,-46.5) translate(0 24.08376736111111)"/><use xlink:href="#h" transform="matrix(1,0,0,1,245.634660842705,-46.5) translate(0 24.08376736111111)"/><path d="M-60 106a12 12 0 0 1 12-12h376a12 12 0 0 1 12 12v127a12 12 0 0 1-12 12H-48a12 12 0 0 1-12-12z" fill="#fff"/><path d="M-60 134h400v38H-60z" fill="#fff"/><path d="M-60 171h400v38H-60z" fill="#fff"/><path d="M-60 208h400v25a12 12 0 0 1-12 12H-48a12 12 0 0 1-12-12z" fill="#fff"/><path d="M-59 134h398-398zM-60 106a12 12 0 0 1 12-12h376a12 12 0 0 1 12 12v127a12 12 0 0 1-12 12H-48a12 12 0 0 1-12-12zM0 135v109zM241.57 135v109z" stroke="#000" stroke-width="2" fill="none"/><use xlink:href="#p" transform="matrix(1,0,0,1,-50,94) translate(158.51128472222223 28.08376736111111)"/><use xlink:href="#c" transform="matrix(1,0,0,1,-55,136.5) translate(12.098524305555557 24.08376736111111)"/><use xlink:href="#q" transform="matrix(1,0,0,1,5,136.5) translate(0 24.08376736111111)"/><use xlink:href="#e" transform="matrix(1,0,0,1,246.56572274451514,136.5) translate(0 24.08376736111111)"/><use xlink:href="#j" transform="matrix(1,0,0,1,-55,173.5) translate(14.789496527777779 24.08376736111111)"/><use xlink:href="#n" transform="matrix(1,0,0,1,5,173.5) translate(0 24.08376736111111)"/><use xlink:href="#e" transform="matrix(1,0,0,1,246.56572274451514,173.5) translate(0 24.08376736111111)"/><use xlink:href="#r" transform="matrix(1,0,0,1,5,210.5) translate(0 24.08376736111111)"/><use xlink:href="#h" transform="matrix(1,0,0,1,246.56572274451514,210.5) translate(0 24.08376736111111)"/><path d="M-50 344.5a12 12 0 0 1 12-12h356a12 12 0 0 1 12 12v164a12 12 0 0 1-12 12H-38a12 12 0 0 1-12-12z" fill="#fff"/><path d="M-50 372.5h380v38H-50z" fill="#fff"/><path d="M-50 409.5h380v38H-50z" fill="#fff"/><path d="M-50 446.5h380v38H-50z" fill="#fff"/><path d="M-50 483.5h380v25a12 12 0 0 1-12 12H-38a12 12 0 0 1-12-12z" fill="#fff"/><path d="M-49 372.5h378-378zM-50 344.5a12 12 0 0 1 12-12h356a12 12 0 0 1 12 12v164a12 12 0 0 1-12 12H-38a12 12 0 0 1-12-12zM10 373.5v146zM231.5 373.5v146z" stroke="#000" stroke-width="2" fill="none"/><use xlink:href="#s" transform="matrix(1,0,0,1,-39.99999999999994,332.5) translate(136.18489583333334 28.08376736111111)"/><use xlink:href="#c" transform="matrix(1,0,0,1,-44.99999999999994,375) translate(12.098524305555557 24.08376736111111)"/><use xlink:href="#k" transform="matrix(1,0,0,1,15.000000000000057,375) translate(0 24.08376736111111)"/><use xlink:href="#e" transform="matrix(1,0,0,1,236.49755633120702,375) translate(0 24.08376736111111)"/><use xlink:href="#o" transform="matrix(1,0,0,1,15.000000000000057,412) translate(0 24.08376736111111)"/><use xlink:href="#h" transform="matrix(1,0,0,1,236.49755633120702,412) translate(0 24.08376736111111)"/><use xlink:href="#j" transform="matrix(1,0,0,1,-44.99999999999994,449) translate(14.789496527777779 24.08376736111111)"/><use xlink:href="#q" transform="matrix(1,0,0,1,15.000000000000057,449) translate(0 24.08376736111111)"/><use xlink:href="#e" transform="matrix(1,0,0,1,236.49755633120702,449) translate(0 24.08376736111111)"/><use xlink:href="#j" transform="matrix(1,0,0,1,-44.99999999999994,486) translate(14.789496527777779 24.08376736111111)"/><use xlink:href="#t" transform="matrix(1,0,0,1,15.000000000000057,486) translate(0 24.08376736111111)"/><use xlink:href="#u" transform="matrix(1,0,0,1,236.49755633120702,486) translate(0 24.08376736111111)"/><path d="M-80-66.5v255.7M-61-67.5l-19.97 1.06m-.53-10l1.05 19.98M-61.22 189.6l-20-.44m20.2-9.56l-20.2 9.56m19.78 10.43l-19.78-10.44M-81 152.4h-13a6 6 0 0 0-6 6V459a6 6 0 0 0 6 6h23.6M-61 152.4h-20m0-10v20M-51.22 465h-20m20-10l-20 10m20 10l-20-10" stroke="#3a414a" fill="none"/><path d="M-35.56 620a12 12 0 0 1 12-12h327.13a12 12 0 0 1 12 12v201a12 12 0 0 1-12 12H-23.56a12 12 0 0 1-12-12z" fill="#fff"/><path d="M-35.56 648h351.13v38H-35.56z" fill="#fff"/><path d="M-35.56 685h351.13v38H-35.56z" fill="#fff"/><path d="M-35.56 722h351.13v38H-35.56z" fill="#fff"/><path d="M-35.56 759h351.13v38H-35.56z" fill="#fff"/><path d="M-35.56 796h351.13v25a12 12 0 0 1-12 12H-23.56a12 12 0 0 1-12-12z" fill="#fff"/><path d="M-34.56 648h349.13-349.13zM-35.56 620a12 12 0 0 1 12-12h327.13a12 12 0 0 1 12 12v201a12 12 0 0 1-12 12H-23.56a12 12 0 0 1-12-12zM24.43 649v183zM215.92 649v183z" stroke="#000" stroke-width="2" fill="none"/><use xlink:href="#v" transform="matrix(1,0,0,1,-25.564751698883413,608) translate(113.15169270833333 28.08376736111111)"/><use xlink:href="#c" transform="matrix(1,0,0,1,-30.564751698883413,650.5) translate(12.098524305555557 24.08376736111111)"/><use xlink:href="#t" transform="matrix(1,0,0,1,29.435248301116587,650.5) translate(0 24.08376736111111)"/><use xlink:href="#e" transform="matrix(1,0,0,1,220.91821323028483,650.5) translate(0 24.08376736111111)"/><use xlink:href="#g" transform="matrix(1,0,0,1,29.435248301116587,687.5) translate(0 24.08376736111111)"/><use xlink:href="#h" transform="matrix(1,0,0,1,220.91821323028483,687.5) translate(0 24.08376736111111)"/><use xlink:href="#i" transform="matrix(1,0,0,1,29.435248301116587,724.5) translate(0 24.08376736111111)"/><use xlink:href="#h" transform="matrix(1,0,0,1,220.91821323028483,724.5) translate(0 24.08376736111111)"/><use xlink:href="#l" transform="matrix(1,0,0,1,29.435248301116587,761.5) translate(0 24.08376736111111)"/><use xlink:href="#h" transform="matrix(1,0,0,1,220.91821323028483,761.5) translate(0 24.08376736111111)"/><use xlink:href="#w" transform="matrix(1,0,0,1,29.435248301116587,798.5) translate(0 24.08376736111111)"/><use xlink:href="#h" transform="matrix(1,0,0,1,220.91821323028483,798.5) translate(0 24.08376736111111)"/><path d="M-56.56 666.5H-114a6 6 0 0 1-6-6V508.4a6 6 0 0 1 6-6h43.6M-36.56 666.5h-20m0-10v20M-51.22 502.4h-20m20-10l-20 10m20 10l-20-10M351 390.8h77.65a6 6 0 0 0 6-6V12.5a6 6 0 0 1 6-6h68.24M331 390.8h20m0 10v-20M528.08 6.5h-20m20-10l-20 10m20 10l-20-10" stroke="#3a414a" fill="none"/><path d="M1190.7 289a12 12 0 0 1 12-12h416a12 12 0 0 1 12 12v275a12 12 0 0 1-12 12h-416a12 12 0 0 1-12-12z" fill="#fff"/><path d="M1190.7 317h440v38h-440z" fill="#fff"/><path d="M1190.7 354h440v38h-440z" fill="#fff"/><path d="M1190.7 391h440v38h-440z" fill="#fff"/><path d="M1190.7 428h440v38h-440z" fill="#fff"/><path d="M1190.7 465h440v38h-440z" fill="#fff"/><path d="M1190.7 502h440v38h-440z" fill="#fff"/><path d="M1190.7 539h440v25a12 12 0 0 1-12 12h-416a12 12 0 0 1-12-12z" fill="#fff"/><path d="M1191.7 317h438-438zM1190.7 289a12 12 0 0 1 12-12h416a12 12 0 0 1 12 12v275a12 12 0 0 1-12 12h-416a12 12 0 0 1-12-12zM1250.7 318v257zM1500.6 318v257z" stroke="#000" stroke-width="2" fill="none"/><use xlink:href="#x" transform="matrix(1,0,0,1,1200.6969039351852,277) translate(161.54079861111111 28.08376736111111)"/><use xlink:href="#c" transform="matrix(1,0,0,1,1195.6969039351852,319.5) translate(12.098524305555557 24.08376736111111)"/><use xlink:href="#y" transform="matrix(1,0,0,1,1255.6969039351852,319.5) translate(0 24.08376736111111)"/><use xlink:href="#e" transform="matrix(1,0,0,1,1505.612474289343,319.5) translate(0 24.08376736111111)"/><use xlink:href="#j" transform="matrix(1,0,0,1,1195.6969039351852,356.5) translate(14.789496527777779 24.08376736111111)"/><use xlink:href="#d" transform="matrix(1,0,0,1,1255.6969039351852,356.5) translate(0 24.08376736111111)"/><use xlink:href="#e" transform="matrix(1,0,0,1,1505.612474289343,356.5) translate(0 24.08376736111111)"/><use xlink:href="#j" transform="matrix(1,0,0,1,1195.6969039351852,393.5) translate(14.789496527777779 24.08376736111111)"/><use xlink:href="#z" transform="matrix(1,0,0,1,1255.6969039351852,393.5) translate(0 24.08376736111111)"/><use xlink:href="#e" transform="matrix(1,0,0,1,1505.612474289343,393.5) translate(0 24.08376736111111)"/><use xlink:href="#j" transform="matrix(1,0,0,1,1195.6969039351852,430.5) translate(14.789496527777779 24.08376736111111)"/><use xlink:href="#A" transform="matrix(1,0,0,1,1255.6969039351852,430.5) translate(0 24.08376736111111)"/><use xlink:href="#e" transform="matrix(1,0,0,1,1505.612474289343,430.5) translate(0 24.08376736111111)"/><use xlink:href="#B" transform="matrix(1,0,0,1,1195.6969039351852,467.5) translate(5.46875 24.08376736111111)"/><use xlink:href="#C" transform="matrix(1,0,0,1,1255.6969039351852,467.5) translate(0 24.08376736111111)"/><use xlink:href="#D" transform="matrix(1,0,0,1,1505.612474289343,467.5) translate(0 24.08376736111111)"/><use xlink:href="#B" transform="matrix(1,0,0,1,1195.6969039351852,504.5) translate(5.46875 24.08376736111111)"/><use xlink:href="#E" transform="matrix(1,0,0,1,1255.6969039351852,504.5) translate(0 24.08376736111111)"/><use xlink:href="#D" transform="matrix(1,0,0,1,1505.612474289343,504.5) translate(0 24.08376736111111)"/><use xlink:href="#j" transform="matrix(1,0,0,1,1195.6969039351852,541.5) translate(14.789496527777779 24.08376736111111)"/><use xlink:href="#F" transform="matrix(1,0,0,1,1255.6969039351852,541.5) translate(0 24.08376736111111)"/><use xlink:href="#e" transform="matrix(1,0,0,1,1505.612474289343,541.5) translate(0 24.08376736111111)"/><path d="M575.35 307.5a12 12 0 0 1 12-12h356a12 12 0 0 1 12 12v238a12 12 0 0 1-12 12h-356a12 12 0 0 1-12-12z" fill="#fff"/><path d="M575.35 335.5h380v38h-380z" fill="#fff"/><path d="M575.35 372.5h380v38h-380z" fill="#fff"/><path d="M575.35 409.5h380v38h-380z" fill="#fff"/><path d="M575.35 446.5h380v38h-380z" fill="#fff"/><path d="M575.35 483.5h380v38h-380z" fill="#fff"/><path d="M575.35 520.5h380v25a12 12 0 0 1-12 12h-356a12 12 0 0 1-12-12z" fill="#fff"/><path d="M576.35 335.5h378-378zM575.35 307.5a12 12 0 0 1 12-12h356a12 12 0 0 1 12 12v238a12 12 0 0 1-12 12h-356a12 12 0 0 1-12-12zM635.35 336.5v220zM859.14 336.5v220z" stroke="#000" stroke-width="2" fill="none"/><use xlink:href="#G" transform="matrix(1,0,0,1,585.3484519675926,295.5) translate(117.87977430555557 28.08376736111111)"/><use xlink:href="#c" transform="matrix(1,0,0,1,580.3484519675926,338) translate(12.098524305555557 24.08376736111111)"/><use xlink:href="#z" transform="matrix(1,0,0,1,640.3484519675926,338) translate(0 24.08376736111111)"/><use xlink:href="#e" transform="matrix(1,0,0,1,864.1430221003395,338) translate(0 24.08376736111111)"/><use xlink:href="#j" transform="matrix(1,0,0,1,580.3484519675926,375) translate(14.789496527777779 24.08376736111111)"/><use xlink:href="#k" transform="matrix(1,0,0,1,640.3484519675926,375) translate(0 24.08376736111111)"/><use xlink:href="#e" transform="matrix(1,0,0,1,864.1430221003395,375) translate(0 24.08376736111111)"/><use xlink:href="#g" transform="matrix(1,0,0,1,640.3484519675926,412) translate(0 24.08376736111111)"/><use xlink:href="#h" transform="matrix(1,0,0,1,864.1430221003395,412) translate(0 24.08376736111111)"/><use xlink:href="#i" transform="matrix(1,0,0,1,640.3484519675926,449) translate(0 24.08376736111111)"/><use xlink:href="#h" transform="matrix(1,0,0,1,864.1430221003395,449) translate(0 24.08376736111111)"/><use xlink:href="#l" transform="matrix(1,0,0,1,640.3484519675926,486) translate(0 24.08376736111111)"/><use xlink:href="#h" transform="matrix(1,0,0,1,864.1430221003395,486) translate(0 24.08376736111111)"/><use xlink:href="#w" transform="matrix(1,0,0,1,640.3484519675926,523) translate(0 24.08376736111111)"/><use xlink:href="#h" transform="matrix(1,0,0,1,864.1430221003395,523) translate(0 24.08376736111111)"/><path d="M615.35 675.5a12 12 0 0 1 12-12h276a12 12 0 0 1 12 12v90a12 12 0 0 1-12 12h-276a12 12 0 0 1-12-12z" fill="#fff"/><path d="M615.35 703.5h300v38h-300z" fill="#fff"/><path d="M615.35 740.5h300v25a12 12 0 0 1-12 12h-276a12 12 0 0 1-12-12z" fill="#fff"/><path d="M616.35 703.5h298-298zM615.35 675.5a12 12 0 0 1 12-12h276a12 12 0 0 1 12 12v90a12 12 0 0 1-12 12h-276a12 12 0 0 1-12-12zM675.35 704.5v72zM805.75 704.5v72z" stroke="#000" stroke-width="2" fill="none"/><use xlink:href="#H" transform="matrix(1,0,0,1,625.3484519675926,663.5) translate(98.3984375 28.08376736111111)"/><use xlink:href="#c" transform="matrix(1,0,0,1,620.3484519675926,706) translate(12.098524305555557 24.08376736111111)"/><use xlink:href="#I" transform="matrix(1,0,0,1,680.3484519675926,706) translate(0 24.08376736111111)"/><use xlink:href="#e" transform="matrix(1,0,0,1,810.7467052244726,706) translate(0 24.08376736111111)"/><use xlink:href="#o" transform="matrix(1,0,0,1,680.3484519675926,743) translate(0 24.08376736111111)"/><use xlink:href="#h" transform="matrix(1,0,0,1,810.7467052244726,743) translate(0 24.08376736111111)"/><path d="M1022.4-141.5h36.1a6 6 0 0 1 6 6v501.75a6 6 0 0 0 6 6h99.8M1002.4-141.5h20m0 10v-20M1189.47 372.25h-20m20-10l-20 10m20 10l-20-10M936.35 722h185.25a6 6 0 0 0 6-6V576.4a6 6 0 0 1 6-6h38.4M916.35 722h20m0 10v-20M1191.2 570.4h-20m20-10l-20 10m20 10l-20-10" stroke="#3a414a" fill="none"/><path d="M976.35 354h83.14c0-2.76 2.23-5 5-5 2.76 0 5 2.24 5 5h74.2a6 6 0 0 1 6 6v7.25c-2.77 0-5 2.24-5 5 0 2.77 2.23 5 5 5v26.17a6 6 0 0 0 6 6h14.6M956.35 354h20m0 10v-20M1189.47 409.42h-20m20-10l-20 10m20 10l-20-10" stroke="#3a414a" fill="none"/><path d="M1840-151a12 12 0 0 1 12-12h336a12 12 0 0 1 12 12V13a12 12 0 0 1-12 12h-336a12 12 0 0 1-12-12z" fill="#fff"/><path d="M1840-123h360v38h-360z" fill="#fff"/><path d="M1840-86h360v38h-360z" fill="#fff"/><path d="M1840-49h360v38h-360z" fill="#fff"/><path d="M1840-12h360v25a12 12 0 0 1-12 12h-336a12 12 0 0 1-12-12z" fill="#fff"/><path d="M1841-123h358-358zM1840-151a12 12 0 0 1 12-12h336a12 12 0 0 1 12 12V13a12 12 0 0 1-12 12h-336a12 12 0 0 1-12-12zM1900-122V24zM2080.85-122V24z" stroke="#000" stroke-width="2" fill="none"/><use xlink:href="#J" transform="matrix(1,0,0,1,1850,-163) translate(124.90538194444446 28.08376736111111)"/><use xlink:href="#c" transform="matrix(1,0,0,1,1845,-120.5) translate(12.098524305555557 24.08376736111111)"/><use xlink:href="#K" transform="matrix(1,0,0,1,1905,-120.5) translate(0 24.08376736111111)"/><use xlink:href="#e" transform="matrix(1,0,0,1,2085.8489956305953,-120.5) translate(0 24.08376736111111)"/><use xlink:href="#o" transform="matrix(1,0,0,1,1905,-83.5) translate(0 24.08376736111111)"/><use xlink:href="#h" transform="matrix(1,0,0,1,2085.8489956305953,-83.5) translate(0 24.08376736111111)"/><use xlink:href="#r" transform="matrix(1,0,0,1,1905,-46.5) translate(0 24.08376736111111)"/><use xlink:href="#h" transform="matrix(1,0,0,1,2085.8489956305953,-46.5) translate(0 24.08376736111111)"/><use xlink:href="#L" transform="matrix(1,0,0,1,1905,-9.5) translate(0 24.08376736111111)"/><use xlink:href="#h" transform="matrix(1,0,0,1,2085.8489956305953,-9.5) translate(0 24.08376736111111)"/><path d="M1820 289a12 12 0 0 1 12-12h376a12 12 0 0 1 12 12v275a12 12 0 0 1-12 12h-376a12 12 0 0 1-12-12z" fill="#fff"/><path d="M1820 317h400v38h-400z" fill="#fff"/><path d="M1820 354h400v38h-400z" fill="#fff"/><path d="M1820 391h400v38h-400z" fill="#fff"/><path d="M1820 428h400v38h-400z" fill="#fff"/><path d="M1820 465h400v38h-400z" fill="#fff"/><path d="M1820 502h400v38h-400z" fill="#fff"/><path d="M1820 539h400v25a12 12 0 0 1-12 12h-376a12 12 0 0 1-12-12z" fill="#fff"/><path d="M1821 317h398-398zM1820 289a12 12 0 0 1 12-12h376a12 12 0 0 1 12 12v275a12 12 0 0 1-12 12h-376a12 12 0 0 1-12-12zM1880 318v257zM2098.25 318v257z" stroke="#000" stroke-width="2" fill="none"/><use xlink:href="#M" transform="matrix(1,0,0,1,1830,277) translate(153.76497395833334 28.08376736111111)"/><use xlink:href="#c" transform="matrix(1,0,0,1,1825,319.5) translate(12.098524305555557 24.08376736111111)"/><use xlink:href="#A" transform="matrix(1,0,0,1,1885,319.5) translate(0 24.08376736111111)"/><use xlink:href="#e" transform="matrix(1,0,0,1,2103.2467288578405,319.5) translate(0 24.08376736111111)"/><use xlink:href="#j" transform="matrix(1,0,0,1,1825,356.5) translate(14.789496527777779 24.08376736111111)"/><use xlink:href="#K" transform="matrix(1,0,0,1,1885,356.5) translate(0 24.08376736111111)"/><use xlink:href="#e" transform="matrix(1,0,0,1,2103.2467288578405,356.5) translate(0 24.08376736111111)"/><use xlink:href="#g" transform="matrix(1,0,0,1,1885,393.5) translate(0 24.08376736111111)"/><use xlink:href="#h" transform="matrix(1,0,0,1,2103.2467288578405,393.5) translate(0 24.08376736111111)"/><use xlink:href="#i" transform="matrix(1,0,0,1,1885,430.5) translate(0 24.08376736111111)"/><use xlink:href="#h" transform="matrix(1,0,0,1,2103.2467288578405,430.5) translate(0 24.08376736111111)"/><use xlink:href="#N" transform="matrix(1,0,0,1,1885,467.5) translate(0 24.08376736111111)"/><use xlink:href="#h" transform="matrix(1,0,0,1,2103.2467288578405,467.5) translate(0 24.08376736111111)"/><use xlink:href="#l" transform="matrix(1,0,0,1,1885,504.5) translate(0 24.08376736111111)"/><use xlink:href="#h" transform="matrix(1,0,0,1,2103.2467288578405,504.5) translate(0 24.08376736111111)"/><use xlink:href="#w" transform="matrix(1,0,0,1,1885,541.5) translate(0 24.08376736111111)"/><use xlink:href="#h" transform="matrix(1,0,0,1,2103.2467288578405,541.5) translate(0 24.08376736111111)"/><path d="M2221-104.7h33a6 6 0 0 1 6 6v464.93a6 6 0 0 1-6 6h-13.6M2201-104.7h20m0 10v-20M2221.22 372.23h20m-20 10l20-10m-20-10l20 10M1799 335.05h-121.3a6 6 0 0 0-6 6v99.54a6 6 0 0 1-6 6h-14.6M1819 335.05h-20m0-10v20M1631.92 446.6h20m-20 10l20-10m-20-10l20 10" stroke="#3a414a" fill="none"/><defs><path fill="#fff" d="M577 24c-279 0-473-224-473-580 0-354 195-576 474-576 218 0 287 134 324 193h14v-551h180V0H922v-173h-20C865-111 790 24 577 24zm27-161c203 0 314-172 314-421 0-247-108-413-314-413-212 0-317 181-317 413 0 235 108 421 317 421" id="O"/><path fill="#fff" d="M471 26C259 26 90-98 90-318c0-256 228-303 435-329 202-27 287-16 287-108 0-139-79-219-234-219-161 0-248 86-283 164l-173-57c86-203 278-265 451-265 150 0 419 46 419 395V0H815v-152h-12C765-73 660 26 471 26zm31-159c199 0 310-134 310-271v-155c-30 35-226 55-295 64-131 17-246 59-246 186 0 116 97 176 231 176" id="P"/><path fill="#fff" d="M598-1118v154H368v674c0 100 37 144 132 144 23 0 62-6 92-12L629-6c-37 13-88 20-134 20-193 0-307-107-307-290v-688H20v-154h168v-266h180v266h230" id="Q"/><path fill="#fff" d="M677 24c-213 0-288-135-325-197h-20V0H158v-1490h180v551h14c37-59 106-193 324-193 279 0 474 222 474 576 0 356-194 580-473 580zm-27-161c209 0 317-186 317-421 0-232-105-413-317-413-206 0-314 166-314 413 0 249 111 421 314 421" id="R"/><path fill="#fff" d="M538 24C308 24 148-78 108-271l171-41c32 123 123 178 257 178 156 0 256-77 256-169 0-77-54-128-164-154l-186-44c-203-48-300-148-300-305 0-192 176-326 414-326 230 0 351 112 402 269l-163 42c-31-80-94-158-238-158-133 0-233 69-233 162 0 83 57 129 188 160l169 40c203 48 298 149 298 302 0 196-179 339-441 339" id="S"/><path fill="#fff" d="M628 24c-324 0-524-230-524-574 0-343 198-582 503-582 237 0 487 146 487 559v75H286c9 234 145 362 343 362 132 0 231-58 273-172l174 48C1024-91 857 24 628 24zM287-650h624c-17-190-120-322-304-322-192 0-309 151-320 322" id="T"/><g id="a"><use transform="matrix(0.015190972222222224,0,0,0.015190972222222224,0,0)" xlink:href="#O"/><use transform="matrix(0.015190972222222224,0,0,0.015190972222222224,19.049479166666668,0)" xlink:href="#P"/><use transform="matrix(0.015190972222222224,0,0,0.015190972222222224,36.51909722222223,0)" xlink:href="#Q"/><use transform="matrix(0.015190972222222224,0,0,0.015190972222222224,46.84895833333334,0)" xlink:href="#P"/><use transform="matrix(0.015190972222222224,0,0,0.015190972222222224,64.3185763888889,0)" xlink:href="#R"/><use transform="matrix(0.015190972222222224,0,0,0.015190972222222224,83.67187500000001,0)" xlink:href="#P"/><use transform="matrix(0.015190972222222224,0,0,0.015190972222222224,101.14149305555557,0)" xlink:href="#S"/><use transform="matrix(0.015190972222222224,0,0,0.015190972222222224,117.5629340277778,0)" xlink:href="#T"/></g><path d="M628 24c-324 0-524-230-524-574 0-343 198-582 503-582 237 0 487 146 487 559v75H286c9 234 145 362 343 362 132 0 231-58 273-172l174 48C1024-91 857 24 628 24zM287-650h624c-17-190-120-322-304-322-192 0-309 151-320 322" id="U"/><path d="M538 24C308 24 148-78 108-271l171-41c32 123 123 178 257 178 156 0 256-77 256-169 0-77-54-128-164-154l-186-44c-203-48-300-148-300-305 0-192 176-326 414-326 230 0 351 112 402 269l-163 42c-31-80-94-158-238-158-133 0-233 69-233 162 0 83 57 129 188 160l169 40c203 48 298 149 298 302 0 196-179 339-441 339" id="V"/><path d="M598-1118v154H368v674c0 100 37 144 132 144 23 0 62-6 92-12L629-6c-37 13-88 20-134 20-193 0-307-107-307-290v-688H20v-154h168v-266h180v266h230" id="W"/><path d="M537 14c-226 0-379-139-379-422v-710h180v695c0 172 97 275 253 275 160 0 281-109 281-300v-670h181V0H879v-209C806-46 684 14 537 14" id="X"/><path d="M577 24c-279 0-473-224-473-580 0-354 195-576 474-576 218 0 287 134 324 193h14v-551h180V0H922v-173h-20C865-111 790 24 577 24zm27-161c203 0 314-172 314-421 0-247-108-413-314-413-212 0-317 181-317 413 0 235 108 421 317 421" id="Y"/><path d="M158 0v-1118h180V0H158zm91-1301c-68 0-125-53-125-119s57-119 125-119c69 0 126 53 126 119s-57 119-126 119" id="Z"/><path d="M471 26C259 26 90-98 90-318c0-256 228-303 435-329 202-27 287-16 287-108 0-139-79-219-234-219-161 0-248 86-283 164l-173-57c86-203 278-265 451-265 150 0 419 46 419 395V0H815v-152h-12C765-73 660 26 471 26zm31-159c199 0 310-134 310-271v-155c-30 35-226 55-295 64-131 17-246 59-246 186 0 116 97 176 231 176" id="aa"/><path d="M338-670V0H158v-1118h173l1 207c72-158 192-221 342-221 226 0 378 139 378 422V0H872v-695c0-172-96-275-252-275-161 0-282 109-282 300" id="ab"/><g id="b"><use transform="matrix(0.010850694444444444,0,0,0.010850694444444444,0,0)" xlink:href="#U"/><use transform="matrix(0.010850694444444444,0,0,0.010850694444444444,12.955729166666666,0)" xlink:href="#V"/><use transform="matrix(0.010850694444444444,0,0,0.010850694444444444,24.68532986111111,0)" xlink:href="#W"/><use transform="matrix(0.010850694444444444,0,0,0.010850694444444444,31.95529513888889,0)" xlink:href="#X"/><use transform="matrix(0.010850694444444444,0,0,0.010850694444444444,45.09548611111111,0)" xlink:href="#Y"/><use transform="matrix(0.010850694444444444,0,0,0.010850694444444444,58.70225694444444,0)" xlink:href="#Z"/><use transform="matrix(0.010850694444444444,0,0,0.010850694444444444,64.08420138888889,0)" xlink:href="#aa"/><use transform="matrix(0.010850694444444444,0,0,0.010850694444444444,76.5625,0)" xlink:href="#ab"/><use transform="matrix(0.010850694444444444,0,0,0.010850694444444444,89.69184027777777,0)" xlink:href="#W"/><use transform="matrix(0.010850694444444444,0,0,0.010850694444444444,96.74479166666666,0)" xlink:href="#U"/><use transform="matrix(0.010850694444444444,0,0,0.010850694444444444,109.70052083333333,0)" xlink:href="#V"/></g><path d="M158 418v-1536h174v179h20c37-59 106-193 324-193 279 0 474 222 474 576 0 356-194 580-473 580-213 0-288-135-325-197h-14v591H158zm492-555c209 0 317-186 317-421 0-232-105-413-317-413-206 0-314 166-314 413 0 249 111 421 314 421" id="ac"/><path d="M158 0v-1490h180v865h22l478-493h223L593-638 1096 0H865L456-523 338-412V0H158" id="ad"/><g id="c"><use transform="matrix(0.010850694444444444,0,0,0.010850694444444444,0,0)" xlink:href="#ac"/><use transform="matrix(0.010850694444444444,0,0,0.010850694444444444,13.606770833333332,0)" xlink:href="#ad"/></g><path d="M934 0v166H0V0h934" id="ae"/><g id="d"><use transform="matrix(0.010850694444444444,0,0,0.010850694444444444,0,0)" xlink:href="#Z"/><use transform="matrix(0.010850694444444444,0,0,0.010850694444444444,5.381944444444445,0)" xlink:href="#Y"/><use transform="matrix(0.010850694444444444,0,0,0.010850694444444444,18.98871527777778,0)" xlink:href="#ae"/><use transform="matrix(0.010850694444444444,0,0,0.010850694444444444,29.12326388888889,0)" xlink:href="#U"/><use transform="matrix(0.010850694444444444,0,0,0.010850694444444444,42.07899305555556,0)" xlink:href="#V"/><use transform="matrix(0.010850694444444444,0,0,0.010850694444444444,53.80859375,0)" xlink:href="#W"/><use transform="matrix(0.010850694444444444,0,0,0.010850694444444444,61.07855902777778,0)" xlink:href="#X"/><use transform="matrix(0.010850694444444444,0,0,0.010850694444444444,74.21875,0)" xlink:href="#Y"/><use transform="matrix(0.010850694444444444,0,0,0.010850694444444444,87.82552083333333,0)" xlink:href="#Z"/><use transform="matrix(0.010850694444444444,0,0,0.010850694444444444,93.20746527777777,0)" xlink:href="#aa"/><use transform="matrix(0.010850694444444444,0,0,0.010850694444444444,105.68576388888889,0)" xlink:href="#ab"/><use transform="matrix(0.010850694444444444,0,0,0.010850694444444444,118.81510416666666,0)" xlink:href="#W"/><use transform="matrix(0.010850694444444444,0,0,0.010850694444444444,125.86805555555556,0)" xlink:href="#U"/></g><g id="e"><use transform="matrix(0.010850694444444444,0,0,0.010850694444444444,0,0)" xlink:href="#Z"/><use transform="matrix(0.010850694444444444,0,0,0.010850694444444444,5.381944444444445,0)" xlink:href="#ab"/><use transform="matrix(0.010850694444444444,0,0,0.010850694444444444,18.51128472222222,0)" xlink:href="#W"/></g><path d="M158 0v-1118h174v172h12c41-113 157-188 290-188 26 0 70 2 91 3v181c-11-2-60-10-108-10-161 0-279 109-279 260V0H158" id="af"/><g id="f"><use transform="matrix(0.010850694444444444,0,0,0.010850694444444444,0,0)" xlink:href="#af"/><use transform="matrix(0.010850694444444444,0,0,0.010850694444444444,8.365885416666666,0)" xlink:href="#X"/><use transform="matrix(0.010850694444444444,0,0,0.010850694444444444,21.506076388888886,0)" xlink:href="#W"/></g><path d="M338-1490V0H158v-1490h180" id="ag"/><path d="M613 24c-304 0-509-231-509-576 0-350 205-580 509-580 305 0 511 230 511 580 0 345-206 576-511 576zm0-161c226 0 329-195 329-415 0-222-103-419-329-419-223 0-326 196-326 419 0 220 103 415 326 415" id="ah"/><g id="g"><use transform="matrix(0.010850694444444444,0,0,0.010850694444444444,0,0)" xlink:href="#aa"/><use transform="matrix(0.010850694444444444,0,0,0.010850694444444444,12.47829861111111,0)" xlink:href="#ac"/><use transform="matrix(0.010850694444444444,0,0,0.010850694444444444,26.085069444444443,0)" xlink:href="#U"/><use transform="matrix(0.010850694444444444,0,0,0.010850694444444444,39.04079861111111,0)" xlink:href="#ag"/><use transform="matrix(0.010850694444444444,0,0,0.010850694444444444,44.42274305555555,0)" xlink:href="#ag"/><use transform="matrix(0.010850694444444444,0,0,0.010850694444444444,49.804687499999986,0)" xlink:href="#Z"/><use transform="matrix(0.010850694444444444,0,0,0.010850694444444444,55.186631944444436,0)" xlink:href="#Y"/><use transform="matrix(0.010850694444444444,0,0,0.010850694444444444,68.79340277777777,0)" xlink:href="#ah"/><use transform="matrix(0.010850694444444444,0,0,0.010850694444444444,82.11805555555554,0)" xlink:href="#V"/></g><path d="M481 0L54-1118h197c107 314 236 620 325 951 87-331 217-637 324-951h197L670 0H481" id="ai"/><path d="M613 24c-304 0-509-231-509-576 0-350 205-580 509-580 216 0 392 114 453 309l-173 49c-33-115-133-197-280-197-223 0-326 196-326 419 0 220 103 415 326 415 150 0 252-85 285-206l172 49C1010-95 832 24 613 24" id="aj"/><path d="M338-670V0H158v-1490h180v566c73-149 190-208 336-208 226 0 379 139 379 422V0H872v-695c0-172-96-275-252-275-161 0-282 109-282 300" id="ak"/><g id="h"><use transform="matrix(0.010850694444444444,0,0,0.010850694444444444,0,0)" xlink:href="#ai"/><use transform="matrix(0.010850694444444444,0,0,0.010850694444444444,12.38064236111111,0)" xlink:href="#aa"/><use transform="matrix(0.010850694444444444,0,0,0.010850694444444444,24.85894097222222,0)" xlink:href="#af"/><use transform="matrix(0.010850694444444444,0,0,0.010850694444444444,32.85590277777778,0)" xlink:href="#aj"/><use transform="matrix(0.010850694444444444,0,0,0.010850694444444444,45.55121527777778,0)" xlink:href="#ak"/><use transform="matrix(0.010850694444444444,0,0,0.010850694444444444,58.69140625,0)" xlink:href="#aa"/><use transform="matrix(0.010850694444444444,0,0,0.010850694444444444,71.16970486111111,0)" xlink:href="#af"/></g><path d="M158 0v-1118h175l1 205c55-151 181-225 313-225 147 0 245 90 285 228 53-141 190-228 352-228 194 0 352 125 352 384V0h-181v-749c0-161-105-225-225-225-151 0-243 103-243 244V0H807v-767c0-124-93-207-219-207-131 0-250 92-250 270V0H158" id="al"/><path d="M677 24c-213 0-288-135-325-197h-20V0H158v-1490h180v551h14c37-59 106-193 324-193 279 0 474 222 474 576 0 356-194 580-473 580zm-27-161c209 0 317-186 317-421 0-232-105-413-317-413-206 0-314 166-314 413 0 249 111 421 314 421" id="am"/><g id="i"><use transform="matrix(0.010850694444444444,0,0,0.010850694444444444,0,0)" xlink:href="#ab"/><use transform="matrix(0.010850694444444444,0,0,0.010850694444444444,13.129340277777777,0)" xlink:href="#ah"/><use transform="matrix(0.010850694444444444,0,0,0.010850694444444444,26.453993055555554,0)" xlink:href="#al"/><use transform="matrix(0.010850694444444444,0,0,0.010850694444444444,45.920138888888886,0)" xlink:href="#am"/><use transform="matrix(0.010850694444444444,0,0,0.010850694444444444,59.52690972222221,0)" xlink:href="#af"/><use transform="matrix(0.010850694444444444,0,0,0.010850694444444444,67.52387152777777,0)" xlink:href="#U"/><use transform="matrix(0.010850694444444444,0,0,0.010850694444444444,80.47960069444444,0)" xlink:href="#V"/></g><path d="M678-1118v154H420V0H240v-964H20v-154h220v-149c0-194 155-293 318-293 85 0 141 18 168 30l-50 154c-19-6-47-17-97-17-111 0-159 58-159 166v109h258" id="an"/><g id="j"><use transform="matrix(0.010850694444444444,0,0,0.010850694444444444,0,0)" xlink:href="#an"/><use transform="matrix(0.010850694444444444,0,0,0.010850694444444444,8.22482638888889,0)" xlink:href="#ad"/></g><g id="k"><use transform="matrix(0.010850694444444444,0,0,0.010850694444444444,0,0)" xlink:href="#Z"/><use transform="matrix(0.010850694444444444,0,0,0.010850694444444444,5.381944444444445,0)" xlink:href="#Y"/><use transform="matrix(0.010850694444444444,0,0,0.010850694444444444,18.98871527777778,0)" xlink:href="#ae"/><use transform="matrix(0.010850694444444444,0,0,0.010850694444444444,29.12326388888889,0)" xlink:href="#aj"/><use transform="matrix(0.010850694444444444,0,0,0.010850694444444444,42.03559027777778,0)" xlink:href="#aa"/><use transform="matrix(0.010850694444444444,0,0,0.010850694444444444,54.513888888888886,0)" xlink:href="#af"/><use transform="matrix(0.010850694444444444,0,0,0.010850694444444444,63.22699652777778,0)" xlink:href="#af"/><use transform="matrix(0.010850694444444444,0,0,0.010850694444444444,71.22395833333333,0)" xlink:href="#U"/><use transform="matrix(0.010850694444444444,0,0,0.010850694444444444,84.1796875,0)" xlink:href="#af"/><use transform="matrix(0.010850694444444444,0,0,0.010850694444444444,92.54557291666666,0)" xlink:href="#aa"/></g><g id="l"><use transform="matrix(0.010850694444444444,0,0,0.010850694444444444,0,0)" xlink:href="#aj"/><use transform="matrix(0.010850694444444444,0,0,0.010850694444444444,12.6953125,0)" xlink:href="#ah"/><use transform="matrix(0.010850694444444444,0,0,0.010850694444444444,26.01996527777778,0)" xlink:href="#af"/><use transform="matrix(0.010850694444444444,0,0,0.010850694444444444,34.733072916666664,0)" xlink:href="#af"/><use transform="matrix(0.010850694444444444,0,0,0.010850694444444444,42.730034722222214,0)" xlink:href="#U"/><use transform="matrix(0.010850694444444444,0,0,0.010850694444444444,55.68576388888888,0)" xlink:href="#ah"/></g><g id="m"><use transform="matrix(0.010850694444444444,0,0,0.010850694444444444,0,0)" xlink:href="#X"/><use transform="matrix(0.010850694444444444,0,0,0.010850694444444444,13.140190972222221,0)" xlink:href="#ab"/><use transform="matrix(0.010850694444444444,0,0,0.010850694444444444,26.26953125,0)" xlink:href="#Z"/><use transform="matrix(0.010850694444444444,0,0,0.010850694444444444,31.651475694444443,0)" xlink:href="#ai"/><use transform="matrix(0.010850694444444444,0,0,0.010850694444444444,43.70659722222222,0)" xlink:href="#U"/><use transform="matrix(0.010850694444444444,0,0,0.010850694444444444,56.662326388888886,0)" xlink:href="#af"/><use transform="matrix(0.010850694444444444,0,0,0.010850694444444444,65.02821180555556,0)" xlink:href="#V"/><use transform="matrix(0.010850694444444444,0,0,0.010850694444444444,76.7578125,0)" xlink:href="#Z"/><use transform="matrix(0.010850694444444444,0,0,0.010850694444444444,82.13975694444444,0)" xlink:href="#Y"/><use transform="matrix(0.010850694444444444,0,0,0.010850694444444444,95.74652777777777,0)" xlink:href="#aa"/><use transform="matrix(0.010850694444444444,0,0,0.010850694444444444,108.22482638888889,0)" xlink:href="#Y"/><use transform="matrix(0.010850694444444444,0,0,0.010850694444444444,121.83159722222221,0)" xlink:href="#U"/><use transform="matrix(0.010850694444444444,0,0,0.010850694444444444,134.78732638888889,0)" xlink:href="#V"/></g><g id="n"><use transform="matrix(0.010850694444444444,0,0,0.010850694444444444,0,0)" xlink:href="#Z"/><use transform="matrix(0.010850694444444444,0,0,0.010850694444444444,5.381944444444445,0)" xlink:href="#Y"/><use transform="matrix(0.010850694444444444,0,0,0.010850694444444444,18.98871527777778,0)" xlink:href="#ae"/><use transform="matrix(0.010850694444444444,0,0,0.010850694444444444,29.12326388888889,0)" xlink:href="#X"/><use transform="matrix(0.010850694444444444,0,0,0.010850694444444444,42.263454861111114,0)" xlink:href="#ab"/><use transform="matrix(0.010850694444444444,0,0,0.010850694444444444,55.3927951388889,0)" xlink:href="#Z"/><use transform="matrix(0.010850694444444444,0,0,0.010850694444444444,60.77473958333333,0)" xlink:href="#ai"/><use transform="matrix(0.010850694444444444,0,0,0.010850694444444444,72.82986111111111,0)" xlink:href="#U"/><use transform="matrix(0.010850694444444444,0,0,0.010850694444444444,85.78559027777779,0)" xlink:href="#af"/><use transform="matrix(0.010850694444444444,0,0,0.010850694444444444,94.15147569444446,0)" xlink:href="#V"/><use transform="matrix(0.010850694444444444,0,0,0.010850694444444444,105.8810763888889,0)" xlink:href="#Z"/><use transform="matrix(0.010850694444444444,0,0,0.010850694444444444,111.26302083333334,0)" xlink:href="#Y"/><use transform="matrix(0.010850694444444444,0,0,0.010850694444444444,124.86979166666666,0)" xlink:href="#aa"/><use transform="matrix(0.010850694444444444,0,0,0.010850694444444444,137.34809027777777,0)" xlink:href="#Y"/></g><g id="o"><use transform="matrix(0.010850694444444444,0,0,0.010850694444444444,0,0)" xlink:href="#ab"/><use transform="matrix(0.010850694444444444,0,0,0.010850694444444444,13.129340277777777,0)" xlink:href="#ah"/><use transform="matrix(0.010850694444444444,0,0,0.010850694444444444,26.453993055555554,0)" xlink:href="#al"/><use transform="matrix(0.010850694444444444,0,0,0.010850694444444444,45.920138888888886,0)" xlink:href="#am"/><use transform="matrix(0.010850694444444444,0,0,0.010850694444444444,59.52690972222221,0)" xlink:href="#af"/><use transform="matrix(0.010850694444444444,0,0,0.010850694444444444,67.52387152777777,0)" xlink:href="#U"/></g><g id="p"><use transform="matrix(0.010850694444444444,0,0,0.010850694444444444,0,0)" xlink:href="#V"/><use transform="matrix(0.010850694444444444,0,0,0.010850694444444444,11.729600694444445,0)" xlink:href="#U"/><use transform="matrix(0.010850694444444444,0,0,0.010850694444444444,24.68532986111111,0)" xlink:href="#Y"/><use transform="matrix(0.010850694444444444,0,0,0.010850694444444444,38.29210069444444,0)" xlink:href="#U"/><use transform="matrix(0.010850694444444444,0,0,0.010850694444444444,51.24782986111111,0)" xlink:href="#V"/></g><g id="q"><use transform="matrix(0.010850694444444444,0,0,0.010850694444444444,0,0)" xlink:href="#Z"/><use transform="matrix(0.010850694444444444,0,0,0.010850694444444444,5.381944444444445,0)" xlink:href="#Y"/><use transform="matrix(0.010850694444444444,0,0,0.010850694444444444,18.98871527777778,0)" xlink:href="#ae"/><use transform="matrix(0.010850694444444444,0,0,0.010850694444444444,29.12326388888889,0)" xlink:href="#V"/><use transform="matrix(0.010850694444444444,0,0,0.010850694444444444,40.852864583333336,0)" xlink:href="#U"/><use transform="matrix(0.010850694444444444,0,0,0.010850694444444444,53.80859375,0)" xlink:href="#Y"/><use transform="matrix(0.010850694444444444,0,0,0.010850694444444444,67.41536458333333,0)" xlink:href="#U"/></g><g id="r"><use transform="matrix(0.010850694444444444,0,0,0.010850694444444444,0,0)" xlink:href="#X"/><use transform="matrix(0.010850694444444444,0,0,0.010850694444444444,13.140190972222221,0)" xlink:href="#am"/><use transform="matrix(0.010850694444444444,0,0,0.010850694444444444,26.746961805555554,0)" xlink:href="#Z"/><use transform="matrix(0.010850694444444444,0,0,0.010850694444444444,32.12890625,0)" xlink:href="#aj"/><use transform="matrix(0.010850694444444444,0,0,0.010850694444444444,45.041232638888886,0)" xlink:href="#aa"/><use transform="matrix(0.010850694444444444,0,0,0.010850694444444444,57.51953125,0)" xlink:href="#aj"/><use transform="matrix(0.010850694444444444,0,0,0.010850694444444444,70.21484375,0)" xlink:href="#Z"/><use transform="matrix(0.010850694444444444,0,0,0.010850694444444444,75.59678819444444,0)" xlink:href="#ah"/><use transform="matrix(0.010850694444444444,0,0,0.010850694444444444,88.92144097222221,0)" xlink:href="#ab"/></g><g id="s"><use transform="matrix(0.010850694444444444,0,0,0.010850694444444444,0,0)" xlink:href="#aj"/><use transform="matrix(0.010850694444444444,0,0,0.010850694444444444,12.91232638888889,0)" xlink:href="#aa"/><use transform="matrix(0.010850694444444444,0,0,0.010850694444444444,25.390625,0)" xlink:href="#af"/><use transform="matrix(0.010850694444444444,0,0,0.010850694444444444,34.103732638888886,0)" xlink:href="#af"/><use transform="matrix(0.010850694444444444,0,0,0.010850694444444444,42.100694444444436,0)" xlink:href="#U"/><use transform="matrix(0.010850694444444444,0,0,0.010850694444444444,55.0564236111111,0)" xlink:href="#af"/><use transform="matrix(0.010850694444444444,0,0,0.010850694444444444,63.422309027777764,0)" xlink:href="#aa"/><use transform="matrix(0.010850694444444444,0,0,0.010850694444444444,75.90060763888887,0)" xlink:href="#V"/></g><g id="t"><use transform="matrix(0.010850694444444444,0,0,0.010850694444444444,0,0)" xlink:href="#Z"/><use transform="matrix(0.010850694444444444,0,0,0.010850694444444444,5.381944444444445,0)" xlink:href="#Y"/><use transform="matrix(0.010850694444444444,0,0,0.010850694444444444,18.98871527777778,0)" xlink:href="#ae"/><use transform="matrix(0.010850694444444444,0,0,0.010850694444444444,29.12326388888889,0)" xlink:href="#Y"/><use transform="matrix(0.010850694444444444,0,0,0.010850694444444444,42.73003472222222,0)" xlink:href="#Z"/><use transform="matrix(0.010850694444444444,0,0,0.010850694444444444,48.111979166666664,0)" xlink:href="#af"/><use transform="matrix(0.010850694444444444,0,0,0.010850694444444444,56.10894097222221,0)" xlink:href="#U"/><use transform="matrix(0.010850694444444444,0,0,0.010850694444444444,69.06467013888889,0)" xlink:href="#aj"/><use transform="matrix(0.010850694444444444,0,0,0.010850694444444444,81.75998263888889,0)" xlink:href="#W"/><use transform="matrix(0.010850694444444444,0,0,0.010850694444444444,88.81293402777777,0)" xlink:href="#ah"/><use transform="matrix(0.010850694444444444,0,0,0.010850694444444444,102.13758680555556,0)" xlink:href="#af"/></g><g id="u"><use transform="matrix(0.010850694444444444,0,0,0.010850694444444444,0,0)" xlink:href="#Z"/><use transform="matrix(0.010850694444444444,0,0,0.010850694444444444,5.381944444444445,0)" xlink:href="#Y"/></g><g id="v"><use transform="matrix(0.010850694444444444,0,0,0.010850694444444444,0,0)" xlink:href="#Y"/><use transform="matrix(0.010850694444444444,0,0,0.010850694444444444,13.606770833333332,0)" xlink:href="#Z"/><use transform="matrix(0.010850694444444444,0,0,0.010850694444444444,18.98871527777778,0)" xlink:href="#af"/><use transform="matrix(0.010850694444444444,0,0,0.010850694444444444,26.985677083333336,0)" xlink:href="#U"/><use transform="matrix(0.010850694444444444,0,0,0.010850694444444444,39.94140625,0)" xlink:href="#aj"/><use transform="matrix(0.010850694444444444,0,0,0.010850694444444444,52.63671875,0)" xlink:href="#W"/><use transform="matrix(0.010850694444444444,0,0,0.010850694444444444,59.6896701388889,0)" xlink:href="#ah"/><use transform="matrix(0.010850694444444444,0,0,0.010850694444444444,73.01432291666667,0)" xlink:href="#af"/><use transform="matrix(0.010850694444444444,0,0,0.010850694444444444,81.01128472222223,0)" xlink:href="#U"/><use transform="matrix(0.010850694444444444,0,0,0.010850694444444444,93.9670138888889,0)" xlink:href="#V"/></g><g id="w"><use transform="matrix(0.010850694444444444,0,0,0.010850694444444444,0,0)" xlink:href="#W"/><use transform="matrix(0.010850694444444444,0,0,0.010850694444444444,7.052951388888888,0)" xlink:href="#U"/><use transform="matrix(0.010850694444444444,0,0,0.010850694444444444,20.008680555555554,0)" xlink:href="#ag"/><use transform="matrix(0.010850694444444444,0,0,0.010850694444444444,25.390625,0)" xlink:href="#U"/><use transform="matrix(0.010850694444444444,0,0,0.010850694444444444,38.346354166666664,0)" xlink:href="#an"/><use transform="matrix(0.010850694444444444,0,0,0.010850694444444444,45.920138888888886,0)" xlink:href="#ah"/><use transform="matrix(0.010850694444444444,0,0,0.010850694444444444,59.244791666666664,0)" xlink:href="#ab"/><use transform="matrix(0.010850694444444444,0,0,0.010850694444444444,72.37413194444444,0)" xlink:href="#ah"/></g><g id="x"><use transform="matrix(0.010850694444444444,0,0,0.010850694444444444,0,0)" xlink:href="#ac"/><use transform="matrix(0.010850694444444444,0,0,0.010850694444444444,13.606770833333332,0)" xlink:href="#af"/><use transform="matrix(0.010850694444444444,0,0,0.010850694444444444,21.97265625,0)" xlink:href="#aa"/><use transform="matrix(0.010850694444444444,0,0,0.010850694444444444,34.450954861111114,0)" xlink:href="#aj"/><use transform="matrix(0.010850694444444444,0,0,0.010850694444444444,47.14626736111111,0)" xlink:href="#W"/><use transform="matrix(0.010850694444444444,0,0,0.010850694444444444,54.4162326388889,0)" xlink:href="#Z"/><use transform="matrix(0.010850694444444444,0,0,0.010850694444444444,59.79817708333333,0)" xlink:href="#aj"/><use transform="matrix(0.010850694444444444,0,0,0.010850694444444444,72.71050347222223,0)" xlink:href="#aa"/><use transform="matrix(0.010850694444444444,0,0,0.010850694444444444,85.18880208333334,0)" xlink:href="#V"/></g><g id="y"><use transform="matrix(0.010850694444444444,0,0,0.010850694444444444,0,0)" xlink:href="#Z"/><use transform="matrix(0.010850694444444444,0,0,0.010850694444444444,5.381944444444445,0)" xlink:href="#Y"/><use transform="matrix(0.010850694444444444,0,0,0.010850694444444444,18.98871527777778,0)" xlink:href="#ae"/><use transform="matrix(0.010850694444444444,0,0,0.010850694444444444,29.87196180555556,0)" xlink:href="#ac"/><use transform="matrix(0.010850694444444444,0,0,0.010850694444444444,43.478732638888886,0)" xlink:href="#af"/><use transform="matrix(0.010850694444444444,0,0,0.010850694444444444,51.84461805555556,0)" xlink:href="#aa"/><use transform="matrix(0.010850694444444444,0,0,0.010850694444444444,64.32291666666666,0)" xlink:href="#aj"/><use transform="matrix(0.010850694444444444,0,0,0.010850694444444444,77.01822916666666,0)" xlink:href="#W"/><use transform="matrix(0.010850694444444444,0,0,0.010850694444444444,84.28819444444443,0)" xlink:href="#Z"/><use transform="matrix(0.010850694444444444,0,0,0.010850694444444444,89.67013888888887,0)" xlink:href="#aj"/><use transform="matrix(0.010850694444444444,0,0,0.010850694444444444,102.58246527777776,0)" xlink:href="#aa"/></g><path d="M611 442c-248 0-391-105-460-228l146-94c47 65 117 165 314 165 178 0 307-82 307-266v-224h-17C863-141 792-18 576-18c-268 0-472-195-472-546 0-346 197-568 476-568 216 0 288 133 326 193h17v-179h175V29c0 289-215 413-487 413zm-5-620c203 0 314-146 314-390 0-237-108-403-314-403-213 0-319 180-319 403 0 230 109 390 319 390" id="ao"/><g id="z"><use transform="matrix(0.010850694444444444,0,0,0.010850694444444444,0,0)" xlink:href="#Z"/><use transform="matrix(0.010850694444444444,0,0,0.010850694444444444,5.381944444444445,0)" xlink:href="#Y"/><use transform="matrix(0.010850694444444444,0,0,0.010850694444444444,18.98871527777778,0)" xlink:href="#ae"/><use transform="matrix(0.010850694444444444,0,0,0.010850694444444444,29.12326388888889,0)" xlink:href="#U"/><use transform="matrix(0.010850694444444444,0,0,0.010850694444444444,42.07899305555556,0)" xlink:href="#ab"/><use transform="matrix(0.010850694444444444,0,0,0.010850694444444444,55.20833333333333,0)" xlink:href="#aj"/><use transform="matrix(0.010850694444444444,0,0,0.010850694444444444,68.12065972222223,0)" xlink:href="#aa"/><use transform="matrix(0.010850694444444444,0,0,0.010850694444444444,80.59895833333334,0)" xlink:href="#af"/><use transform="matrix(0.010850694444444444,0,0,0.010850694444444444,88.5959201388889,0)" xlink:href="#ao"/><use transform="matrix(0.010850694444444444,0,0,0.010850694444444444,102.22439236111111,0)" xlink:href="#aa"/><use transform="matrix(0.010850694444444444,0,0,0.010850694444444444,114.70269097222224,0)" xlink:href="#Y"/><use transform="matrix(0.010850694444444444,0,0,0.010850694444444444,128.30946180555557,0)" xlink:href="#ah"/></g><g id="A"><use transform="matrix(0.010850694444444444,0,0,0.010850694444444444,0,0)" xlink:href="#Z"/><use transform="matrix(0.010850694444444444,0,0,0.010850694444444444,5.381944444444445,0)" xlink:href="#Y"/><use transform="matrix(0.010850694444444444,0,0,0.010850694444444444,18.98871527777778,0)" xlink:href="#ae"/><use transform="matrix(0.010850694444444444,0,0,0.010850694444444444,29.12326388888889,0)" xlink:href="#W"/><use transform="matrix(0.010850694444444444,0,0,0.010850694444444444,36.393229166666664,0)" xlink:href="#X"/><use transform="matrix(0.010850694444444444,0,0,0.010850694444444444,49.533420138888886,0)" xlink:href="#W"/><use transform="matrix(0.010850694444444444,0,0,0.010850694444444444,56.58637152777778,0)" xlink:href="#ah"/><use transform="matrix(0.010850694444444444,0,0,0.010850694444444444,69.91102430555556,0)" xlink:href="#af"/></g><path d="M180 0v-1490h190c0 262 1 526-3 784 217-279 467-523 702-784h249L716-845 1319 0h-225L585-716 370-489V0H180" id="ap"/><path d="M140 405l46-156c120 36 205 19 263-150l32-93L54-1118h197c107 313 237 620 324 950 87-331 219-637 326-950h196L606 167c-68 178-176 259-334 259-64 0-113-12-132-21" id="aq"/><g id="B"><use transform="matrix(0.010850694444444444,0,0,0.010850694444444444,0,0)" xlink:href="#ap"/><use transform="matrix(0.010850694444444444,0,0,0.010850694444444444,14.051649305555555,0)" xlink:href="#U"/><use transform="matrix(0.010850694444444444,0,0,0.010850694444444444,26.573350694444443,0)" xlink:href="#aq"/></g><g id="C"><use transform="matrix(0.010850694444444444,0,0,0.010850694444444444,0,0)" xlink:href="#an"/><use transform="matrix(0.010850694444444444,0,0,0.010850694444444444,7.573784722222222,0)" xlink:href="#U"/><use transform="matrix(0.010850694444444444,0,0,0.010850694444444444,20.52951388888889,0)" xlink:href="#aj"/><use transform="matrix(0.010850694444444444,0,0,0.010850694444444444,33.224826388888886,0)" xlink:href="#ak"/><use transform="matrix(0.010850694444444444,0,0,0.010850694444444444,46.36501736111111,0)" xlink:href="#aa"/><use transform="matrix(0.010850694444444444,0,0,0.010850694444444444,58.84331597222221,0)" xlink:href="#ae"/><use transform="matrix(0.010850694444444444,0,0,0.010850694444444444,69.72656249999999,0)" xlink:href="#Z"/><use transform="matrix(0.010850694444444444,0,0,0.010850694444444444,75.10850694444443,0)" xlink:href="#ab"/><use transform="matrix(0.010850694444444444,0,0,0.010850694444444444,88.2378472222222,0)" xlink:href="#Z"/><use transform="matrix(0.010850694444444444,0,0,0.010850694444444444,93.61979166666664,0)" xlink:href="#aj"/><use transform="matrix(0.010850694444444444,0,0,0.010850694444444444,106.31510416666664,0)" xlink:href="#Z"/><use transform="matrix(0.010850694444444444,0,0,0.010850694444444444,111.69704861111109,0)" xlink:href="#ah"/></g><g id="D"><use transform="matrix(0.010850694444444444,0,0,0.010850694444444444,0,0)" xlink:href="#Y"/><use transform="matrix(0.010850694444444444,0,0,0.010850694444444444,13.606770833333332,0)" xlink:href="#aa"/><use transform="matrix(0.010850694444444444,0,0,0.010850694444444444,26.085069444444443,0)" xlink:href="#W"/><use transform="matrix(0.010850694444444444,0,0,0.010850694444444444,33.13802083333333,0)" xlink:href="#U"/></g><g id="E"><use transform="matrix(0.010850694444444444,0,0,0.010850694444444444,0,0)" xlink:href="#an"/><use transform="matrix(0.010850694444444444,0,0,0.010850694444444444,7.573784722222222,0)" xlink:href="#U"/><use transform="matrix(0.010850694444444444,0,0,0.010850694444444444,20.52951388888889,0)" xlink:href="#aj"/><use transform="matrix(0.010850694444444444,0,0,0.010850694444444444,33.224826388888886,0)" xlink:href="#ak"/><use transform="matrix(0.010850694444444444,0,0,0.010850694444444444,46.36501736111111,0)" xlink:href="#aa"/><use transform="matrix(0.010850694444444444,0,0,0.010850694444444444,58.84331597222221,0)" xlink:href="#ae"/><use transform="matrix(0.010850694444444444,0,0,0.010850694444444444,68.97786458333333,0)" xlink:href="#W"/><use transform="matrix(0.010850694444444444,0,0,0.010850694444444444,76.03081597222221,0)" xlink:href="#U"/><use transform="matrix(0.010850694444444444,0,0,0.010850694444444444,88.98654513888889,0)" xlink:href="#af"/><use transform="matrix(0.010850694444444444,0,0,0.010850694444444444,97.6996527777778,0)" xlink:href="#al"/><use transform="matrix(0.010850694444444444,0,0,0.010850694444444444,117.1657986111111,0)" xlink:href="#Z"/><use transform="matrix(0.010850694444444444,0,0,0.010850694444444444,122.54774305555556,0)" xlink:href="#ab"/><use transform="matrix(0.010850694444444444,0,0,0.010850694444444444,135.67708333333334,0)" xlink:href="#ah"/></g><path d="M180 0v-1490h908v168H370v486h669v168H370v500h727V0H180" id="ar"/><g id="F"><use transform="matrix(0.010850694444444444,0,0,0.010850694444444444,0,0)" xlink:href="#Z"/><use transform="matrix(0.010850694444444444,0,0,0.010850694444444444,5.381944444444445,0)" xlink:href="#Y"/><use transform="matrix(0.010850694444444444,0,0,0.010850694444444444,18.98871527777778,0)" xlink:href="#ae"/><use transform="matrix(0.010850694444444444,0,0,0.010850694444444444,29.87196180555556,0)" xlink:href="#ar"/><use transform="matrix(0.010850694444444444,0,0,0.010850694444444444,43.22916666666667,0)" xlink:href="#V"/><use transform="matrix(0.010850694444444444,0,0,0.010850694444444444,54.95876736111112,0)" xlink:href="#W"/><use transform="matrix(0.010850694444444444,0,0,0.010850694444444444,62.33723958333333,0)" xlink:href="#aa"/><use transform="matrix(0.010850694444444444,0,0,0.010850694444444444,74.81553819444444,0)" xlink:href="#Y"/><use transform="matrix(0.010850694444444444,0,0,0.010850694444444444,88.42230902777777,0)" xlink:href="#ah"/></g><g id="G"><use transform="matrix(0.010850694444444444,0,0,0.010850694444444444,0,0)" xlink:href="#U"/><use transform="matrix(0.010850694444444444,0,0,0.010850694444444444,12.955729166666666,0)" xlink:href="#ab"/><use transform="matrix(0.010850694444444444,0,0,0.010850694444444444,26.085069444444443,0)" xlink:href="#aj"/><use transform="matrix(0.010850694444444444,0,0,0.010850694444444444,38.99739583333333,0)" xlink:href="#aa"/><use transform="matrix(0.010850694444444444,0,0,0.010850694444444444,51.47569444444444,0)" xlink:href="#af"/><use transform="matrix(0.010850694444444444,0,0,0.010850694444444444,59.472656249999986,0)" xlink:href="#ao"/><use transform="matrix(0.010850694444444444,0,0,0.010850694444444444,73.10112847222221,0)" xlink:href="#aa"/><use transform="matrix(0.010850694444444444,0,0,0.010850694444444444,85.57942708333333,0)" xlink:href="#Y"/><use transform="matrix(0.010850694444444444,0,0,0.010850694444444444,99.18619791666666,0)" xlink:href="#ah"/><use transform="matrix(0.010850694444444444,0,0,0.010850694444444444,112.51085069444441,0)" xlink:href="#V"/></g><g id="H"><use transform="matrix(0.010850694444444444,0,0,0.010850694444444444,0,0)" xlink:href="#U"/><use transform="matrix(0.010850694444444444,0,0,0.010850694444444444,12.955729166666666,0)" xlink:href="#V"/><use transform="matrix(0.010850694444444444,0,0,0.010850694444444444,24.68532986111111,0)" xlink:href="#W"/><use transform="matrix(0.010850694444444444,0,0,0.010850694444444444,32.06380208333333,0)" xlink:href="#aa"/><use transform="matrix(0.010850694444444444,0,0,0.010850694444444444,44.54210069444444,0)" xlink:href="#Y"/><use transform="matrix(0.010850694444444444,0,0,0.010850694444444444,58.14887152777778,0)" xlink:href="#ah"/><use transform="matrix(0.010850694444444444,0,0,0.010850694444444444,71.47352430555554,0)" xlink:href="#V"/></g><g id="I"><use transform="matrix(0.010850694444444444,0,0,0.010850694444444444,0,0)" xlink:href="#Z"/><use transform="matrix(0.010850694444444444,0,0,0.010850694444444444,5.381944444444445,0)" xlink:href="#Y"/><use transform="matrix(0.010850694444444444,0,0,0.010850694444444444,18.98871527777778,0)" xlink:href="#ae"/><use transform="matrix(0.010850694444444444,0,0,0.010850694444444444,29.12326388888889,0)" xlink:href="#U"/><use transform="matrix(0.010850694444444444,0,0,0.010850694444444444,42.07899305555556,0)" xlink:href="#V"/><use transform="matrix(0.010850694444444444,0,0,0.010850694444444444,53.80859375,0)" xlink:href="#W"/><use transform="matrix(0.010850694444444444,0,0,0.010850694444444444,61.18706597222222,0)" xlink:href="#aa"/><use transform="matrix(0.010850694444444444,0,0,0.010850694444444444,73.66536458333333,0)" xlink:href="#Y"/><use transform="matrix(0.010850694444444444,0,0,0.010850694444444444,87.27213541666666,0)" xlink:href="#ah"/></g><g id="J"><use transform="matrix(0.010850694444444444,0,0,0.010850694444444444,0,0)" xlink:href="#U"/><use transform="matrix(0.010850694444444444,0,0,0.010850694444444444,12.955729166666666,0)" xlink:href="#al"/><use transform="matrix(0.010850694444444444,0,0,0.010850694444444444,32.421875,0)" xlink:href="#ac"/><use transform="matrix(0.010850694444444444,0,0,0.010850694444444444,46.02864583333333,0)" xlink:href="#af"/><use transform="matrix(0.010850694444444444,0,0,0.010850694444444444,54.02560763888888,0)" xlink:href="#U"/><use transform="matrix(0.010850694444444444,0,0,0.010850694444444444,66.98133680555554,0)" xlink:href="#V"/><use transform="matrix(0.010850694444444444,0,0,0.010850694444444444,78.71093749999999,0)" xlink:href="#aa"/></g><g id="K"><use transform="matrix(0.010850694444444444,0,0,0.010850694444444444,0,0)" xlink:href="#Z"/><use transform="matrix(0.010850694444444444,0,0,0.010850694444444444,5.381944444444445,0)" xlink:href="#Y"/><use transform="matrix(0.010850694444444444,0,0,0.010850694444444444,18.98871527777778,0)" xlink:href="#ae"/><use transform="matrix(0.010850694444444444,0,0,0.010850694444444444,29.12326388888889,0)" xlink:href="#U"/><use transform="matrix(0.010850694444444444,0,0,0.010850694444444444,42.07899305555556,0)" xlink:href="#al"/><use transform="matrix(0.010850694444444444,0,0,0.010850694444444444,61.545138888888886,0)" xlink:href="#ac"/><use transform="matrix(0.010850694444444444,0,0,0.010850694444444444,75.15190972222221,0)" xlink:href="#af"/><use transform="matrix(0.010850694444444444,0,0,0.010850694444444444,83.14887152777777,0)" xlink:href="#U"/><use transform="matrix(0.010850694444444444,0,0,0.010850694444444444,96.10460069444444,0)" xlink:href="#V"/><use transform="matrix(0.010850694444444444,0,0,0.010850694444444444,107.83420138888889,0)" xlink:href="#aa"/></g><g id="L"><use transform="matrix(0.010850694444444444,0,0,0.010850694444444444,0,0)" xlink:href="#aj"/><use transform="matrix(0.010850694444444444,0,0,0.010850694444444444,12.6953125,0)" xlink:href="#ah"/><use transform="matrix(0.010850694444444444,0,0,0.010850694444444444,26.01996527777778,0)" xlink:href="#ab"/><use transform="matrix(0.010850694444444444,0,0,0.010850694444444444,39.14930555555556,0)" xlink:href="#W"/><use transform="matrix(0.010850694444444444,0,0,0.010850694444444444,46.52777777777778,0)" xlink:href="#aa"/><use transform="matrix(0.010850694444444444,0,0,0.010850694444444444,59.006076388888886,0)" xlink:href="#aj"/><use transform="matrix(0.010850694444444444,0,0,0.010850694444444444,71.70138888888889,0)" xlink:href="#W"/><use transform="matrix(0.010850694444444444,0,0,0.010850694444444444,78.75434027777777,0)" xlink:href="#ah"/></g><g id="M"><use transform="matrix(0.010850694444444444,0,0,0.010850694444444444,0,0)" xlink:href="#W"/><use transform="matrix(0.010850694444444444,0,0,0.010850694444444444,7.269965277777778,0)" xlink:href="#X"/><use transform="matrix(0.010850694444444444,0,0,0.010850694444444444,20.41015625,0)" xlink:href="#W"/><use transform="matrix(0.010850694444444444,0,0,0.010850694444444444,27.46310763888889,0)" xlink:href="#ah"/><use transform="matrix(0.010850694444444444,0,0,0.010850694444444444,40.787760416666664,0)" xlink:href="#af"/><use transform="matrix(0.010850694444444444,0,0,0.010850694444444444,48.78472222222221,0)" xlink:href="#U"/><use transform="matrix(0.010850694444444444,0,0,0.010850694444444444,61.74045138888888,0)" xlink:href="#V"/></g><g id="N"><use transform="matrix(0.010850694444444444,0,0,0.010850694444444444,0,0)" xlink:href="#aj"/><use transform="matrix(0.010850694444444444,0,0,0.010850694444444444,12.91232638888889,0)" xlink:href="#aa"/><use transform="matrix(0.010850694444444444,0,0,0.010850694444444444,25.390625,0)" xlink:href="#af"/><use transform="matrix(0.010850694444444444,0,0,0.010850694444444444,33.38758680555556,0)" xlink:href="#ao"/><use transform="matrix(0.010850694444444444,0,0,0.010850694444444444,47.01605902777778,0)" xlink:href="#ah"/></g></defs></g></svg>